M48
; DRILL file {KiCad 8.0.3-8.0.3-0~ubuntu24.04.1} date 2024-07-21T14:04:27+0200
; FORMAT={-:-/ absolute / metric / decimal}
; #@! TF.CreationDate,2024-07-21T14:04:27+02:00
; #@! TF.GenerationSoftware,Kicad,Pcbnew,8.0.3-8.0.3-0~ubuntu24.04.1
; #@! TF.FileFunction,MixedPlating,1,2
FMAT,2
METRIC
; #@! TA.AperFunction,Plated,PTH,ComponentDrill
T1C1.020
; #@! TA.AperFunction,NonPlated,NPTH,ComponentDrill
T2C0.500
; #@! TA.AperFunction,NonPlated,NPTH,ComponentDrill
T3C0.900
; #@! TA.AperFunction,NonPlated,NPTH,ComponentDrill
T4C2.200
%
G90
G05
T1
X13.987Y-47.886
X13.987Y-104.886
X58.688Y-47.886
X58.688Y-104.886
X81.987Y-47.886
X81.987Y-104.886
X126.688Y-47.886
X126.688Y-104.886
T2
X14.5Y-54.8
X14.5Y-57.2
X15.5Y-54.8
X15.5Y-57.2
X16.5Y-54.8
X16.5Y-57.2
X17.5Y-54.8
X17.5Y-57.2
X18.5Y-54.8
X18.5Y-57.2
X31.0Y-54.8
X31.0Y-57.2
X32.0Y-54.8
X32.0Y-57.2
X33.0Y-54.8
X33.0Y-57.2
X34.0Y-54.8
X34.0Y-57.2
X35.0Y-54.8
X35.0Y-57.2
X47.5Y-54.8
X47.5Y-57.2
X48.5Y-54.8
X48.5Y-57.2
X49.5Y-54.8
X49.5Y-57.2
X50.5Y-54.8
X50.5Y-57.2
X51.5Y-54.8
X51.5Y-57.2
X65.8Y-11.75
X65.8Y-12.75
X65.8Y-13.75
X65.8Y-14.75
X65.8Y-15.75
X65.8Y-25.5
X65.8Y-26.5
X65.8Y-27.5
X65.8Y-28.5
X65.8Y-29.5
X65.8Y-39.25
X65.8Y-40.25
X65.8Y-41.25
X65.8Y-42.25
X65.8Y-43.25
X65.8Y-68.75
X65.8Y-69.75
X65.8Y-70.75
X65.8Y-71.75
X65.8Y-72.75
X65.8Y-82.5
X65.8Y-83.5
X65.8Y-84.5
X65.8Y-85.5
X65.8Y-86.5
X65.8Y-96.25
X65.8Y-97.25
X65.8Y-98.25
X65.8Y-99.25
X65.8Y-100.25
X68.2Y-11.75
X68.2Y-12.75
X68.2Y-13.75
X68.2Y-14.75
X68.2Y-15.75
X68.2Y-25.5
X68.2Y-26.5
X68.2Y-27.5
X68.2Y-28.5
X68.2Y-29.5
X68.2Y-39.25
X68.2Y-40.25
X68.2Y-41.25
X68.2Y-42.25
X68.2Y-43.25
X68.2Y-68.75
X68.2Y-69.75
X68.2Y-70.75
X68.2Y-71.75
X68.2Y-72.75
X68.2Y-82.5
X68.2Y-83.5
X68.2Y-84.5
X68.2Y-85.5
X68.2Y-86.5
X68.2Y-96.25
X68.2Y-97.25
X68.2Y-98.25
X68.2Y-99.25
X68.2Y-100.25
X82.5Y-54.8
X82.5Y-57.2
X83.5Y-54.8
X83.5Y-57.2
X84.5Y-54.8
X84.5Y-57.2
X85.5Y-54.8
X85.5Y-57.2
X86.5Y-54.8
X86.5Y-57.2
X99.0Y-54.8
X99.0Y-57.2
X100.0Y-54.8
X100.0Y-57.2
X101.0Y-54.8
X101.0Y-57.2
X102.0Y-54.8
X102.0Y-57.2
X103.0Y-54.8
X103.0Y-57.2
X115.5Y-54.8
X115.5Y-57.2
X116.5Y-54.8
X116.5Y-57.2
X117.5Y-54.8
X117.5Y-57.2
X118.5Y-54.8
X118.5Y-57.2
X119.5Y-54.8
X119.5Y-57.2
T3
X2.282Y-30.011
X2.282Y-33.011
X2.282Y-87.011
X2.282Y-90.011
X70.282Y-30.011
X70.282Y-33.011
X70.282Y-87.011
X70.282Y-90.011
T4
X12.75Y-38.425
X12.75Y-95.425
X33.0Y-3.5
X33.0Y-60.5
X53.25Y-38.425
X53.25Y-95.425
X80.75Y-38.425
X80.75Y-95.425
X101.0Y-3.5
X101.0Y-60.5
X121.25Y-38.425
X121.25Y-95.425
M30
