G04 #@! TF.GenerationSoftware,KiCad,Pcbnew,8.0.3-8.0.3-0~ubuntu24.04.1*
G04 #@! TF.CreationDate,2024-07-21T14:04:27+02:00*
G04 #@! TF.ProjectId,panel,70616e65-6c2e-46b6-9963-61645f706362,rev?*
G04 #@! TF.SameCoordinates,Original*
G04 #@! TF.FileFunction,Copper,L2,Bot*
G04 #@! TF.FilePolarity,Positive*
%FSLAX46Y46*%
G04 Gerber Fmt 4.6, Leading zero omitted, Abs format (unit mm)*
G04 Created by KiCad (PCBNEW 8.0.3-8.0.3-0~ubuntu24.04.1) date 2024-07-21 14:04:27*
%MOMM*%
%LPD*%
G01*
G04 APERTURE LIST*
G04 #@! TA.AperFunction,ComponentPad*
%ADD10R,2.000000X2.000000*%
G04 #@! TD*
G04 #@! TA.AperFunction,ComponentPad*
%ADD11C,2.000000*%
G04 #@! TD*
G04 APERTURE END LIST*
D10*
G04 #@! TO.P,BT1,1,+*
G04 #@! TO.N,Board_3-Net-(BT1-+)*
X81987500Y-104886433D03*
D11*
G04 #@! TO.P,BT1,2,-*
G04 #@! TO.N,Board_3-Net-(BT1--)*
X126687500Y-104886433D03*
G04 #@! TD*
D10*
G04 #@! TO.P,BT1,1,+*
G04 #@! TO.N,Board_0-Net-(BT1-+)*
X13987500Y-47886433D03*
D11*
G04 #@! TO.P,BT1,2,-*
G04 #@! TO.N,Board_0-Net-(BT1--)*
X58687500Y-47886433D03*
G04 #@! TD*
D10*
G04 #@! TO.P,BT1,1,+*
G04 #@! TO.N,Board_2-Net-(BT1-+)*
X13987500Y-104886433D03*
D11*
G04 #@! TO.P,BT1,2,-*
G04 #@! TO.N,Board_2-Net-(BT1--)*
X58687500Y-104886433D03*
G04 #@! TD*
D10*
G04 #@! TO.P,BT1,1,+*
G04 #@! TO.N,Board_1-Net-(BT1-+)*
X81987500Y-47886433D03*
D11*
G04 #@! TO.P,BT1,2,-*
G04 #@! TO.N,Board_1-Net-(BT1--)*
X126687500Y-47886433D03*
G04 #@! TD*
G04 #@! TA.AperFunction,Conductor*
G04 #@! TO.N,Board_1-Net-(BT1--)*
G36*
X129002702Y-500617D02*
G01*
X129386771Y-517386D01*
X129397506Y-518326D01*
X129775971Y-568152D01*
X129786597Y-570025D01*
X130159284Y-652648D01*
X130169710Y-655442D01*
X130533765Y-770227D01*
X130543911Y-773920D01*
X130896578Y-920000D01*
X130906369Y-924566D01*
X131244942Y-1100816D01*
X131254310Y-1106224D01*
X131576244Y-1311318D01*
X131585105Y-1317523D01*
X131887930Y-1549889D01*
X131896217Y-1556843D01*
X132177635Y-1814715D01*
X132185284Y-1822364D01*
X132443156Y-2103782D01*
X132450110Y-2112069D01*
X132682476Y-2414894D01*
X132688681Y-2423755D01*
X132893775Y-2745689D01*
X132899183Y-2755057D01*
X133075430Y-3093623D01*
X133080002Y-3103427D01*
X133226075Y-3456078D01*
X133229775Y-3466244D01*
X133344554Y-3830278D01*
X133347354Y-3840727D01*
X133429971Y-4213389D01*
X133431849Y-4224042D01*
X133481671Y-4602473D01*
X133482614Y-4613249D01*
X133499382Y-4997297D01*
X133499500Y-5002706D01*
X133499500Y-49997293D01*
X133499382Y-50002702D01*
X133482614Y-50386750D01*
X133481671Y-50397526D01*
X133431849Y-50775957D01*
X133429971Y-50786610D01*
X133347354Y-51159272D01*
X133344554Y-51169721D01*
X133229775Y-51533755D01*
X133226075Y-51543921D01*
X133080002Y-51896572D01*
X133075430Y-51906376D01*
X132899183Y-52244942D01*
X132893775Y-52254310D01*
X132688681Y-52576244D01*
X132682476Y-52585105D01*
X132450110Y-52887930D01*
X132443156Y-52896217D01*
X132185284Y-53177635D01*
X132177635Y-53185284D01*
X131896217Y-53443156D01*
X131887930Y-53450110D01*
X131585105Y-53682476D01*
X131576244Y-53688681D01*
X131254310Y-53893775D01*
X131244942Y-53899183D01*
X130906376Y-54075430D01*
X130896572Y-54080002D01*
X130543921Y-54226075D01*
X130533755Y-54229775D01*
X130169721Y-54344554D01*
X130159272Y-54347354D01*
X129786610Y-54429971D01*
X129775957Y-54431849D01*
X129397526Y-54481671D01*
X129386750Y-54482614D01*
X129002703Y-54499382D01*
X128997294Y-54499500D01*
X73002706Y-54499500D01*
X72997297Y-54499382D01*
X72613249Y-54482614D01*
X72602473Y-54481671D01*
X72224042Y-54431849D01*
X72213389Y-54429971D01*
X71840727Y-54347354D01*
X71830278Y-54344554D01*
X71466244Y-54229775D01*
X71456078Y-54226075D01*
X71103427Y-54080002D01*
X71093623Y-54075430D01*
X70755057Y-53899183D01*
X70745689Y-53893775D01*
X70423755Y-53688681D01*
X70414894Y-53682476D01*
X70112069Y-53450110D01*
X70103782Y-53443156D01*
X69822364Y-53185284D01*
X69814715Y-53177635D01*
X69556843Y-52896217D01*
X69549889Y-52887930D01*
X69317523Y-52585105D01*
X69311318Y-52576244D01*
X69106224Y-52254310D01*
X69100816Y-52244942D01*
X68924569Y-51906376D01*
X68919997Y-51896572D01*
X68773924Y-51543921D01*
X68770224Y-51533755D01*
X68655442Y-51169710D01*
X68652648Y-51159284D01*
X68570025Y-50786597D01*
X68568152Y-50775971D01*
X68518326Y-50397506D01*
X68517386Y-50386771D01*
X68500618Y-50002702D01*
X68500500Y-49997293D01*
X68500500Y-46866680D01*
X80787000Y-46866680D01*
X80787000Y-48906185D01*
X80798631Y-48964662D01*
X80798632Y-48964663D01*
X80842947Y-49030985D01*
X80909269Y-49075300D01*
X80909270Y-49075301D01*
X80967747Y-49086932D01*
X80967750Y-49086933D01*
X80967752Y-49086933D01*
X83007250Y-49086933D01*
X83007251Y-49086932D01*
X83022068Y-49083985D01*
X83065729Y-49075301D01*
X83065729Y-49075300D01*
X83065731Y-49075300D01*
X83132052Y-49030985D01*
X83176367Y-48964664D01*
X83176367Y-48964662D01*
X83176368Y-48964662D01*
X83187999Y-48906185D01*
X83188000Y-48906183D01*
X83188000Y-46866682D01*
X83187999Y-46866680D01*
X83176368Y-46808203D01*
X83176367Y-46808202D01*
X83132052Y-46741880D01*
X83065730Y-46697565D01*
X83065729Y-46697564D01*
X83007252Y-46685933D01*
X83007248Y-46685933D01*
X80967752Y-46685933D01*
X80967747Y-46685933D01*
X80909270Y-46697564D01*
X80909269Y-46697565D01*
X80842947Y-46741880D01*
X80798632Y-46808202D01*
X80798631Y-46808203D01*
X80787000Y-46866680D01*
X68500500Y-46866680D01*
X68500500Y-38318713D01*
X79399500Y-38318713D01*
X79399500Y-38531286D01*
X79432753Y-38741239D01*
X79498444Y-38943414D01*
X79594951Y-39132820D01*
X79719890Y-39304786D01*
X79870213Y-39455109D01*
X80042179Y-39580048D01*
X80042181Y-39580049D01*
X80042184Y-39580051D01*
X80231588Y-39676557D01*
X80433757Y-39742246D01*
X80643713Y-39775500D01*
X80643714Y-39775500D01*
X80856286Y-39775500D01*
X80856287Y-39775500D01*
X81066243Y-39742246D01*
X81268412Y-39676557D01*
X81457816Y-39580051D01*
X81479789Y-39564086D01*
X81629786Y-39455109D01*
X81629788Y-39455106D01*
X81629792Y-39455104D01*
X81780104Y-39304792D01*
X81780106Y-39304788D01*
X81780109Y-39304786D01*
X81905048Y-39132820D01*
X81905047Y-39132820D01*
X81905051Y-39132816D01*
X82001557Y-38943412D01*
X82067246Y-38741243D01*
X82100500Y-38531287D01*
X82100500Y-38318713D01*
X119899500Y-38318713D01*
X119899500Y-38531286D01*
X119932753Y-38741239D01*
X119998444Y-38943414D01*
X120094951Y-39132820D01*
X120219890Y-39304786D01*
X120370213Y-39455109D01*
X120542179Y-39580048D01*
X120542181Y-39580049D01*
X120542184Y-39580051D01*
X120731588Y-39676557D01*
X120933757Y-39742246D01*
X121143713Y-39775500D01*
X121143714Y-39775500D01*
X121356286Y-39775500D01*
X121356287Y-39775500D01*
X121566243Y-39742246D01*
X121768412Y-39676557D01*
X121957816Y-39580051D01*
X121979789Y-39564086D01*
X122129786Y-39455109D01*
X122129788Y-39455106D01*
X122129792Y-39455104D01*
X122280104Y-39304792D01*
X122280106Y-39304788D01*
X122280109Y-39304786D01*
X122405048Y-39132820D01*
X122405047Y-39132820D01*
X122405051Y-39132816D01*
X122501557Y-38943412D01*
X122567246Y-38741243D01*
X122600500Y-38531287D01*
X122600500Y-38318713D01*
X122567246Y-38108757D01*
X122501557Y-37906588D01*
X122405051Y-37717184D01*
X122405049Y-37717181D01*
X122405048Y-37717179D01*
X122280109Y-37545213D01*
X122129786Y-37394890D01*
X121957820Y-37269951D01*
X121768414Y-37173444D01*
X121768413Y-37173443D01*
X121768412Y-37173443D01*
X121566243Y-37107754D01*
X121566241Y-37107753D01*
X121566240Y-37107753D01*
X121404957Y-37082208D01*
X121356287Y-37074500D01*
X121143713Y-37074500D01*
X121095042Y-37082208D01*
X120933760Y-37107753D01*
X120731585Y-37173444D01*
X120542179Y-37269951D01*
X120370213Y-37394890D01*
X120219890Y-37545213D01*
X120094951Y-37717179D01*
X119998444Y-37906585D01*
X119932753Y-38108760D01*
X119899500Y-38318713D01*
X82100500Y-38318713D01*
X82067246Y-38108757D01*
X82001557Y-37906588D01*
X81905051Y-37717184D01*
X81905049Y-37717181D01*
X81905048Y-37717179D01*
X81780109Y-37545213D01*
X81629786Y-37394890D01*
X81457820Y-37269951D01*
X81268414Y-37173444D01*
X81268413Y-37173443D01*
X81268412Y-37173443D01*
X81066243Y-37107754D01*
X81066241Y-37107753D01*
X81066240Y-37107753D01*
X80904957Y-37082208D01*
X80856287Y-37074500D01*
X80643713Y-37074500D01*
X80595042Y-37082208D01*
X80433760Y-37107753D01*
X80231585Y-37173444D01*
X80042179Y-37269951D01*
X79870213Y-37394890D01*
X79719890Y-37545213D01*
X79594951Y-37717179D01*
X79498444Y-37906585D01*
X79432753Y-38108760D01*
X79399500Y-38318713D01*
X68500500Y-38318713D01*
X68500500Y-30080428D01*
X69581999Y-30080428D01*
X69608918Y-30215755D01*
X69608921Y-30215765D01*
X69661721Y-30343237D01*
X69661728Y-30343250D01*
X69738385Y-30457974D01*
X69738388Y-30457978D01*
X69835954Y-30555544D01*
X69835958Y-30555547D01*
X69950682Y-30632204D01*
X69950695Y-30632211D01*
X70078167Y-30685011D01*
X70078172Y-30685013D01*
X70078176Y-30685013D01*
X70078177Y-30685014D01*
X70213504Y-30711933D01*
X70213507Y-30711933D01*
X70351495Y-30711933D01*
X70463838Y-30689586D01*
X70533430Y-30695813D01*
X70588607Y-30738676D01*
X70611852Y-30804565D01*
X70612029Y-30810706D01*
X70617641Y-32212281D01*
X70598225Y-32279399D01*
X70545605Y-32325365D01*
X70476487Y-32335586D01*
X70469451Y-32334395D01*
X70351497Y-32310933D01*
X70351493Y-32310933D01*
X70213507Y-32310933D01*
X70213505Y-32310933D01*
X70078177Y-32337851D01*
X70078167Y-32337854D01*
X69950695Y-32390654D01*
X69950682Y-32390661D01*
X69835958Y-32467318D01*
X69835954Y-32467321D01*
X69738388Y-32564887D01*
X69738385Y-32564891D01*
X69661728Y-32679615D01*
X69661721Y-32679628D01*
X69608921Y-32807100D01*
X69608918Y-32807110D01*
X69582000Y-32942437D01*
X69582000Y-32942440D01*
X69582000Y-33080426D01*
X69582000Y-33080428D01*
X69581999Y-33080428D01*
X69608918Y-33215755D01*
X69608921Y-33215765D01*
X69661721Y-33343237D01*
X69661728Y-33343250D01*
X69738385Y-33457974D01*
X69738388Y-33457978D01*
X69835954Y-33555544D01*
X69835958Y-33555547D01*
X69950682Y-33632204D01*
X69950695Y-33632211D01*
X70078167Y-33685011D01*
X70078172Y-33685013D01*
X70078176Y-33685013D01*
X70078177Y-33685014D01*
X70213504Y-33711933D01*
X70213507Y-33711933D01*
X70351494Y-33711933D01*
X70388693Y-33704533D01*
X70475842Y-33687198D01*
X70545432Y-33693425D01*
X70600610Y-33736287D01*
X70623855Y-33802177D01*
X70624032Y-33808318D01*
X70624999Y-34049998D01*
X70625000Y-34050000D01*
X70625001Y-34050000D01*
X131650000Y-34050000D01*
X131525000Y-9075000D01*
X70525000Y-9075000D01*
X70605619Y-29209891D01*
X70586203Y-29277008D01*
X70533583Y-29322974D01*
X70464465Y-29333195D01*
X70457429Y-29332004D01*
X70351497Y-29310933D01*
X70351493Y-29310933D01*
X70213507Y-29310933D01*
X70213505Y-29310933D01*
X70078177Y-29337851D01*
X70078167Y-29337854D01*
X69950695Y-29390654D01*
X69950682Y-29390661D01*
X69835958Y-29467318D01*
X69835954Y-29467321D01*
X69738388Y-29564887D01*
X69738385Y-29564891D01*
X69661728Y-29679615D01*
X69661721Y-29679628D01*
X69608921Y-29807100D01*
X69608918Y-29807110D01*
X69582000Y-29942437D01*
X69582000Y-29942440D01*
X69582000Y-30080426D01*
X69582000Y-30080428D01*
X69581999Y-30080428D01*
X68500500Y-30080428D01*
X68500500Y-5002706D01*
X68500618Y-4997297D01*
X68508479Y-4817246D01*
X68517386Y-4613226D01*
X68518326Y-4602495D01*
X68568152Y-4224025D01*
X68570025Y-4213405D01*
X68652649Y-3840709D01*
X68655440Y-3830295D01*
X68770230Y-3466227D01*
X68773917Y-3456095D01*
X68799756Y-3393713D01*
X99649500Y-3393713D01*
X99649500Y-3606287D01*
X99682754Y-3816243D01*
X99700301Y-3870248D01*
X99748444Y-4018414D01*
X99844951Y-4207820D01*
X99969890Y-4379786D01*
X100120213Y-4530109D01*
X100292179Y-4655048D01*
X100292181Y-4655049D01*
X100292184Y-4655051D01*
X100481588Y-4751557D01*
X100683757Y-4817246D01*
X100893713Y-4850500D01*
X100893714Y-4850500D01*
X101106286Y-4850500D01*
X101106287Y-4850500D01*
X101316243Y-4817246D01*
X101518412Y-4751557D01*
X101707816Y-4655051D01*
X101780184Y-4602473D01*
X101879786Y-4530109D01*
X101879788Y-4530106D01*
X101879792Y-4530104D01*
X102030104Y-4379792D01*
X102030106Y-4379788D01*
X102030109Y-4379786D01*
X102155048Y-4207820D01*
X102155047Y-4207820D01*
X102155051Y-4207816D01*
X102251557Y-4018412D01*
X102317246Y-3816243D01*
X102350500Y-3606287D01*
X102350500Y-3393713D01*
X102317246Y-3183757D01*
X102251557Y-2981588D01*
X102155051Y-2792184D01*
X102155049Y-2792181D01*
X102155048Y-2792179D01*
X102030109Y-2620213D01*
X101879786Y-2469890D01*
X101707820Y-2344951D01*
X101518414Y-2248444D01*
X101518413Y-2248443D01*
X101518412Y-2248443D01*
X101316243Y-2182754D01*
X101316241Y-2182753D01*
X101316240Y-2182753D01*
X101154957Y-2157208D01*
X101106287Y-2149500D01*
X100893713Y-2149500D01*
X100845042Y-2157208D01*
X100683760Y-2182753D01*
X100481585Y-2248444D01*
X100292179Y-2344951D01*
X100120213Y-2469890D01*
X99969890Y-2620213D01*
X99844951Y-2792179D01*
X99748444Y-2981585D01*
X99682753Y-3183760D01*
X99649500Y-3393713D01*
X68799756Y-3393713D01*
X68920003Y-3103412D01*
X68924561Y-3093638D01*
X69100822Y-2755045D01*
X69106217Y-2745700D01*
X69311325Y-2423744D01*
X69317515Y-2414905D01*
X69549896Y-2112060D01*
X69556834Y-2103791D01*
X69814726Y-1822352D01*
X69822352Y-1814726D01*
X70103791Y-1556834D01*
X70112060Y-1549896D01*
X70414905Y-1317515D01*
X70423744Y-1311325D01*
X70745700Y-1106217D01*
X70755045Y-1100822D01*
X71093638Y-924561D01*
X71103412Y-920003D01*
X71456095Y-773917D01*
X71466227Y-770230D01*
X71830295Y-655440D01*
X71840709Y-652649D01*
X72213405Y-570025D01*
X72224025Y-568152D01*
X72602495Y-518326D01*
X72613226Y-517386D01*
X72997297Y-500617D01*
X73002706Y-500500D01*
X73065892Y-500500D01*
X128934108Y-500500D01*
X128997294Y-500500D01*
X129002702Y-500617D01*
G37*
G04 #@! TD.AperFunction*
G04 #@! TD*
G04 #@! TA.AperFunction,Conductor*
G04 #@! TO.N,Board_3-Net-(BT1--)*
G36*
X129002702Y-57500617D02*
G01*
X129386771Y-57517386D01*
X129397506Y-57518326D01*
X129775971Y-57568152D01*
X129786597Y-57570025D01*
X130159284Y-57652648D01*
X130169710Y-57655442D01*
X130533765Y-57770227D01*
X130543911Y-57773920D01*
X130896578Y-57920000D01*
X130906369Y-57924566D01*
X131244942Y-58100816D01*
X131254310Y-58106224D01*
X131576244Y-58311318D01*
X131585105Y-58317523D01*
X131887930Y-58549889D01*
X131896217Y-58556843D01*
X132177635Y-58814715D01*
X132185284Y-58822364D01*
X132443156Y-59103782D01*
X132450110Y-59112069D01*
X132682476Y-59414894D01*
X132688681Y-59423755D01*
X132893775Y-59745689D01*
X132899183Y-59755057D01*
X133075430Y-60093623D01*
X133080002Y-60103427D01*
X133226075Y-60456078D01*
X133229775Y-60466244D01*
X133344554Y-60830278D01*
X133347354Y-60840727D01*
X133429971Y-61213389D01*
X133431849Y-61224042D01*
X133481671Y-61602473D01*
X133482614Y-61613249D01*
X133499382Y-61997297D01*
X133499500Y-62002706D01*
X133499500Y-106997293D01*
X133499382Y-107002702D01*
X133482614Y-107386750D01*
X133481671Y-107397526D01*
X133431849Y-107775957D01*
X133429971Y-107786610D01*
X133347354Y-108159272D01*
X133344554Y-108169721D01*
X133229775Y-108533755D01*
X133226075Y-108543921D01*
X133080002Y-108896572D01*
X133075430Y-108906376D01*
X132899183Y-109244942D01*
X132893775Y-109254310D01*
X132688681Y-109576244D01*
X132682476Y-109585105D01*
X132450110Y-109887930D01*
X132443156Y-109896217D01*
X132185284Y-110177635D01*
X132177635Y-110185284D01*
X131896217Y-110443156D01*
X131887930Y-110450110D01*
X131585105Y-110682476D01*
X131576244Y-110688681D01*
X131254310Y-110893775D01*
X131244942Y-110899183D01*
X130906376Y-111075430D01*
X130896572Y-111080002D01*
X130543921Y-111226075D01*
X130533755Y-111229775D01*
X130169721Y-111344554D01*
X130159272Y-111347354D01*
X129786610Y-111429971D01*
X129775957Y-111431849D01*
X129397526Y-111481671D01*
X129386750Y-111482614D01*
X129002703Y-111499382D01*
X128997294Y-111499500D01*
X73002706Y-111499500D01*
X72997297Y-111499382D01*
X72613249Y-111482614D01*
X72602473Y-111481671D01*
X72224042Y-111431849D01*
X72213389Y-111429971D01*
X71840727Y-111347354D01*
X71830278Y-111344554D01*
X71466244Y-111229775D01*
X71456078Y-111226075D01*
X71103427Y-111080002D01*
X71093623Y-111075430D01*
X70755057Y-110899183D01*
X70745689Y-110893775D01*
X70423755Y-110688681D01*
X70414894Y-110682476D01*
X70112069Y-110450110D01*
X70103782Y-110443156D01*
X69822364Y-110185284D01*
X69814715Y-110177635D01*
X69556843Y-109896217D01*
X69549889Y-109887930D01*
X69317523Y-109585105D01*
X69311318Y-109576244D01*
X69106224Y-109254310D01*
X69100816Y-109244942D01*
X68924569Y-108906376D01*
X68919997Y-108896572D01*
X68773924Y-108543921D01*
X68770224Y-108533755D01*
X68655442Y-108169710D01*
X68652648Y-108159284D01*
X68570025Y-107786597D01*
X68568152Y-107775971D01*
X68518326Y-107397506D01*
X68517386Y-107386771D01*
X68500618Y-107002702D01*
X68500500Y-106997293D01*
X68500500Y-103866680D01*
X80787000Y-103866680D01*
X80787000Y-105906185D01*
X80798631Y-105964662D01*
X80798632Y-105964663D01*
X80842947Y-106030985D01*
X80909269Y-106075300D01*
X80909270Y-106075301D01*
X80967747Y-106086932D01*
X80967750Y-106086933D01*
X80967752Y-106086933D01*
X83007250Y-106086933D01*
X83007251Y-106086932D01*
X83022068Y-106083985D01*
X83065729Y-106075301D01*
X83065729Y-106075300D01*
X83065731Y-106075300D01*
X83132052Y-106030985D01*
X83176367Y-105964664D01*
X83176367Y-105964662D01*
X83176368Y-105964662D01*
X83187999Y-105906185D01*
X83188000Y-105906183D01*
X83188000Y-103866682D01*
X83187999Y-103866680D01*
X83176368Y-103808203D01*
X83176367Y-103808202D01*
X83132052Y-103741880D01*
X83065730Y-103697565D01*
X83065729Y-103697564D01*
X83007252Y-103685933D01*
X83007248Y-103685933D01*
X80967752Y-103685933D01*
X80967747Y-103685933D01*
X80909270Y-103697564D01*
X80909269Y-103697565D01*
X80842947Y-103741880D01*
X80798632Y-103808202D01*
X80798631Y-103808203D01*
X80787000Y-103866680D01*
X68500500Y-103866680D01*
X68500500Y-95318713D01*
X79399500Y-95318713D01*
X79399500Y-95531286D01*
X79432753Y-95741239D01*
X79498444Y-95943414D01*
X79594951Y-96132820D01*
X79719890Y-96304786D01*
X79870213Y-96455109D01*
X80042179Y-96580048D01*
X80042181Y-96580049D01*
X80042184Y-96580051D01*
X80231588Y-96676557D01*
X80433757Y-96742246D01*
X80643713Y-96775500D01*
X80643714Y-96775500D01*
X80856286Y-96775500D01*
X80856287Y-96775500D01*
X81066243Y-96742246D01*
X81268412Y-96676557D01*
X81457816Y-96580051D01*
X81479789Y-96564086D01*
X81629786Y-96455109D01*
X81629788Y-96455106D01*
X81629792Y-96455104D01*
X81780104Y-96304792D01*
X81780106Y-96304788D01*
X81780109Y-96304786D01*
X81905048Y-96132820D01*
X81905047Y-96132820D01*
X81905051Y-96132816D01*
X82001557Y-95943412D01*
X82067246Y-95741243D01*
X82100500Y-95531287D01*
X82100500Y-95318713D01*
X119899500Y-95318713D01*
X119899500Y-95531286D01*
X119932753Y-95741239D01*
X119998444Y-95943414D01*
X120094951Y-96132820D01*
X120219890Y-96304786D01*
X120370213Y-96455109D01*
X120542179Y-96580048D01*
X120542181Y-96580049D01*
X120542184Y-96580051D01*
X120731588Y-96676557D01*
X120933757Y-96742246D01*
X121143713Y-96775500D01*
X121143714Y-96775500D01*
X121356286Y-96775500D01*
X121356287Y-96775500D01*
X121566243Y-96742246D01*
X121768412Y-96676557D01*
X121957816Y-96580051D01*
X121979789Y-96564086D01*
X122129786Y-96455109D01*
X122129788Y-96455106D01*
X122129792Y-96455104D01*
X122280104Y-96304792D01*
X122280106Y-96304788D01*
X122280109Y-96304786D01*
X122405048Y-96132820D01*
X122405047Y-96132820D01*
X122405051Y-96132816D01*
X122501557Y-95943412D01*
X122567246Y-95741243D01*
X122600500Y-95531287D01*
X122600500Y-95318713D01*
X122567246Y-95108757D01*
X122501557Y-94906588D01*
X122405051Y-94717184D01*
X122405049Y-94717181D01*
X122405048Y-94717179D01*
X122280109Y-94545213D01*
X122129786Y-94394890D01*
X121957820Y-94269951D01*
X121768414Y-94173444D01*
X121768413Y-94173443D01*
X121768412Y-94173443D01*
X121566243Y-94107754D01*
X121566241Y-94107753D01*
X121566240Y-94107753D01*
X121404957Y-94082208D01*
X121356287Y-94074500D01*
X121143713Y-94074500D01*
X121095042Y-94082208D01*
X120933760Y-94107753D01*
X120731585Y-94173444D01*
X120542179Y-94269951D01*
X120370213Y-94394890D01*
X120219890Y-94545213D01*
X120094951Y-94717179D01*
X119998444Y-94906585D01*
X119932753Y-95108760D01*
X119899500Y-95318713D01*
X82100500Y-95318713D01*
X82067246Y-95108757D01*
X82001557Y-94906588D01*
X81905051Y-94717184D01*
X81905049Y-94717181D01*
X81905048Y-94717179D01*
X81780109Y-94545213D01*
X81629786Y-94394890D01*
X81457820Y-94269951D01*
X81268414Y-94173444D01*
X81268413Y-94173443D01*
X81268412Y-94173443D01*
X81066243Y-94107754D01*
X81066241Y-94107753D01*
X81066240Y-94107753D01*
X80904957Y-94082208D01*
X80856287Y-94074500D01*
X80643713Y-94074500D01*
X80595042Y-94082208D01*
X80433760Y-94107753D01*
X80231585Y-94173444D01*
X80042179Y-94269951D01*
X79870213Y-94394890D01*
X79719890Y-94545213D01*
X79594951Y-94717179D01*
X79498444Y-94906585D01*
X79432753Y-95108760D01*
X79399500Y-95318713D01*
X68500500Y-95318713D01*
X68500500Y-87080428D01*
X69581999Y-87080428D01*
X69608918Y-87215755D01*
X69608921Y-87215765D01*
X69661721Y-87343237D01*
X69661728Y-87343250D01*
X69738385Y-87457974D01*
X69738388Y-87457978D01*
X69835954Y-87555544D01*
X69835958Y-87555547D01*
X69950682Y-87632204D01*
X69950695Y-87632211D01*
X70078167Y-87685011D01*
X70078172Y-87685013D01*
X70078176Y-87685013D01*
X70078177Y-87685014D01*
X70213504Y-87711933D01*
X70213507Y-87711933D01*
X70351495Y-87711933D01*
X70463838Y-87689586D01*
X70533430Y-87695813D01*
X70588607Y-87738676D01*
X70611852Y-87804565D01*
X70612029Y-87810706D01*
X70617641Y-89212281D01*
X70598225Y-89279399D01*
X70545605Y-89325365D01*
X70476487Y-89335586D01*
X70469451Y-89334395D01*
X70351497Y-89310933D01*
X70351493Y-89310933D01*
X70213507Y-89310933D01*
X70213505Y-89310933D01*
X70078177Y-89337851D01*
X70078167Y-89337854D01*
X69950695Y-89390654D01*
X69950682Y-89390661D01*
X69835958Y-89467318D01*
X69835954Y-89467321D01*
X69738388Y-89564887D01*
X69738385Y-89564891D01*
X69661728Y-89679615D01*
X69661721Y-89679628D01*
X69608921Y-89807100D01*
X69608918Y-89807110D01*
X69582000Y-89942437D01*
X69582000Y-89942440D01*
X69582000Y-90080426D01*
X69582000Y-90080428D01*
X69581999Y-90080428D01*
X69608918Y-90215755D01*
X69608921Y-90215765D01*
X69661721Y-90343237D01*
X69661728Y-90343250D01*
X69738385Y-90457974D01*
X69738388Y-90457978D01*
X69835954Y-90555544D01*
X69835958Y-90555547D01*
X69950682Y-90632204D01*
X69950695Y-90632211D01*
X70078167Y-90685011D01*
X70078172Y-90685013D01*
X70078176Y-90685013D01*
X70078177Y-90685014D01*
X70213504Y-90711933D01*
X70213507Y-90711933D01*
X70351494Y-90711933D01*
X70388693Y-90704533D01*
X70475842Y-90687198D01*
X70545432Y-90693425D01*
X70600610Y-90736287D01*
X70623855Y-90802177D01*
X70624032Y-90808318D01*
X70624999Y-91049998D01*
X70625000Y-91050000D01*
X70625001Y-91050000D01*
X131650000Y-91050000D01*
X131525000Y-66075000D01*
X70525000Y-66075000D01*
X70605619Y-86209891D01*
X70586203Y-86277008D01*
X70533583Y-86322974D01*
X70464465Y-86333195D01*
X70457429Y-86332004D01*
X70351497Y-86310933D01*
X70351493Y-86310933D01*
X70213507Y-86310933D01*
X70213505Y-86310933D01*
X70078177Y-86337851D01*
X70078167Y-86337854D01*
X69950695Y-86390654D01*
X69950682Y-86390661D01*
X69835958Y-86467318D01*
X69835954Y-86467321D01*
X69738388Y-86564887D01*
X69738385Y-86564891D01*
X69661728Y-86679615D01*
X69661721Y-86679628D01*
X69608921Y-86807100D01*
X69608918Y-86807110D01*
X69582000Y-86942437D01*
X69582000Y-86942440D01*
X69582000Y-87080426D01*
X69582000Y-87080428D01*
X69581999Y-87080428D01*
X68500500Y-87080428D01*
X68500500Y-62002706D01*
X68500618Y-61997297D01*
X68508479Y-61817246D01*
X68517386Y-61613226D01*
X68518326Y-61602495D01*
X68568152Y-61224025D01*
X68570025Y-61213405D01*
X68652649Y-60840709D01*
X68655440Y-60830295D01*
X68770230Y-60466227D01*
X68773917Y-60456095D01*
X68799756Y-60393713D01*
X99649500Y-60393713D01*
X99649500Y-60606287D01*
X99682754Y-60816243D01*
X99700301Y-60870248D01*
X99748444Y-61018414D01*
X99844951Y-61207820D01*
X99969890Y-61379786D01*
X100120213Y-61530109D01*
X100292179Y-61655048D01*
X100292181Y-61655049D01*
X100292184Y-61655051D01*
X100481588Y-61751557D01*
X100683757Y-61817246D01*
X100893713Y-61850500D01*
X100893714Y-61850500D01*
X101106286Y-61850500D01*
X101106287Y-61850500D01*
X101316243Y-61817246D01*
X101518412Y-61751557D01*
X101707816Y-61655051D01*
X101780184Y-61602473D01*
X101879786Y-61530109D01*
X101879788Y-61530106D01*
X101879792Y-61530104D01*
X102030104Y-61379792D01*
X102030106Y-61379788D01*
X102030109Y-61379786D01*
X102155048Y-61207820D01*
X102155047Y-61207820D01*
X102155051Y-61207816D01*
X102251557Y-61018412D01*
X102317246Y-60816243D01*
X102350500Y-60606287D01*
X102350500Y-60393713D01*
X102317246Y-60183757D01*
X102251557Y-59981588D01*
X102155051Y-59792184D01*
X102155049Y-59792181D01*
X102155048Y-59792179D01*
X102030109Y-59620213D01*
X101879786Y-59469890D01*
X101707820Y-59344951D01*
X101518414Y-59248444D01*
X101518413Y-59248443D01*
X101518412Y-59248443D01*
X101316243Y-59182754D01*
X101316241Y-59182753D01*
X101316240Y-59182753D01*
X101154957Y-59157208D01*
X101106287Y-59149500D01*
X100893713Y-59149500D01*
X100845042Y-59157208D01*
X100683760Y-59182753D01*
X100481585Y-59248444D01*
X100292179Y-59344951D01*
X100120213Y-59469890D01*
X99969890Y-59620213D01*
X99844951Y-59792179D01*
X99748444Y-59981585D01*
X99682753Y-60183760D01*
X99649500Y-60393713D01*
X68799756Y-60393713D01*
X68920003Y-60103412D01*
X68924561Y-60093638D01*
X69100822Y-59755045D01*
X69106217Y-59745700D01*
X69311325Y-59423744D01*
X69317515Y-59414905D01*
X69549896Y-59112060D01*
X69556834Y-59103791D01*
X69814726Y-58822352D01*
X69822352Y-58814726D01*
X70103791Y-58556834D01*
X70112060Y-58549896D01*
X70414905Y-58317515D01*
X70423744Y-58311325D01*
X70745700Y-58106217D01*
X70755045Y-58100822D01*
X71093638Y-57924561D01*
X71103412Y-57920003D01*
X71456095Y-57773917D01*
X71466227Y-57770230D01*
X71830295Y-57655440D01*
X71840709Y-57652649D01*
X72213405Y-57570025D01*
X72224025Y-57568152D01*
X72602495Y-57518326D01*
X72613226Y-57517386D01*
X72997297Y-57500617D01*
X73002706Y-57500500D01*
X73065892Y-57500500D01*
X128934108Y-57500500D01*
X128997294Y-57500500D01*
X129002702Y-57500617D01*
G37*
G04 #@! TD.AperFunction*
G04 #@! TD*
G04 #@! TA.AperFunction,Conductor*
G04 #@! TO.N,Board_2-Net-(BT1--)*
G36*
X61002702Y-57500617D02*
G01*
X61386771Y-57517386D01*
X61397506Y-57518326D01*
X61775971Y-57568152D01*
X61786597Y-57570025D01*
X62159284Y-57652648D01*
X62169710Y-57655442D01*
X62533765Y-57770227D01*
X62543911Y-57773920D01*
X62896578Y-57920000D01*
X62906369Y-57924566D01*
X63244942Y-58100816D01*
X63254310Y-58106224D01*
X63576244Y-58311318D01*
X63585105Y-58317523D01*
X63887930Y-58549889D01*
X63896217Y-58556843D01*
X64177635Y-58814715D01*
X64185284Y-58822364D01*
X64443156Y-59103782D01*
X64450110Y-59112069D01*
X64682476Y-59414894D01*
X64688681Y-59423755D01*
X64893775Y-59745689D01*
X64899183Y-59755057D01*
X65075430Y-60093623D01*
X65080002Y-60103427D01*
X65226075Y-60456078D01*
X65229775Y-60466244D01*
X65344554Y-60830278D01*
X65347354Y-60840727D01*
X65429971Y-61213389D01*
X65431849Y-61224042D01*
X65481671Y-61602473D01*
X65482614Y-61613249D01*
X65499382Y-61997297D01*
X65499500Y-62002706D01*
X65499500Y-106997293D01*
X65499382Y-107002702D01*
X65482614Y-107386750D01*
X65481671Y-107397526D01*
X65431849Y-107775957D01*
X65429971Y-107786610D01*
X65347354Y-108159272D01*
X65344554Y-108169721D01*
X65229775Y-108533755D01*
X65226075Y-108543921D01*
X65080002Y-108896572D01*
X65075430Y-108906376D01*
X64899183Y-109244942D01*
X64893775Y-109254310D01*
X64688681Y-109576244D01*
X64682476Y-109585105D01*
X64450110Y-109887930D01*
X64443156Y-109896217D01*
X64185284Y-110177635D01*
X64177635Y-110185284D01*
X63896217Y-110443156D01*
X63887930Y-110450110D01*
X63585105Y-110682476D01*
X63576244Y-110688681D01*
X63254310Y-110893775D01*
X63244942Y-110899183D01*
X62906376Y-111075430D01*
X62896572Y-111080002D01*
X62543921Y-111226075D01*
X62533755Y-111229775D01*
X62169721Y-111344554D01*
X62159272Y-111347354D01*
X61786610Y-111429971D01*
X61775957Y-111431849D01*
X61397526Y-111481671D01*
X61386750Y-111482614D01*
X61002703Y-111499382D01*
X60997294Y-111499500D01*
X5002706Y-111499500D01*
X4997297Y-111499382D01*
X4613249Y-111482614D01*
X4602473Y-111481671D01*
X4224042Y-111431849D01*
X4213389Y-111429971D01*
X3840727Y-111347354D01*
X3830278Y-111344554D01*
X3466244Y-111229775D01*
X3456078Y-111226075D01*
X3103427Y-111080002D01*
X3093623Y-111075430D01*
X2755057Y-110899183D01*
X2745689Y-110893775D01*
X2423755Y-110688681D01*
X2414894Y-110682476D01*
X2112069Y-110450110D01*
X2103782Y-110443156D01*
X1822364Y-110185284D01*
X1814715Y-110177635D01*
X1556843Y-109896217D01*
X1549889Y-109887930D01*
X1317523Y-109585105D01*
X1311318Y-109576244D01*
X1106224Y-109254310D01*
X1100816Y-109244942D01*
X924569Y-108906376D01*
X919997Y-108896572D01*
X773924Y-108543921D01*
X770224Y-108533755D01*
X655442Y-108169710D01*
X652648Y-108159284D01*
X570025Y-107786597D01*
X568152Y-107775971D01*
X518326Y-107397506D01*
X517386Y-107386771D01*
X500618Y-107002702D01*
X500500Y-106997293D01*
X500500Y-103866680D01*
X12787000Y-103866680D01*
X12787000Y-105906185D01*
X12798631Y-105964662D01*
X12798632Y-105964663D01*
X12842947Y-106030985D01*
X12909269Y-106075300D01*
X12909270Y-106075301D01*
X12967747Y-106086932D01*
X12967750Y-106086933D01*
X12967752Y-106086933D01*
X15007250Y-106086933D01*
X15007251Y-106086932D01*
X15022068Y-106083985D01*
X15065729Y-106075301D01*
X15065729Y-106075300D01*
X15065731Y-106075300D01*
X15132052Y-106030985D01*
X15176367Y-105964664D01*
X15176367Y-105964662D01*
X15176368Y-105964662D01*
X15187999Y-105906185D01*
X15188000Y-105906183D01*
X15188000Y-103866682D01*
X15187999Y-103866680D01*
X15176368Y-103808203D01*
X15176367Y-103808202D01*
X15132052Y-103741880D01*
X15065730Y-103697565D01*
X15065729Y-103697564D01*
X15007252Y-103685933D01*
X15007248Y-103685933D01*
X12967752Y-103685933D01*
X12967747Y-103685933D01*
X12909270Y-103697564D01*
X12909269Y-103697565D01*
X12842947Y-103741880D01*
X12798632Y-103808202D01*
X12798631Y-103808203D01*
X12787000Y-103866680D01*
X500500Y-103866680D01*
X500500Y-95318713D01*
X11399500Y-95318713D01*
X11399500Y-95531286D01*
X11432753Y-95741239D01*
X11498444Y-95943414D01*
X11594951Y-96132820D01*
X11719890Y-96304786D01*
X11870213Y-96455109D01*
X12042179Y-96580048D01*
X12042181Y-96580049D01*
X12042184Y-96580051D01*
X12231588Y-96676557D01*
X12433757Y-96742246D01*
X12643713Y-96775500D01*
X12643714Y-96775500D01*
X12856286Y-96775500D01*
X12856287Y-96775500D01*
X13066243Y-96742246D01*
X13268412Y-96676557D01*
X13457816Y-96580051D01*
X13479789Y-96564086D01*
X13629786Y-96455109D01*
X13629788Y-96455106D01*
X13629792Y-96455104D01*
X13780104Y-96304792D01*
X13780106Y-96304788D01*
X13780109Y-96304786D01*
X13905048Y-96132820D01*
X13905047Y-96132820D01*
X13905051Y-96132816D01*
X14001557Y-95943412D01*
X14067246Y-95741243D01*
X14100500Y-95531287D01*
X14100500Y-95318713D01*
X51899500Y-95318713D01*
X51899500Y-95531286D01*
X51932753Y-95741239D01*
X51998444Y-95943414D01*
X52094951Y-96132820D01*
X52219890Y-96304786D01*
X52370213Y-96455109D01*
X52542179Y-96580048D01*
X52542181Y-96580049D01*
X52542184Y-96580051D01*
X52731588Y-96676557D01*
X52933757Y-96742246D01*
X53143713Y-96775500D01*
X53143714Y-96775500D01*
X53356286Y-96775500D01*
X53356287Y-96775500D01*
X53566243Y-96742246D01*
X53768412Y-96676557D01*
X53957816Y-96580051D01*
X53979789Y-96564086D01*
X54129786Y-96455109D01*
X54129788Y-96455106D01*
X54129792Y-96455104D01*
X54280104Y-96304792D01*
X54280106Y-96304788D01*
X54280109Y-96304786D01*
X54405048Y-96132820D01*
X54405047Y-96132820D01*
X54405051Y-96132816D01*
X54501557Y-95943412D01*
X54567246Y-95741243D01*
X54600500Y-95531287D01*
X54600500Y-95318713D01*
X54567246Y-95108757D01*
X54501557Y-94906588D01*
X54405051Y-94717184D01*
X54405049Y-94717181D01*
X54405048Y-94717179D01*
X54280109Y-94545213D01*
X54129786Y-94394890D01*
X53957820Y-94269951D01*
X53768414Y-94173444D01*
X53768413Y-94173443D01*
X53768412Y-94173443D01*
X53566243Y-94107754D01*
X53566241Y-94107753D01*
X53566240Y-94107753D01*
X53404957Y-94082208D01*
X53356287Y-94074500D01*
X53143713Y-94074500D01*
X53095042Y-94082208D01*
X52933760Y-94107753D01*
X52731585Y-94173444D01*
X52542179Y-94269951D01*
X52370213Y-94394890D01*
X52219890Y-94545213D01*
X52094951Y-94717179D01*
X51998444Y-94906585D01*
X51932753Y-95108760D01*
X51899500Y-95318713D01*
X14100500Y-95318713D01*
X14067246Y-95108757D01*
X14001557Y-94906588D01*
X13905051Y-94717184D01*
X13905049Y-94717181D01*
X13905048Y-94717179D01*
X13780109Y-94545213D01*
X13629786Y-94394890D01*
X13457820Y-94269951D01*
X13268414Y-94173444D01*
X13268413Y-94173443D01*
X13268412Y-94173443D01*
X13066243Y-94107754D01*
X13066241Y-94107753D01*
X13066240Y-94107753D01*
X12904957Y-94082208D01*
X12856287Y-94074500D01*
X12643713Y-94074500D01*
X12595042Y-94082208D01*
X12433760Y-94107753D01*
X12231585Y-94173444D01*
X12042179Y-94269951D01*
X11870213Y-94394890D01*
X11719890Y-94545213D01*
X11594951Y-94717179D01*
X11498444Y-94906585D01*
X11432753Y-95108760D01*
X11399500Y-95318713D01*
X500500Y-95318713D01*
X500500Y-87080428D01*
X1581999Y-87080428D01*
X1608918Y-87215755D01*
X1608921Y-87215765D01*
X1661721Y-87343237D01*
X1661728Y-87343250D01*
X1738385Y-87457974D01*
X1738388Y-87457978D01*
X1835954Y-87555544D01*
X1835958Y-87555547D01*
X1950682Y-87632204D01*
X1950695Y-87632211D01*
X2078167Y-87685011D01*
X2078172Y-87685013D01*
X2078176Y-87685013D01*
X2078177Y-87685014D01*
X2213504Y-87711933D01*
X2213507Y-87711933D01*
X2351495Y-87711933D01*
X2463838Y-87689586D01*
X2533430Y-87695813D01*
X2588607Y-87738676D01*
X2611852Y-87804565D01*
X2612029Y-87810706D01*
X2617641Y-89212281D01*
X2598225Y-89279399D01*
X2545605Y-89325365D01*
X2476487Y-89335586D01*
X2469451Y-89334395D01*
X2351497Y-89310933D01*
X2351493Y-89310933D01*
X2213507Y-89310933D01*
X2213505Y-89310933D01*
X2078177Y-89337851D01*
X2078167Y-89337854D01*
X1950695Y-89390654D01*
X1950682Y-89390661D01*
X1835958Y-89467318D01*
X1835954Y-89467321D01*
X1738388Y-89564887D01*
X1738385Y-89564891D01*
X1661728Y-89679615D01*
X1661721Y-89679628D01*
X1608921Y-89807100D01*
X1608918Y-89807110D01*
X1582000Y-89942437D01*
X1582000Y-89942440D01*
X1582000Y-90080426D01*
X1582000Y-90080428D01*
X1581999Y-90080428D01*
X1608918Y-90215755D01*
X1608921Y-90215765D01*
X1661721Y-90343237D01*
X1661728Y-90343250D01*
X1738385Y-90457974D01*
X1738388Y-90457978D01*
X1835954Y-90555544D01*
X1835958Y-90555547D01*
X1950682Y-90632204D01*
X1950695Y-90632211D01*
X2078167Y-90685011D01*
X2078172Y-90685013D01*
X2078176Y-90685013D01*
X2078177Y-90685014D01*
X2213504Y-90711933D01*
X2213507Y-90711933D01*
X2351494Y-90711933D01*
X2388693Y-90704533D01*
X2475842Y-90687198D01*
X2545432Y-90693425D01*
X2600610Y-90736287D01*
X2623855Y-90802177D01*
X2624032Y-90808318D01*
X2624999Y-91049998D01*
X2625000Y-91050000D01*
X2625001Y-91050000D01*
X63650000Y-91050000D01*
X63525000Y-66075000D01*
X2525000Y-66075000D01*
X2605619Y-86209891D01*
X2586203Y-86277008D01*
X2533583Y-86322974D01*
X2464465Y-86333195D01*
X2457429Y-86332004D01*
X2351497Y-86310933D01*
X2351493Y-86310933D01*
X2213507Y-86310933D01*
X2213505Y-86310933D01*
X2078177Y-86337851D01*
X2078167Y-86337854D01*
X1950695Y-86390654D01*
X1950682Y-86390661D01*
X1835958Y-86467318D01*
X1835954Y-86467321D01*
X1738388Y-86564887D01*
X1738385Y-86564891D01*
X1661728Y-86679615D01*
X1661721Y-86679628D01*
X1608921Y-86807100D01*
X1608918Y-86807110D01*
X1582000Y-86942437D01*
X1582000Y-86942440D01*
X1582000Y-87080426D01*
X1582000Y-87080428D01*
X1581999Y-87080428D01*
X500500Y-87080428D01*
X500500Y-62002706D01*
X500618Y-61997297D01*
X508479Y-61817246D01*
X517386Y-61613226D01*
X518326Y-61602495D01*
X568152Y-61224025D01*
X570025Y-61213405D01*
X652649Y-60840709D01*
X655440Y-60830295D01*
X770230Y-60466227D01*
X773917Y-60456095D01*
X799756Y-60393713D01*
X31649500Y-60393713D01*
X31649500Y-60606287D01*
X31682754Y-60816243D01*
X31700301Y-60870248D01*
X31748444Y-61018414D01*
X31844951Y-61207820D01*
X31969890Y-61379786D01*
X32120213Y-61530109D01*
X32292179Y-61655048D01*
X32292181Y-61655049D01*
X32292184Y-61655051D01*
X32481588Y-61751557D01*
X32683757Y-61817246D01*
X32893713Y-61850500D01*
X32893714Y-61850500D01*
X33106286Y-61850500D01*
X33106287Y-61850500D01*
X33316243Y-61817246D01*
X33518412Y-61751557D01*
X33707816Y-61655051D01*
X33780184Y-61602473D01*
X33879786Y-61530109D01*
X33879788Y-61530106D01*
X33879792Y-61530104D01*
X34030104Y-61379792D01*
X34030106Y-61379788D01*
X34030109Y-61379786D01*
X34155048Y-61207820D01*
X34155047Y-61207820D01*
X34155051Y-61207816D01*
X34251557Y-61018412D01*
X34317246Y-60816243D01*
X34350500Y-60606287D01*
X34350500Y-60393713D01*
X34317246Y-60183757D01*
X34251557Y-59981588D01*
X34155051Y-59792184D01*
X34155049Y-59792181D01*
X34155048Y-59792179D01*
X34030109Y-59620213D01*
X33879786Y-59469890D01*
X33707820Y-59344951D01*
X33518414Y-59248444D01*
X33518413Y-59248443D01*
X33518412Y-59248443D01*
X33316243Y-59182754D01*
X33316241Y-59182753D01*
X33316240Y-59182753D01*
X33154957Y-59157208D01*
X33106287Y-59149500D01*
X32893713Y-59149500D01*
X32845042Y-59157208D01*
X32683760Y-59182753D01*
X32481585Y-59248444D01*
X32292179Y-59344951D01*
X32120213Y-59469890D01*
X31969890Y-59620213D01*
X31844951Y-59792179D01*
X31748444Y-59981585D01*
X31682753Y-60183760D01*
X31649500Y-60393713D01*
X799756Y-60393713D01*
X920003Y-60103412D01*
X924561Y-60093638D01*
X1100822Y-59755045D01*
X1106217Y-59745700D01*
X1311325Y-59423744D01*
X1317515Y-59414905D01*
X1549896Y-59112060D01*
X1556834Y-59103791D01*
X1814726Y-58822352D01*
X1822352Y-58814726D01*
X2103791Y-58556834D01*
X2112060Y-58549896D01*
X2414905Y-58317515D01*
X2423744Y-58311325D01*
X2745700Y-58106217D01*
X2755045Y-58100822D01*
X3093638Y-57924561D01*
X3103412Y-57920003D01*
X3456095Y-57773917D01*
X3466227Y-57770230D01*
X3830295Y-57655440D01*
X3840709Y-57652649D01*
X4213405Y-57570025D01*
X4224025Y-57568152D01*
X4602495Y-57518326D01*
X4613226Y-57517386D01*
X4997297Y-57500617D01*
X5002706Y-57500500D01*
X5065892Y-57500500D01*
X60934108Y-57500500D01*
X60997294Y-57500500D01*
X61002702Y-57500617D01*
G37*
G04 #@! TD.AperFunction*
G04 #@! TD*
G04 #@! TA.AperFunction,Conductor*
G04 #@! TO.N,Board_0-Net-(BT1--)*
G36*
X61002702Y-500617D02*
G01*
X61386771Y-517386D01*
X61397506Y-518326D01*
X61775971Y-568152D01*
X61786597Y-570025D01*
X62159284Y-652648D01*
X62169710Y-655442D01*
X62533765Y-770227D01*
X62543911Y-773920D01*
X62896578Y-920000D01*
X62906369Y-924566D01*
X63244942Y-1100816D01*
X63254310Y-1106224D01*
X63576244Y-1311318D01*
X63585105Y-1317523D01*
X63887930Y-1549889D01*
X63896217Y-1556843D01*
X64177635Y-1814715D01*
X64185284Y-1822364D01*
X64443156Y-2103782D01*
X64450110Y-2112069D01*
X64682476Y-2414894D01*
X64688681Y-2423755D01*
X64893775Y-2745689D01*
X64899183Y-2755057D01*
X65075430Y-3093623D01*
X65080002Y-3103427D01*
X65226075Y-3456078D01*
X65229775Y-3466244D01*
X65344554Y-3830278D01*
X65347354Y-3840727D01*
X65429971Y-4213389D01*
X65431849Y-4224042D01*
X65481671Y-4602473D01*
X65482614Y-4613249D01*
X65499382Y-4997297D01*
X65499500Y-5002706D01*
X65499500Y-49997293D01*
X65499382Y-50002702D01*
X65482614Y-50386750D01*
X65481671Y-50397526D01*
X65431849Y-50775957D01*
X65429971Y-50786610D01*
X65347354Y-51159272D01*
X65344554Y-51169721D01*
X65229775Y-51533755D01*
X65226075Y-51543921D01*
X65080002Y-51896572D01*
X65075430Y-51906376D01*
X64899183Y-52244942D01*
X64893775Y-52254310D01*
X64688681Y-52576244D01*
X64682476Y-52585105D01*
X64450110Y-52887930D01*
X64443156Y-52896217D01*
X64185284Y-53177635D01*
X64177635Y-53185284D01*
X63896217Y-53443156D01*
X63887930Y-53450110D01*
X63585105Y-53682476D01*
X63576244Y-53688681D01*
X63254310Y-53893775D01*
X63244942Y-53899183D01*
X62906376Y-54075430D01*
X62896572Y-54080002D01*
X62543921Y-54226075D01*
X62533755Y-54229775D01*
X62169721Y-54344554D01*
X62159272Y-54347354D01*
X61786610Y-54429971D01*
X61775957Y-54431849D01*
X61397526Y-54481671D01*
X61386750Y-54482614D01*
X61002703Y-54499382D01*
X60997294Y-54499500D01*
X5002706Y-54499500D01*
X4997297Y-54499382D01*
X4613249Y-54482614D01*
X4602473Y-54481671D01*
X4224042Y-54431849D01*
X4213389Y-54429971D01*
X3840727Y-54347354D01*
X3830278Y-54344554D01*
X3466244Y-54229775D01*
X3456078Y-54226075D01*
X3103427Y-54080002D01*
X3093623Y-54075430D01*
X2755057Y-53899183D01*
X2745689Y-53893775D01*
X2423755Y-53688681D01*
X2414894Y-53682476D01*
X2112069Y-53450110D01*
X2103782Y-53443156D01*
X1822364Y-53185284D01*
X1814715Y-53177635D01*
X1556843Y-52896217D01*
X1549889Y-52887930D01*
X1317523Y-52585105D01*
X1311318Y-52576244D01*
X1106224Y-52254310D01*
X1100816Y-52244942D01*
X924569Y-51906376D01*
X919997Y-51896572D01*
X773924Y-51543921D01*
X770224Y-51533755D01*
X655442Y-51169710D01*
X652648Y-51159284D01*
X570025Y-50786597D01*
X568152Y-50775971D01*
X518326Y-50397506D01*
X517386Y-50386771D01*
X500618Y-50002702D01*
X500500Y-49997293D01*
X500500Y-46866680D01*
X12787000Y-46866680D01*
X12787000Y-48906185D01*
X12798631Y-48964662D01*
X12798632Y-48964663D01*
X12842947Y-49030985D01*
X12909269Y-49075300D01*
X12909270Y-49075301D01*
X12967747Y-49086932D01*
X12967750Y-49086933D01*
X12967752Y-49086933D01*
X15007250Y-49086933D01*
X15007251Y-49086932D01*
X15022068Y-49083985D01*
X15065729Y-49075301D01*
X15065729Y-49075300D01*
X15065731Y-49075300D01*
X15132052Y-49030985D01*
X15176367Y-48964664D01*
X15176367Y-48964662D01*
X15176368Y-48964662D01*
X15187999Y-48906185D01*
X15188000Y-48906183D01*
X15188000Y-46866682D01*
X15187999Y-46866680D01*
X15176368Y-46808203D01*
X15176367Y-46808202D01*
X15132052Y-46741880D01*
X15065730Y-46697565D01*
X15065729Y-46697564D01*
X15007252Y-46685933D01*
X15007248Y-46685933D01*
X12967752Y-46685933D01*
X12967747Y-46685933D01*
X12909270Y-46697564D01*
X12909269Y-46697565D01*
X12842947Y-46741880D01*
X12798632Y-46808202D01*
X12798631Y-46808203D01*
X12787000Y-46866680D01*
X500500Y-46866680D01*
X500500Y-38318713D01*
X11399500Y-38318713D01*
X11399500Y-38531286D01*
X11432753Y-38741239D01*
X11498444Y-38943414D01*
X11594951Y-39132820D01*
X11719890Y-39304786D01*
X11870213Y-39455109D01*
X12042179Y-39580048D01*
X12042181Y-39580049D01*
X12042184Y-39580051D01*
X12231588Y-39676557D01*
X12433757Y-39742246D01*
X12643713Y-39775500D01*
X12643714Y-39775500D01*
X12856286Y-39775500D01*
X12856287Y-39775500D01*
X13066243Y-39742246D01*
X13268412Y-39676557D01*
X13457816Y-39580051D01*
X13479789Y-39564086D01*
X13629786Y-39455109D01*
X13629788Y-39455106D01*
X13629792Y-39455104D01*
X13780104Y-39304792D01*
X13780106Y-39304788D01*
X13780109Y-39304786D01*
X13905048Y-39132820D01*
X13905047Y-39132820D01*
X13905051Y-39132816D01*
X14001557Y-38943412D01*
X14067246Y-38741243D01*
X14100500Y-38531287D01*
X14100500Y-38318713D01*
X51899500Y-38318713D01*
X51899500Y-38531286D01*
X51932753Y-38741239D01*
X51998444Y-38943414D01*
X52094951Y-39132820D01*
X52219890Y-39304786D01*
X52370213Y-39455109D01*
X52542179Y-39580048D01*
X52542181Y-39580049D01*
X52542184Y-39580051D01*
X52731588Y-39676557D01*
X52933757Y-39742246D01*
X53143713Y-39775500D01*
X53143714Y-39775500D01*
X53356286Y-39775500D01*
X53356287Y-39775500D01*
X53566243Y-39742246D01*
X53768412Y-39676557D01*
X53957816Y-39580051D01*
X53979789Y-39564086D01*
X54129786Y-39455109D01*
X54129788Y-39455106D01*
X54129792Y-39455104D01*
X54280104Y-39304792D01*
X54280106Y-39304788D01*
X54280109Y-39304786D01*
X54405048Y-39132820D01*
X54405047Y-39132820D01*
X54405051Y-39132816D01*
X54501557Y-38943412D01*
X54567246Y-38741243D01*
X54600500Y-38531287D01*
X54600500Y-38318713D01*
X54567246Y-38108757D01*
X54501557Y-37906588D01*
X54405051Y-37717184D01*
X54405049Y-37717181D01*
X54405048Y-37717179D01*
X54280109Y-37545213D01*
X54129786Y-37394890D01*
X53957820Y-37269951D01*
X53768414Y-37173444D01*
X53768413Y-37173443D01*
X53768412Y-37173443D01*
X53566243Y-37107754D01*
X53566241Y-37107753D01*
X53566240Y-37107753D01*
X53404957Y-37082208D01*
X53356287Y-37074500D01*
X53143713Y-37074500D01*
X53095042Y-37082208D01*
X52933760Y-37107753D01*
X52731585Y-37173444D01*
X52542179Y-37269951D01*
X52370213Y-37394890D01*
X52219890Y-37545213D01*
X52094951Y-37717179D01*
X51998444Y-37906585D01*
X51932753Y-38108760D01*
X51899500Y-38318713D01*
X14100500Y-38318713D01*
X14067246Y-38108757D01*
X14001557Y-37906588D01*
X13905051Y-37717184D01*
X13905049Y-37717181D01*
X13905048Y-37717179D01*
X13780109Y-37545213D01*
X13629786Y-37394890D01*
X13457820Y-37269951D01*
X13268414Y-37173444D01*
X13268413Y-37173443D01*
X13268412Y-37173443D01*
X13066243Y-37107754D01*
X13066241Y-37107753D01*
X13066240Y-37107753D01*
X12904957Y-37082208D01*
X12856287Y-37074500D01*
X12643713Y-37074500D01*
X12595042Y-37082208D01*
X12433760Y-37107753D01*
X12231585Y-37173444D01*
X12042179Y-37269951D01*
X11870213Y-37394890D01*
X11719890Y-37545213D01*
X11594951Y-37717179D01*
X11498444Y-37906585D01*
X11432753Y-38108760D01*
X11399500Y-38318713D01*
X500500Y-38318713D01*
X500500Y-30080428D01*
X1581999Y-30080428D01*
X1608918Y-30215755D01*
X1608921Y-30215765D01*
X1661721Y-30343237D01*
X1661728Y-30343250D01*
X1738385Y-30457974D01*
X1738388Y-30457978D01*
X1835954Y-30555544D01*
X1835958Y-30555547D01*
X1950682Y-30632204D01*
X1950695Y-30632211D01*
X2078167Y-30685011D01*
X2078172Y-30685013D01*
X2078176Y-30685013D01*
X2078177Y-30685014D01*
X2213504Y-30711933D01*
X2213507Y-30711933D01*
X2351495Y-30711933D01*
X2463838Y-30689586D01*
X2533430Y-30695813D01*
X2588607Y-30738676D01*
X2611852Y-30804565D01*
X2612029Y-30810706D01*
X2617641Y-32212281D01*
X2598225Y-32279399D01*
X2545605Y-32325365D01*
X2476487Y-32335586D01*
X2469451Y-32334395D01*
X2351497Y-32310933D01*
X2351493Y-32310933D01*
X2213507Y-32310933D01*
X2213505Y-32310933D01*
X2078177Y-32337851D01*
X2078167Y-32337854D01*
X1950695Y-32390654D01*
X1950682Y-32390661D01*
X1835958Y-32467318D01*
X1835954Y-32467321D01*
X1738388Y-32564887D01*
X1738385Y-32564891D01*
X1661728Y-32679615D01*
X1661721Y-32679628D01*
X1608921Y-32807100D01*
X1608918Y-32807110D01*
X1582000Y-32942437D01*
X1582000Y-32942440D01*
X1582000Y-33080426D01*
X1582000Y-33080428D01*
X1581999Y-33080428D01*
X1608918Y-33215755D01*
X1608921Y-33215765D01*
X1661721Y-33343237D01*
X1661728Y-33343250D01*
X1738385Y-33457974D01*
X1738388Y-33457978D01*
X1835954Y-33555544D01*
X1835958Y-33555547D01*
X1950682Y-33632204D01*
X1950695Y-33632211D01*
X2078167Y-33685011D01*
X2078172Y-33685013D01*
X2078176Y-33685013D01*
X2078177Y-33685014D01*
X2213504Y-33711933D01*
X2213507Y-33711933D01*
X2351494Y-33711933D01*
X2388693Y-33704533D01*
X2475842Y-33687198D01*
X2545432Y-33693425D01*
X2600610Y-33736287D01*
X2623855Y-33802177D01*
X2624032Y-33808318D01*
X2624999Y-34049998D01*
X2625000Y-34050000D01*
X2625001Y-34050000D01*
X63650000Y-34050000D01*
X63525000Y-9075000D01*
X2525000Y-9075000D01*
X2605619Y-29209891D01*
X2586203Y-29277008D01*
X2533583Y-29322974D01*
X2464465Y-29333195D01*
X2457429Y-29332004D01*
X2351497Y-29310933D01*
X2351493Y-29310933D01*
X2213507Y-29310933D01*
X2213505Y-29310933D01*
X2078177Y-29337851D01*
X2078167Y-29337854D01*
X1950695Y-29390654D01*
X1950682Y-29390661D01*
X1835958Y-29467318D01*
X1835954Y-29467321D01*
X1738388Y-29564887D01*
X1738385Y-29564891D01*
X1661728Y-29679615D01*
X1661721Y-29679628D01*
X1608921Y-29807100D01*
X1608918Y-29807110D01*
X1582000Y-29942437D01*
X1582000Y-29942440D01*
X1582000Y-30080426D01*
X1582000Y-30080428D01*
X1581999Y-30080428D01*
X500500Y-30080428D01*
X500500Y-5002706D01*
X500618Y-4997297D01*
X508479Y-4817246D01*
X517386Y-4613226D01*
X518326Y-4602495D01*
X568152Y-4224025D01*
X570025Y-4213405D01*
X652649Y-3840709D01*
X655440Y-3830295D01*
X770230Y-3466227D01*
X773917Y-3456095D01*
X799756Y-3393713D01*
X31649500Y-3393713D01*
X31649500Y-3606287D01*
X31682754Y-3816243D01*
X31700301Y-3870248D01*
X31748444Y-4018414D01*
X31844951Y-4207820D01*
X31969890Y-4379786D01*
X32120213Y-4530109D01*
X32292179Y-4655048D01*
X32292181Y-4655049D01*
X32292184Y-4655051D01*
X32481588Y-4751557D01*
X32683757Y-4817246D01*
X32893713Y-4850500D01*
X32893714Y-4850500D01*
X33106286Y-4850500D01*
X33106287Y-4850500D01*
X33316243Y-4817246D01*
X33518412Y-4751557D01*
X33707816Y-4655051D01*
X33780184Y-4602473D01*
X33879786Y-4530109D01*
X33879788Y-4530106D01*
X33879792Y-4530104D01*
X34030104Y-4379792D01*
X34030106Y-4379788D01*
X34030109Y-4379786D01*
X34155048Y-4207820D01*
X34155047Y-4207820D01*
X34155051Y-4207816D01*
X34251557Y-4018412D01*
X34317246Y-3816243D01*
X34350500Y-3606287D01*
X34350500Y-3393713D01*
X34317246Y-3183757D01*
X34251557Y-2981588D01*
X34155051Y-2792184D01*
X34155049Y-2792181D01*
X34155048Y-2792179D01*
X34030109Y-2620213D01*
X33879786Y-2469890D01*
X33707820Y-2344951D01*
X33518414Y-2248444D01*
X33518413Y-2248443D01*
X33518412Y-2248443D01*
X33316243Y-2182754D01*
X33316241Y-2182753D01*
X33316240Y-2182753D01*
X33154957Y-2157208D01*
X33106287Y-2149500D01*
X32893713Y-2149500D01*
X32845042Y-2157208D01*
X32683760Y-2182753D01*
X32481585Y-2248444D01*
X32292179Y-2344951D01*
X32120213Y-2469890D01*
X31969890Y-2620213D01*
X31844951Y-2792179D01*
X31748444Y-2981585D01*
X31682753Y-3183760D01*
X31649500Y-3393713D01*
X799756Y-3393713D01*
X920003Y-3103412D01*
X924561Y-3093638D01*
X1100822Y-2755045D01*
X1106217Y-2745700D01*
X1311325Y-2423744D01*
X1317515Y-2414905D01*
X1549896Y-2112060D01*
X1556834Y-2103791D01*
X1814726Y-1822352D01*
X1822352Y-1814726D01*
X2103791Y-1556834D01*
X2112060Y-1549896D01*
X2414905Y-1317515D01*
X2423744Y-1311325D01*
X2745700Y-1106217D01*
X2755045Y-1100822D01*
X3093638Y-924561D01*
X3103412Y-920003D01*
X3456095Y-773917D01*
X3466227Y-770230D01*
X3830295Y-655440D01*
X3840709Y-652649D01*
X4213405Y-570025D01*
X4224025Y-568152D01*
X4602495Y-518326D01*
X4613226Y-517386D01*
X4997297Y-500617D01*
X5002706Y-500500D01*
X5065892Y-500500D01*
X60934108Y-500500D01*
X60997294Y-500500D01*
X61002702Y-500617D01*
G37*
G04 #@! TD.AperFunction*
G04 #@! TD*
M02*
