G04 #@! TF.GenerationSoftware,KiCad,Pcbnew,8.0.3-8.0.3-0~ubuntu24.04.1*
G04 #@! TF.CreationDate,2024-07-21T14:04:27+02:00*
G04 #@! TF.ProjectId,panel,70616e65-6c2e-46b6-9963-61645f706362,rev?*
G04 #@! TF.SameCoordinates,Original*
G04 #@! TF.FileFunction,Paste,Top*
G04 #@! TF.FilePolarity,Positive*
%FSLAX46Y46*%
G04 Gerber Fmt 4.6, Leading zero omitted, Abs format (unit mm)*
G04 Created by KiCad (PCBNEW 8.0.3-8.0.3-0~ubuntu24.04.1) date 2024-07-21 14:04:27*
%MOMM*%
%LPD*%
G01*
G04 APERTURE LIST*
G04 Aperture macros list*
%AMRoundRect*
0 Rectangle with rounded corners*
0 $1 Rounding radius*
0 $2 $3 $4 $5 $6 $7 $8 $9 X,Y pos of 4 corners*
0 Add a 4 corners polygon primitive as box body*
4,1,4,$2,$3,$4,$5,$6,$7,$8,$9,$2,$3,0*
0 Add four circle primitives for the rounded corners*
1,1,$1+$1,$2,$3*
1,1,$1+$1,$4,$5*
1,1,$1+$1,$6,$7*
1,1,$1+$1,$8,$9*
0 Add four rect primitives between the rounded corners*
20,1,$1+$1,$2,$3,$4,$5,0*
20,1,$1+$1,$4,$5,$6,$7,0*
20,1,$1+$1,$6,$7,$8,$9,0*
20,1,$1+$1,$8,$9,$2,$3,0*%
G04 Aperture macros list end*
%ADD10R,2.600000X1.600000*%
%ADD11RoundRect,0.287500X0.512500X-0.402500X0.512500X0.402500X-0.512500X0.402500X-0.512500X-0.402500X0*%
%ADD12RoundRect,0.250000X-0.500000X1.000000X-0.500000X-1.000000X0.500000X-1.000000X0.500000X1.000000X0*%
%ADD13RoundRect,0.291666X-0.508334X0.408334X-0.508334X-0.408334X0.508334X-0.408334X0.508334X0.408334X0*%
%ADD14RoundRect,0.200000X0.200000X-0.637500X0.200000X0.637500X-0.200000X0.637500X-0.200000X-0.637500X0*%
%ADD15RoundRect,0.291666X0.508334X-0.408334X0.508334X0.408334X-0.508334X0.408334X-0.508334X-0.408334X0*%
%ADD16R,0.800000X1.000000*%
%ADD17R,1.500000X0.700000*%
G04 APERTURE END LIST*
D10*
G04 #@! TO.C,D4*
X50025000Y-96575000D03*
X50025000Y-94475000D03*
X50025000Y-92375000D03*
X45125000Y-92375000D03*
X45125000Y-94475000D03*
X45125000Y-96575000D03*
G04 #@! TD*
D11*
G04 #@! TO.C,R3*
X45875000Y-4887500D03*
X45875000Y-2887500D03*
G04 #@! TD*
D10*
G04 #@! TO.C,D1*
X78075000Y-7875000D03*
X78075000Y-5775000D03*
X78075000Y-3675000D03*
X73175000Y-3675000D03*
X73175000Y-5775000D03*
X73175000Y-7875000D03*
G04 #@! TD*
D12*
G04 #@! TO.C,L1*
X75787500Y-100886433D03*
X72787500Y-100886433D03*
X72787500Y-107386433D03*
X75787500Y-107386433D03*
G04 #@! TD*
D10*
G04 #@! TO.C,D2*
X20925000Y-39575000D03*
X20925000Y-37475000D03*
X20925000Y-35375000D03*
X16025000Y-35375000D03*
X16025000Y-37475000D03*
X16025000Y-39575000D03*
G04 #@! TD*
D13*
G04 #@! TO.C,R1*
X71600000Y-95487500D03*
X71600000Y-97487500D03*
G04 #@! TD*
D12*
G04 #@! TO.C,L1*
X75787500Y-43886433D03*
X72787500Y-43886433D03*
X72787500Y-50386433D03*
X75787500Y-50386433D03*
G04 #@! TD*
D10*
G04 #@! TO.C,D4*
X118025000Y-96575000D03*
X118025000Y-94475000D03*
X118025000Y-92375000D03*
X113125000Y-92375000D03*
X113125000Y-94475000D03*
X113125000Y-96575000D03*
G04 #@! TD*
G04 #@! TO.C,D4*
X118025000Y-39575000D03*
X118025000Y-37475000D03*
X118025000Y-35375000D03*
X113125000Y-35375000D03*
X113125000Y-37475000D03*
X113125000Y-39575000D03*
G04 #@! TD*
G04 #@! TO.C,D2*
X20925000Y-96575000D03*
X20925000Y-94475000D03*
X20925000Y-92375000D03*
X16025000Y-92375000D03*
X16025000Y-94475000D03*
X16025000Y-96575000D03*
G04 #@! TD*
G04 #@! TO.C,D3*
X128825000Y-64875000D03*
X128825000Y-62775000D03*
X128825000Y-60675000D03*
X123925000Y-60675000D03*
X123925000Y-62775000D03*
X123925000Y-64875000D03*
G04 #@! TD*
G04 #@! TO.C,D2*
X88925000Y-96575000D03*
X88925000Y-94475000D03*
X88925000Y-92375000D03*
X84025000Y-92375000D03*
X84025000Y-94475000D03*
X84025000Y-96575000D03*
G04 #@! TD*
D14*
G04 #@! TO.C,Q1*
X5375000Y-41100000D03*
X7275000Y-41100000D03*
X6325000Y-39225000D03*
G04 #@! TD*
D12*
G04 #@! TO.C,L1*
X7787500Y-100886433D03*
X4787500Y-100886433D03*
X4787500Y-107386433D03*
X7787500Y-107386433D03*
G04 #@! TD*
D15*
G04 #@! TO.C,R4*
X47850000Y-4887500D03*
X47850000Y-2887500D03*
G04 #@! TD*
G04 #@! TO.C,R2*
X117825000Y-61887500D03*
X117825000Y-59887500D03*
G04 #@! TD*
G04 #@! TO.C,R2*
X49825000Y-61887500D03*
X49825000Y-59887500D03*
G04 #@! TD*
D10*
G04 #@! TO.C,D3*
X60825000Y-7875000D03*
X60825000Y-5775000D03*
X60825000Y-3675000D03*
X55925000Y-3675000D03*
X55925000Y-5775000D03*
X55925000Y-7875000D03*
G04 #@! TD*
D11*
G04 #@! TO.C,R6*
X101043750Y-38818750D03*
X101043750Y-36818750D03*
G04 #@! TD*
D10*
G04 #@! TO.C,D1*
X78075000Y-64875000D03*
X78075000Y-62775000D03*
X78075000Y-60675000D03*
X73175000Y-60675000D03*
X73175000Y-62775000D03*
X73175000Y-64875000D03*
G04 #@! TD*
D11*
G04 #@! TO.C,R6*
X33043750Y-95818750D03*
X33043750Y-93818750D03*
G04 #@! TD*
D14*
G04 #@! TO.C,Q1*
X73375000Y-41100000D03*
X75275000Y-41100000D03*
X74325000Y-39225000D03*
G04 #@! TD*
D15*
G04 #@! TO.C,R7*
X103018750Y-95818750D03*
X103018750Y-93818750D03*
G04 #@! TD*
D11*
G04 #@! TO.C,R3*
X113875000Y-61887500D03*
X113875000Y-59887500D03*
G04 #@! TD*
G04 #@! TO.C,R6*
X33043750Y-38818750D03*
X33043750Y-36818750D03*
G04 #@! TD*
D15*
G04 #@! TO.C,R7*
X35018750Y-95818750D03*
X35018750Y-93818750D03*
G04 #@! TD*
D16*
G04 #@! TO.C,SW1*
X3392500Y-27861433D03*
X1182500Y-27861433D03*
X3392500Y-35161433D03*
X1182500Y-35161433D03*
D17*
X4042500Y-29261433D03*
X4042500Y-32261433D03*
X4042500Y-33761433D03*
G04 #@! TD*
D11*
G04 #@! TO.C,R3*
X45875000Y-61887500D03*
X45875000Y-59887500D03*
G04 #@! TD*
D14*
G04 #@! TO.C,Q1*
X5375000Y-98100000D03*
X7275000Y-98100000D03*
X6325000Y-96225000D03*
G04 #@! TD*
D15*
G04 #@! TO.C,R5*
X104993750Y-95818750D03*
X104993750Y-93818750D03*
G04 #@! TD*
G04 #@! TO.C,R5*
X36993750Y-95818750D03*
X36993750Y-93818750D03*
G04 #@! TD*
G04 #@! TO.C,R2*
X117825000Y-4887500D03*
X117825000Y-2887500D03*
G04 #@! TD*
D11*
G04 #@! TO.C,R3*
X113875000Y-4887500D03*
X113875000Y-2887500D03*
G04 #@! TD*
D15*
G04 #@! TO.C,R5*
X36993750Y-38818750D03*
X36993750Y-36818750D03*
G04 #@! TD*
G04 #@! TO.C,R7*
X103018750Y-38818750D03*
X103018750Y-36818750D03*
G04 #@! TD*
D16*
G04 #@! TO.C,SW1*
X71392500Y-27861433D03*
X69182500Y-27861433D03*
X71392500Y-35161433D03*
X69182500Y-35161433D03*
D17*
X72042500Y-29261433D03*
X72042500Y-32261433D03*
X72042500Y-33761433D03*
G04 #@! TD*
D15*
G04 #@! TO.C,R4*
X47850000Y-61887500D03*
X47850000Y-59887500D03*
G04 #@! TD*
G04 #@! TO.C,R7*
X35018750Y-38818750D03*
X35018750Y-36818750D03*
G04 #@! TD*
D10*
G04 #@! TO.C,D3*
X60825000Y-64875000D03*
X60825000Y-62775000D03*
X60825000Y-60675000D03*
X55925000Y-60675000D03*
X55925000Y-62775000D03*
X55925000Y-64875000D03*
G04 #@! TD*
D15*
G04 #@! TO.C,R5*
X104993750Y-38818750D03*
X104993750Y-36818750D03*
G04 #@! TD*
D10*
G04 #@! TO.C,D1*
X10075000Y-7875000D03*
X10075000Y-5775000D03*
X10075000Y-3675000D03*
X5175000Y-3675000D03*
X5175000Y-5775000D03*
X5175000Y-7875000D03*
G04 #@! TD*
D13*
G04 #@! TO.C,R1*
X3600000Y-95487500D03*
X3600000Y-97487500D03*
G04 #@! TD*
D14*
G04 #@! TO.C,Q1*
X73375000Y-98100000D03*
X75275000Y-98100000D03*
X74325000Y-96225000D03*
G04 #@! TD*
D15*
G04 #@! TO.C,R4*
X115850000Y-4887500D03*
X115850000Y-2887500D03*
G04 #@! TD*
D16*
G04 #@! TO.C,SW1*
X3392500Y-84861433D03*
X1182500Y-84861433D03*
X3392500Y-92161433D03*
X1182500Y-92161433D03*
D17*
X4042500Y-86261433D03*
X4042500Y-89261433D03*
X4042500Y-90761433D03*
G04 #@! TD*
D13*
G04 #@! TO.C,R1*
X71600000Y-38487500D03*
X71600000Y-40487500D03*
G04 #@! TD*
D11*
G04 #@! TO.C,R6*
X101043750Y-95818750D03*
X101043750Y-93818750D03*
G04 #@! TD*
D16*
G04 #@! TO.C,SW1*
X71392500Y-84861433D03*
X69182500Y-84861433D03*
X71392500Y-92161433D03*
X69182500Y-92161433D03*
D17*
X72042500Y-86261433D03*
X72042500Y-89261433D03*
X72042500Y-90761433D03*
G04 #@! TD*
D10*
G04 #@! TO.C,D2*
X88925000Y-39575000D03*
X88925000Y-37475000D03*
X88925000Y-35375000D03*
X84025000Y-35375000D03*
X84025000Y-37475000D03*
X84025000Y-39575000D03*
G04 #@! TD*
G04 #@! TO.C,D4*
X50025000Y-39575000D03*
X50025000Y-37475000D03*
X50025000Y-35375000D03*
X45125000Y-35375000D03*
X45125000Y-37475000D03*
X45125000Y-39575000D03*
G04 #@! TD*
D15*
G04 #@! TO.C,R2*
X49825000Y-4887500D03*
X49825000Y-2887500D03*
G04 #@! TD*
D10*
G04 #@! TO.C,D3*
X128825000Y-7875000D03*
X128825000Y-5775000D03*
X128825000Y-3675000D03*
X123925000Y-3675000D03*
X123925000Y-5775000D03*
X123925000Y-7875000D03*
G04 #@! TD*
D15*
G04 #@! TO.C,R4*
X115850000Y-61887500D03*
X115850000Y-59887500D03*
G04 #@! TD*
D10*
G04 #@! TO.C,D1*
X10075000Y-64875000D03*
X10075000Y-62775000D03*
X10075000Y-60675000D03*
X5175000Y-60675000D03*
X5175000Y-62775000D03*
X5175000Y-64875000D03*
G04 #@! TD*
D13*
G04 #@! TO.C,R1*
X3600000Y-38487500D03*
X3600000Y-40487500D03*
G04 #@! TD*
D12*
G04 #@! TO.C,L1*
X7787500Y-43886433D03*
X4787500Y-43886433D03*
X4787500Y-50386433D03*
X7787500Y-50386433D03*
G04 #@! TD*
M02*
