G04 #@! TF.GenerationSoftware,KiCad,Pcbnew,8.0.3-8.0.3-0~ubuntu24.04.1*
G04 #@! TF.CreationDate,2024-07-21T14:04:27+02:00*
G04 #@! TF.ProjectId,panel,70616e65-6c2e-46b6-9963-61645f706362,rev?*
G04 #@! TF.SameCoordinates,Original*
G04 #@! TF.FileFunction,Soldermask,Top*
G04 #@! TF.FilePolarity,Negative*
%FSLAX46Y46*%
G04 Gerber Fmt 4.6, Leading zero omitted, Abs format (unit mm)*
G04 Created by KiCad (PCBNEW 8.0.3-8.0.3-0~ubuntu24.04.1) date 2024-07-21 14:04:27*
%MOMM*%
%LPD*%
G01*
G04 APERTURE LIST*
G04 Aperture macros list*
%AMRoundRect*
0 Rectangle with rounded corners*
0 $1 Rounding radius*
0 $2 $3 $4 $5 $6 $7 $8 $9 X,Y pos of 4 corners*
0 Add a 4 corners polygon primitive as box body*
4,1,4,$2,$3,$4,$5,$6,$7,$8,$9,$2,$3,0*
0 Add four circle primitives for the rounded corners*
1,1,$1+$1,$2,$3*
1,1,$1+$1,$4,$5*
1,1,$1+$1,$6,$7*
1,1,$1+$1,$8,$9*
0 Add four rect primitives between the rounded corners*
20,1,$1+$1,$2,$3,$4,$5,0*
20,1,$1+$1,$4,$5,$6,$7,0*
20,1,$1+$1,$6,$7,$8,$9,0*
20,1,$1+$1,$8,$9,$2,$3,0*%
G04 Aperture macros list end*
%ADD10C,0.500000*%
%ADD11R,2.600000X1.600000*%
%ADD12RoundRect,0.287500X0.512500X-0.402500X0.512500X0.402500X-0.512500X0.402500X-0.512500X-0.402500X0*%
%ADD13RoundRect,0.250000X-0.500000X1.000000X-0.500000X-1.000000X0.500000X-1.000000X0.500000X1.000000X0*%
%ADD14RoundRect,0.291666X-0.508334X0.408334X-0.508334X-0.408334X0.508334X-0.408334X0.508334X0.408334X0*%
%ADD15C,2.200000*%
%ADD16RoundRect,0.200000X0.200000X-0.637500X0.200000X0.637500X-0.200000X0.637500X-0.200000X-0.637500X0*%
%ADD17R,2.000000X2.000000*%
%ADD18C,2.000000*%
%ADD19RoundRect,0.291666X0.508334X-0.408334X0.508334X0.408334X-0.508334X0.408334X-0.508334X-0.408334X0*%
%ADD20R,0.800000X1.000000*%
%ADD21C,0.900000*%
%ADD22R,1.500000X0.700000*%
G04 APERTURE END LIST*
D10*
G04 #@! TO.C,KiKit_MB_9_5*
X68200000Y-39250000D03*
G04 #@! TD*
G04 #@! TO.C,KiKit_MB_23_5*
X103000000Y-57200000D03*
G04 #@! TD*
D11*
G04 #@! TO.C,D4*
X50025000Y-96575000D03*
X50025000Y-94475000D03*
X50025000Y-92375000D03*
X45125000Y-92375000D03*
X45125000Y-94475000D03*
X45125000Y-96575000D03*
G04 #@! TD*
D12*
G04 #@! TO.C,R3*
X45875000Y-4887500D03*
X45875000Y-2887500D03*
G04 #@! TD*
D10*
G04 #@! TO.C,KiKit_MB_16_5*
X18500000Y-57200000D03*
G04 #@! TD*
D11*
G04 #@! TO.C,D1*
X78075000Y-7875000D03*
X78075000Y-5775000D03*
X78075000Y-3675000D03*
X73175000Y-3675000D03*
X73175000Y-5775000D03*
X73175000Y-7875000D03*
G04 #@! TD*
D10*
G04 #@! TO.C,KiKit_MB_19_5*
X68200000Y-68750000D03*
G04 #@! TD*
G04 #@! TO.C,KiKit_MB_22_4*
X85500000Y-57200000D03*
G04 #@! TD*
D13*
G04 #@! TO.C,L1*
X75787500Y-100886433D03*
X72787500Y-100886433D03*
X72787500Y-107386433D03*
X75787500Y-107386433D03*
G04 #@! TD*
D11*
G04 #@! TO.C,D2*
X20925000Y-39575000D03*
X20925000Y-37475000D03*
X20925000Y-35375000D03*
X16025000Y-35375000D03*
X16025000Y-37475000D03*
X16025000Y-39575000D03*
G04 #@! TD*
D10*
G04 #@! TO.C,KiKit_MB_19_2*
X68200000Y-71750000D03*
G04 #@! TD*
G04 #@! TO.C,KiKit_MB_8_5*
X68200000Y-25500000D03*
G04 #@! TD*
G04 #@! TO.C,KiKit_MB_3_1*
X65800000Y-39250000D03*
G04 #@! TD*
G04 #@! TO.C,KiKit_MB_1_5*
X65800000Y-15750000D03*
G04 #@! TD*
D14*
G04 #@! TO.C,R1*
X71600000Y-95487500D03*
X71600000Y-97487500D03*
G04 #@! TD*
D13*
G04 #@! TO.C,L1*
X75787500Y-43886433D03*
X72787500Y-43886433D03*
X72787500Y-50386433D03*
X75787500Y-50386433D03*
G04 #@! TD*
D10*
G04 #@! TO.C,KiKit_MB_18_3*
X49500000Y-57200000D03*
G04 #@! TD*
D15*
G04 #@! TO.C,*
X53250000Y-38425000D03*
G04 #@! TD*
D10*
G04 #@! TO.C,KiKit_MB_23_4*
X102000000Y-57200000D03*
G04 #@! TD*
G04 #@! TO.C,KiKit_MB_2_4*
X65800000Y-28500000D03*
G04 #@! TD*
G04 #@! TO.C,KiKit_MB_14_2*
X65800000Y-83500000D03*
G04 #@! TD*
G04 #@! TO.C,KiKit_MB_16_4*
X17500000Y-57200000D03*
G04 #@! TD*
D11*
G04 #@! TO.C,D4*
X118025000Y-96575000D03*
X118025000Y-94475000D03*
X118025000Y-92375000D03*
X113125000Y-92375000D03*
X113125000Y-94475000D03*
X113125000Y-96575000D03*
G04 #@! TD*
D15*
G04 #@! TO.C,*
X101000000Y-3500000D03*
G04 #@! TD*
G04 #@! TO.C,*
X80750000Y-38425000D03*
G04 #@! TD*
G04 #@! TO.C,*
X80750000Y-95425000D03*
G04 #@! TD*
D11*
G04 #@! TO.C,D4*
X118025000Y-39575000D03*
X118025000Y-37475000D03*
X118025000Y-35375000D03*
X113125000Y-35375000D03*
X113125000Y-37475000D03*
X113125000Y-39575000D03*
G04 #@! TD*
G04 #@! TO.C,D2*
X20925000Y-96575000D03*
X20925000Y-94475000D03*
X20925000Y-92375000D03*
X16025000Y-92375000D03*
X16025000Y-94475000D03*
X16025000Y-96575000D03*
G04 #@! TD*
D10*
G04 #@! TO.C,KiKit_MB_17_5*
X35000000Y-57200000D03*
G04 #@! TD*
G04 #@! TO.C,KiKit_MB_18_2*
X48500000Y-57200000D03*
G04 #@! TD*
G04 #@! TO.C,KiKit_MB_17_4*
X34000000Y-57200000D03*
G04 #@! TD*
G04 #@! TO.C,KiKit_MB_5_4*
X32000000Y-54800000D03*
G04 #@! TD*
D11*
G04 #@! TO.C,D3*
X128825000Y-64875000D03*
X128825000Y-62775000D03*
X128825000Y-60675000D03*
X123925000Y-60675000D03*
X123925000Y-62775000D03*
X123925000Y-64875000D03*
G04 #@! TD*
D10*
G04 #@! TO.C,KiKit_MB_22_5*
X86500000Y-57200000D03*
G04 #@! TD*
G04 #@! TO.C,KiKit_MB_24_1*
X115500000Y-57200000D03*
G04 #@! TD*
D11*
G04 #@! TO.C,D2*
X88925000Y-96575000D03*
X88925000Y-94475000D03*
X88925000Y-92375000D03*
X84025000Y-92375000D03*
X84025000Y-94475000D03*
X84025000Y-96575000D03*
G04 #@! TD*
D10*
G04 #@! TO.C,KiKit_MB_10_1*
X86500000Y-54800000D03*
G04 #@! TD*
G04 #@! TO.C,KiKit_MB_14_3*
X65800000Y-84500000D03*
G04 #@! TD*
G04 #@! TO.C,KiKit_MB_22_3*
X84500000Y-57200000D03*
G04 #@! TD*
G04 #@! TO.C,KiKit_MB_5_3*
X33000000Y-54800000D03*
G04 #@! TD*
G04 #@! TO.C,KiKit_MB_6_2*
X50500000Y-54800000D03*
G04 #@! TD*
D16*
G04 #@! TO.C,Q1*
X5375000Y-41100000D03*
X7275000Y-41100000D03*
X6325000Y-39225000D03*
G04 #@! TD*
D17*
G04 #@! TO.C,BT1*
X81987500Y-104886433D03*
D18*
X126687500Y-104886433D03*
G04 #@! TD*
D13*
G04 #@! TO.C,L1*
X7787500Y-100886433D03*
X4787500Y-100886433D03*
X4787500Y-107386433D03*
X7787500Y-107386433D03*
G04 #@! TD*
D10*
G04 #@! TO.C,KiKit_MB_12_2*
X118500000Y-54800000D03*
G04 #@! TD*
D19*
G04 #@! TO.C,R4*
X47850000Y-4887500D03*
X47850000Y-2887500D03*
G04 #@! TD*
D10*
G04 #@! TO.C,KiKit_MB_12_3*
X117500000Y-54800000D03*
G04 #@! TD*
G04 #@! TO.C,KiKit_MB_20_2*
X68200000Y-85500000D03*
G04 #@! TD*
G04 #@! TO.C,KiKit_MB_12_5*
X115500000Y-54800000D03*
G04 #@! TD*
G04 #@! TO.C,KiKit_MB_20_4*
X68200000Y-83500000D03*
G04 #@! TD*
G04 #@! TO.C,KiKit_MB_12_1*
X119500000Y-54800000D03*
G04 #@! TD*
D19*
G04 #@! TO.C,R2*
X117825000Y-61887500D03*
X117825000Y-59887500D03*
G04 #@! TD*
D10*
G04 #@! TO.C,KiKit_MB_7_3*
X68200000Y-13750000D03*
G04 #@! TD*
G04 #@! TO.C,KiKit_MB_24_3*
X117500000Y-57200000D03*
G04 #@! TD*
D19*
G04 #@! TO.C,R2*
X49825000Y-61887500D03*
X49825000Y-59887500D03*
G04 #@! TD*
D11*
G04 #@! TO.C,D3*
X60825000Y-7875000D03*
X60825000Y-5775000D03*
X60825000Y-3675000D03*
X55925000Y-3675000D03*
X55925000Y-5775000D03*
X55925000Y-7875000D03*
G04 #@! TD*
D10*
G04 #@! TO.C,KiKit_MB_12_4*
X116500000Y-54800000D03*
G04 #@! TD*
D12*
G04 #@! TO.C,R6*
X101043750Y-38818750D03*
X101043750Y-36818750D03*
G04 #@! TD*
D11*
G04 #@! TO.C,D1*
X78075000Y-64875000D03*
X78075000Y-62775000D03*
X78075000Y-60675000D03*
X73175000Y-60675000D03*
X73175000Y-62775000D03*
X73175000Y-64875000D03*
G04 #@! TD*
D10*
G04 #@! TO.C,KiKit_MB_13_2*
X65800000Y-69750000D03*
G04 #@! TD*
G04 #@! TO.C,KiKit_MB_11_2*
X102000000Y-54800000D03*
G04 #@! TD*
G04 #@! TO.C,KiKit_MB_8_2*
X68200000Y-28500000D03*
G04 #@! TD*
G04 #@! TO.C,KiKit_MB_4_5*
X14500000Y-54800000D03*
G04 #@! TD*
G04 #@! TO.C,KiKit_MB_13_3*
X65800000Y-70750000D03*
G04 #@! TD*
G04 #@! TO.C,KiKit_MB_11_5*
X99000000Y-54800000D03*
G04 #@! TD*
G04 #@! TO.C,KiKit_MB_8_3*
X68200000Y-27500000D03*
G04 #@! TD*
G04 #@! TO.C,KiKit_MB_2_5*
X65800000Y-29500000D03*
G04 #@! TD*
G04 #@! TO.C,KiKit_MB_15_2*
X65800000Y-97250000D03*
G04 #@! TD*
G04 #@! TO.C,KiKit_MB_21_3*
X68200000Y-98250000D03*
G04 #@! TD*
D12*
G04 #@! TO.C,R6*
X33043750Y-95818750D03*
X33043750Y-93818750D03*
G04 #@! TD*
D10*
G04 #@! TO.C,KiKit_MB_10_4*
X83500000Y-54800000D03*
G04 #@! TD*
D16*
G04 #@! TO.C,Q1*
X73375000Y-41100000D03*
X75275000Y-41100000D03*
X74325000Y-39225000D03*
G04 #@! TD*
D10*
G04 #@! TO.C,KiKit_MB_17_3*
X33000000Y-57200000D03*
G04 #@! TD*
G04 #@! TO.C,KiKit_MB_18_4*
X50500000Y-57200000D03*
G04 #@! TD*
G04 #@! TO.C,KiKit_MB_13_1*
X65800000Y-68750000D03*
G04 #@! TD*
G04 #@! TO.C,KiKit_MB_6_1*
X51500000Y-54800000D03*
G04 #@! TD*
G04 #@! TO.C,KiKit_MB_10_2*
X85500000Y-54800000D03*
G04 #@! TD*
G04 #@! TO.C,KiKit_MB_3_2*
X65800000Y-40250000D03*
G04 #@! TD*
D19*
G04 #@! TO.C,R7*
X103018750Y-95818750D03*
X103018750Y-93818750D03*
G04 #@! TD*
D10*
G04 #@! TO.C,KiKit_MB_1_2*
X65800000Y-12750000D03*
G04 #@! TD*
D12*
G04 #@! TO.C,R3*
X113875000Y-61887500D03*
X113875000Y-59887500D03*
G04 #@! TD*
G04 #@! TO.C,R6*
X33043750Y-38818750D03*
X33043750Y-36818750D03*
G04 #@! TD*
D10*
G04 #@! TO.C,KiKit_MB_23_1*
X99000000Y-57200000D03*
G04 #@! TD*
D19*
G04 #@! TO.C,R7*
X35018750Y-95818750D03*
X35018750Y-93818750D03*
G04 #@! TD*
D15*
G04 #@! TO.C,*
X121250000Y-95425000D03*
G04 #@! TD*
D17*
G04 #@! TO.C,BT1*
X13987500Y-47886433D03*
D18*
X58687500Y-47886433D03*
G04 #@! TD*
D10*
G04 #@! TO.C,KiKit_MB_1_4*
X65800000Y-14750000D03*
G04 #@! TD*
D20*
G04 #@! TO.C,SW1*
X3392500Y-27861433D03*
X1182500Y-27861433D03*
D21*
X2282500Y-30011433D03*
X2282500Y-33011433D03*
D20*
X3392500Y-35161433D03*
X1182500Y-35161433D03*
D22*
X4042500Y-29261433D03*
X4042500Y-32261433D03*
X4042500Y-33761433D03*
G04 #@! TD*
D12*
G04 #@! TO.C,R3*
X45875000Y-61887500D03*
X45875000Y-59887500D03*
G04 #@! TD*
D10*
G04 #@! TO.C,KiKit_MB_16_3*
X16500000Y-57200000D03*
G04 #@! TD*
D16*
G04 #@! TO.C,Q1*
X5375000Y-98100000D03*
X7275000Y-98100000D03*
X6325000Y-96225000D03*
G04 #@! TD*
D10*
G04 #@! TO.C,KiKit_MB_20_1*
X68200000Y-86500000D03*
G04 #@! TD*
G04 #@! TO.C,KiKit_MB_17_2*
X32000000Y-57200000D03*
G04 #@! TD*
G04 #@! TO.C,KiKit_MB_2_3*
X65800000Y-27500000D03*
G04 #@! TD*
D19*
G04 #@! TO.C,R5*
X104993750Y-95818750D03*
X104993750Y-93818750D03*
G04 #@! TD*
D10*
G04 #@! TO.C,KiKit_MB_5_1*
X35000000Y-54800000D03*
G04 #@! TD*
D19*
G04 #@! TO.C,R5*
X36993750Y-95818750D03*
X36993750Y-93818750D03*
G04 #@! TD*
G04 #@! TO.C,R2*
X117825000Y-4887500D03*
X117825000Y-2887500D03*
G04 #@! TD*
D10*
G04 #@! TO.C,KiKit_MB_4_4*
X15500000Y-54800000D03*
G04 #@! TD*
D12*
G04 #@! TO.C,R3*
X113875000Y-4887500D03*
X113875000Y-2887500D03*
G04 #@! TD*
D17*
G04 #@! TO.C,BT1*
X13987500Y-104886433D03*
D18*
X58687500Y-104886433D03*
G04 #@! TD*
D10*
G04 #@! TO.C,KiKit_MB_20_3*
X68200000Y-84500000D03*
G04 #@! TD*
G04 #@! TO.C,KiKit_MB_7_4*
X68200000Y-12750000D03*
G04 #@! TD*
D19*
G04 #@! TO.C,R5*
X36993750Y-38818750D03*
X36993750Y-36818750D03*
G04 #@! TD*
G04 #@! TO.C,R7*
X103018750Y-38818750D03*
X103018750Y-36818750D03*
G04 #@! TD*
D10*
G04 #@! TO.C,KiKit_MB_15_1*
X65800000Y-96250000D03*
G04 #@! TD*
D20*
G04 #@! TO.C,SW1*
X71392500Y-27861433D03*
X69182500Y-27861433D03*
D21*
X70282500Y-30011433D03*
X70282500Y-33011433D03*
D20*
X71392500Y-35161433D03*
X69182500Y-35161433D03*
D22*
X72042500Y-29261433D03*
X72042500Y-32261433D03*
X72042500Y-33761433D03*
G04 #@! TD*
D10*
G04 #@! TO.C,KiKit_MB_23_3*
X101000000Y-57200000D03*
G04 #@! TD*
D19*
G04 #@! TO.C,R4*
X47850000Y-61887500D03*
X47850000Y-59887500D03*
G04 #@! TD*
D10*
G04 #@! TO.C,KiKit_MB_3_5*
X65800000Y-43250000D03*
G04 #@! TD*
G04 #@! TO.C,KiKit_MB_24_5*
X119500000Y-57200000D03*
G04 #@! TD*
D19*
G04 #@! TO.C,R7*
X35018750Y-38818750D03*
X35018750Y-36818750D03*
G04 #@! TD*
D10*
G04 #@! TO.C,KiKit_MB_19_4*
X68200000Y-69750000D03*
G04 #@! TD*
G04 #@! TO.C,KiKit_MB_4_1*
X18500000Y-54800000D03*
G04 #@! TD*
D15*
G04 #@! TO.C,*
X33000000Y-3500000D03*
G04 #@! TD*
D10*
G04 #@! TO.C,KiKit_MB_9_3*
X68200000Y-41250000D03*
G04 #@! TD*
G04 #@! TO.C,KiKit_MB_22_1*
X82500000Y-57200000D03*
G04 #@! TD*
D15*
G04 #@! TO.C,*
X33000000Y-60500000D03*
G04 #@! TD*
D10*
G04 #@! TO.C,KiKit_MB_24_2*
X116500000Y-57200000D03*
G04 #@! TD*
D11*
G04 #@! TO.C,D3*
X60825000Y-64875000D03*
X60825000Y-62775000D03*
X60825000Y-60675000D03*
X55925000Y-60675000D03*
X55925000Y-62775000D03*
X55925000Y-64875000D03*
G04 #@! TD*
D10*
G04 #@! TO.C,KiKit_MB_9_1*
X68200000Y-43250000D03*
G04 #@! TD*
G04 #@! TO.C,KiKit_MB_13_5*
X65800000Y-72750000D03*
G04 #@! TD*
D19*
G04 #@! TO.C,R5*
X104993750Y-38818750D03*
X104993750Y-36818750D03*
G04 #@! TD*
D10*
G04 #@! TO.C,KiKit_MB_18_1*
X47500000Y-57200000D03*
G04 #@! TD*
G04 #@! TO.C,KiKit_MB_11_3*
X101000000Y-54800000D03*
G04 #@! TD*
G04 #@! TO.C,KiKit_MB_4_2*
X17500000Y-54800000D03*
G04 #@! TD*
D15*
G04 #@! TO.C,*
X12750000Y-95425000D03*
G04 #@! TD*
D10*
G04 #@! TO.C,KiKit_MB_11_1*
X103000000Y-54800000D03*
G04 #@! TD*
G04 #@! TO.C,KiKit_MB_18_5*
X51500000Y-57200000D03*
G04 #@! TD*
D15*
G04 #@! TO.C,*
X12750000Y-38425000D03*
G04 #@! TD*
D10*
G04 #@! TO.C,KiKit_MB_6_4*
X48500000Y-54800000D03*
G04 #@! TD*
G04 #@! TO.C,KiKit_MB_22_2*
X83500000Y-57200000D03*
G04 #@! TD*
G04 #@! TO.C,KiKit_MB_13_4*
X65800000Y-71750000D03*
G04 #@! TD*
D11*
G04 #@! TO.C,D1*
X10075000Y-7875000D03*
X10075000Y-5775000D03*
X10075000Y-3675000D03*
X5175000Y-3675000D03*
X5175000Y-5775000D03*
X5175000Y-7875000D03*
G04 #@! TD*
D10*
G04 #@! TO.C,KiKit_MB_1_1*
X65800000Y-11750000D03*
G04 #@! TD*
G04 #@! TO.C,KiKit_MB_16_2*
X15500000Y-57200000D03*
G04 #@! TD*
D14*
G04 #@! TO.C,R1*
X3600000Y-95487500D03*
X3600000Y-97487500D03*
G04 #@! TD*
D10*
G04 #@! TO.C,KiKit_MB_23_2*
X100000000Y-57200000D03*
G04 #@! TD*
G04 #@! TO.C,KiKit_MB_8_4*
X68200000Y-26500000D03*
G04 #@! TD*
G04 #@! TO.C,KiKit_MB_16_1*
X14500000Y-57200000D03*
G04 #@! TD*
D16*
G04 #@! TO.C,Q1*
X73375000Y-98100000D03*
X75275000Y-98100000D03*
X74325000Y-96225000D03*
G04 #@! TD*
D10*
G04 #@! TO.C,KiKit_MB_7_1*
X68200000Y-15750000D03*
G04 #@! TD*
G04 #@! TO.C,KiKit_MB_21_4*
X68200000Y-97250000D03*
G04 #@! TD*
D19*
G04 #@! TO.C,R4*
X115850000Y-4887500D03*
X115850000Y-2887500D03*
G04 #@! TD*
D10*
G04 #@! TO.C,KiKit_MB_11_4*
X100000000Y-54800000D03*
G04 #@! TD*
G04 #@! TO.C,KiKit_MB_10_3*
X84500000Y-54800000D03*
G04 #@! TD*
D15*
G04 #@! TO.C,*
X121250000Y-38425000D03*
G04 #@! TD*
D20*
G04 #@! TO.C,SW1*
X3392500Y-84861433D03*
X1182500Y-84861433D03*
D21*
X2282500Y-87011433D03*
X2282500Y-90011433D03*
D20*
X3392500Y-92161433D03*
X1182500Y-92161433D03*
D22*
X4042500Y-86261433D03*
X4042500Y-89261433D03*
X4042500Y-90761433D03*
G04 #@! TD*
D10*
G04 #@! TO.C,KiKit_MB_2_2*
X65800000Y-26500000D03*
G04 #@! TD*
G04 #@! TO.C,KiKit_MB_6_5*
X47500000Y-54800000D03*
G04 #@! TD*
G04 #@! TO.C,KiKit_MB_20_5*
X68200000Y-82500000D03*
G04 #@! TD*
G04 #@! TO.C,KiKit_MB_14_1*
X65800000Y-82500000D03*
G04 #@! TD*
D14*
G04 #@! TO.C,R1*
X71600000Y-38487500D03*
X71600000Y-40487500D03*
G04 #@! TD*
D10*
G04 #@! TO.C,KiKit_MB_19_1*
X68200000Y-72750000D03*
G04 #@! TD*
G04 #@! TO.C,KiKit_MB_17_1*
X31000000Y-57200000D03*
G04 #@! TD*
G04 #@! TO.C,KiKit_MB_3_4*
X65800000Y-42250000D03*
G04 #@! TD*
D12*
G04 #@! TO.C,R6*
X101043750Y-95818750D03*
X101043750Y-93818750D03*
G04 #@! TD*
D15*
G04 #@! TO.C,*
X53250000Y-95425000D03*
G04 #@! TD*
D10*
G04 #@! TO.C,KiKit_MB_7_5*
X68200000Y-11750000D03*
G04 #@! TD*
G04 #@! TO.C,KiKit_MB_19_3*
X68200000Y-70750000D03*
G04 #@! TD*
G04 #@! TO.C,KiKit_MB_15_4*
X65800000Y-99250000D03*
G04 #@! TD*
D20*
G04 #@! TO.C,SW1*
X71392500Y-84861433D03*
X69182500Y-84861433D03*
D21*
X70282500Y-87011433D03*
X70282500Y-90011433D03*
D20*
X71392500Y-92161433D03*
X69182500Y-92161433D03*
D22*
X72042500Y-86261433D03*
X72042500Y-89261433D03*
X72042500Y-90761433D03*
G04 #@! TD*
D10*
G04 #@! TO.C,KiKit_MB_7_2*
X68200000Y-14750000D03*
G04 #@! TD*
D11*
G04 #@! TO.C,D2*
X88925000Y-39575000D03*
X88925000Y-37475000D03*
X88925000Y-35375000D03*
X84025000Y-35375000D03*
X84025000Y-37475000D03*
X84025000Y-39575000D03*
G04 #@! TD*
D10*
G04 #@! TO.C,KiKit_MB_9_4*
X68200000Y-40250000D03*
G04 #@! TD*
G04 #@! TO.C,KiKit_MB_3_3*
X65800000Y-41250000D03*
G04 #@! TD*
G04 #@! TO.C,KiKit_MB_10_5*
X82500000Y-54800000D03*
G04 #@! TD*
D11*
G04 #@! TO.C,D4*
X50025000Y-39575000D03*
X50025000Y-37475000D03*
X50025000Y-35375000D03*
X45125000Y-35375000D03*
X45125000Y-37475000D03*
X45125000Y-39575000D03*
G04 #@! TD*
D10*
G04 #@! TO.C,KiKit_MB_5_5*
X31000000Y-54800000D03*
G04 #@! TD*
D17*
G04 #@! TO.C,BT1*
X81987500Y-47886433D03*
D18*
X126687500Y-47886433D03*
G04 #@! TD*
D19*
G04 #@! TO.C,R2*
X49825000Y-4887500D03*
X49825000Y-2887500D03*
G04 #@! TD*
D10*
G04 #@! TO.C,KiKit_MB_5_2*
X34000000Y-54800000D03*
G04 #@! TD*
G04 #@! TO.C,KiKit_MB_4_3*
X16500000Y-54800000D03*
G04 #@! TD*
G04 #@! TO.C,KiKit_MB_9_2*
X68200000Y-42250000D03*
G04 #@! TD*
G04 #@! TO.C,KiKit_MB_21_2*
X68200000Y-99250000D03*
G04 #@! TD*
D11*
G04 #@! TO.C,D3*
X128825000Y-7875000D03*
X128825000Y-5775000D03*
X128825000Y-3675000D03*
X123925000Y-3675000D03*
X123925000Y-5775000D03*
X123925000Y-7875000D03*
G04 #@! TD*
D19*
G04 #@! TO.C,R4*
X115850000Y-61887500D03*
X115850000Y-59887500D03*
G04 #@! TD*
D10*
G04 #@! TO.C,KiKit_MB_14_4*
X65800000Y-85500000D03*
G04 #@! TD*
G04 #@! TO.C,KiKit_MB_21_1*
X68200000Y-100250000D03*
G04 #@! TD*
D15*
G04 #@! TO.C,*
X101000000Y-60500000D03*
G04 #@! TD*
D10*
G04 #@! TO.C,KiKit_MB_14_5*
X65800000Y-86500000D03*
G04 #@! TD*
G04 #@! TO.C,KiKit_MB_2_1*
X65800000Y-25500000D03*
G04 #@! TD*
G04 #@! TO.C,KiKit_MB_21_5*
X68200000Y-96250000D03*
G04 #@! TD*
D11*
G04 #@! TO.C,D1*
X10075000Y-64875000D03*
X10075000Y-62775000D03*
X10075000Y-60675000D03*
X5175000Y-60675000D03*
X5175000Y-62775000D03*
X5175000Y-64875000D03*
G04 #@! TD*
D14*
G04 #@! TO.C,R1*
X3600000Y-38487500D03*
X3600000Y-40487500D03*
G04 #@! TD*
D10*
G04 #@! TO.C,KiKit_MB_24_4*
X118500000Y-57200000D03*
G04 #@! TD*
G04 #@! TO.C,KiKit_MB_8_1*
X68200000Y-29500000D03*
G04 #@! TD*
G04 #@! TO.C,KiKit_MB_1_3*
X65800000Y-13750000D03*
G04 #@! TD*
G04 #@! TO.C,KiKit_MB_15_5*
X65800000Y-100250000D03*
G04 #@! TD*
G04 #@! TO.C,KiKit_MB_6_3*
X49500000Y-54800000D03*
G04 #@! TD*
D13*
G04 #@! TO.C,L1*
X7787500Y-43886433D03*
X4787500Y-43886433D03*
X4787500Y-50386433D03*
X7787500Y-50386433D03*
G04 #@! TD*
D10*
G04 #@! TO.C,KiKit_MB_15_3*
X65800000Y-98250000D03*
G04 #@! TD*
G36*
X63467417Y-9094685D02*
G01*
X63513172Y-9147489D01*
X63524376Y-9199621D01*
X63400618Y-33901621D01*
X63380598Y-33968561D01*
X63327566Y-34014051D01*
X63276620Y-34025000D01*
X6051431Y-34025000D01*
X5984392Y-34005315D01*
X5938637Y-33952511D01*
X5927454Y-33898593D01*
X6074999Y-26300000D01*
X2723461Y-26300000D01*
X2656422Y-26280315D01*
X2610667Y-26227511D01*
X2599462Y-26176540D01*
X2525542Y-9199540D01*
X2544935Y-9132415D01*
X2597539Y-9086431D01*
X2649541Y-9075000D01*
X63400378Y-9075000D01*
X63467417Y-9094685D01*
G37*
G36*
X63467417Y-66094685D02*
G01*
X63513172Y-66147489D01*
X63524376Y-66199621D01*
X63400618Y-90901621D01*
X63380598Y-90968561D01*
X63327566Y-91014051D01*
X63276620Y-91025000D01*
X6051431Y-91025000D01*
X5984392Y-91005315D01*
X5938637Y-90952511D01*
X5927454Y-90898593D01*
X6074999Y-83300000D01*
X2723461Y-83300000D01*
X2656422Y-83280315D01*
X2610667Y-83227511D01*
X2599462Y-83176540D01*
X2525542Y-66199540D01*
X2544935Y-66132415D01*
X2597539Y-66086431D01*
X2649541Y-66075000D01*
X63400378Y-66075000D01*
X63467417Y-66094685D01*
G37*
G36*
X131467417Y-9094685D02*
G01*
X131513172Y-9147489D01*
X131524376Y-9199621D01*
X131400618Y-33901621D01*
X131380598Y-33968561D01*
X131327566Y-34014051D01*
X131276620Y-34025000D01*
X74051431Y-34025000D01*
X73984392Y-34005315D01*
X73938637Y-33952511D01*
X73927454Y-33898593D01*
X74074999Y-26300000D01*
X70723461Y-26300000D01*
X70656422Y-26280315D01*
X70610667Y-26227511D01*
X70599462Y-26176540D01*
X70525542Y-9199540D01*
X70544935Y-9132415D01*
X70597539Y-9086431D01*
X70649541Y-9075000D01*
X131400378Y-9075000D01*
X131467417Y-9094685D01*
G37*
G36*
X131467417Y-66094685D02*
G01*
X131513172Y-66147489D01*
X131524376Y-66199621D01*
X131400618Y-90901621D01*
X131380598Y-90968561D01*
X131327566Y-91014051D01*
X131276620Y-91025000D01*
X74051431Y-91025000D01*
X73984392Y-91005315D01*
X73938637Y-90952511D01*
X73927454Y-90898593D01*
X74074999Y-83300000D01*
X70723461Y-83300000D01*
X70656422Y-83280315D01*
X70610667Y-83227511D01*
X70599462Y-83176540D01*
X70525542Y-66199540D01*
X70544935Y-66132415D01*
X70597539Y-66086431D01*
X70649541Y-66075000D01*
X131400378Y-66075000D01*
X131467417Y-66094685D01*
G37*
M02*
