G04 #@! TF.GenerationSoftware,KiCad,Pcbnew,8.0.3-8.0.3-0~ubuntu24.04.1*
G04 #@! TF.CreationDate,2024-07-21T14:04:27+02:00*
G04 #@! TF.ProjectId,panel,70616e65-6c2e-46b6-9963-61645f706362,rev?*
G04 #@! TF.SameCoordinates,Original*
G04 #@! TF.FileFunction,Profile,NP*
%FSLAX46Y46*%
G04 Gerber Fmt 4.6, Leading zero omitted, Abs format (unit mm)*
G04 Created by KiCad (PCBNEW 8.0.3-8.0.3-0~ubuntu24.04.1) date 2024-07-21 14:04:27*
%MOMM*%
%LPD*%
G01*
G04 APERTURE LIST*
G04 #@! TA.AperFunction,Profile*
%ADD10C,0.100000*%
G04 #@! TD*
G04 APERTURE END LIST*
D10*
X66999012Y-99750000D02*
X67000987Y-99750000D01*
X66004810Y-100651080D02*
X66010812Y-100602416D01*
X59893Y-107769608D02*
X100115Y-107994022D01*
X64435434Y-1367543D02*
X64266262Y-1214702D01*
X115337552Y-56941602D02*
X115290994Y-56956983D01*
X99241209Y-55328112D02*
X99273237Y-55365241D01*
X68024693Y-50493235D02*
X68027251Y-50518383D01*
X7379Y-107265877D02*
X24691Y-107493209D01*
X66901080Y-15254810D02*
X66949981Y-15251203D01*
X66756262Y-29029939D02*
X66804104Y-29019195D01*
X66142129Y-11764588D02*
X66117960Y-11721925D01*
X68889225Y-52845784D02*
X68903666Y-52866531D01*
X69198203Y-58752955D02*
X69054127Y-58929651D01*
X14383300Y-56923955D02*
X14337552Y-56941602D01*
X3981166Y-105213D02*
X3759077Y-156750D01*
X31441602Y-56337552D02*
X31423955Y-56383300D01*
X51949981Y-56998796D02*
X51901080Y-56995189D01*
X67741209Y-100078112D02*
X67773237Y-100115241D01*
X99207399Y-55292600D02*
X99241209Y-55328112D01*
X102668362Y-56556014D02*
X102642129Y-56514588D01*
X68307150Y-108724562D02*
X68315929Y-108748267D01*
X66258790Y-11921887D02*
X66226762Y-11884758D01*
X18226762Y-55365241D02*
X18258790Y-55328112D01*
X67243737Y-39720060D02*
X67195895Y-39730804D01*
X82556014Y-55168362D02*
X82596103Y-55196595D01*
X66756262Y-69220060D02*
X66709005Y-69206983D01*
X65999839Y-50006319D02*
X65999999Y-49993678D01*
X64266243Y-58214685D02*
X64247063Y-58198219D01*
X66258790Y-29328112D02*
X66292600Y-29292600D01*
X66571872Y-72345914D02*
X66616699Y-72326044D01*
X66258790Y-82671887D02*
X66226762Y-82634758D01*
X115290994Y-56956983D02*
X115243737Y-56970060D01*
X14671887Y-56741209D02*
X14634758Y-56773237D01*
X133975308Y-50493209D02*
X133992620Y-50265877D01*
X66365241Y-72476762D02*
X66403896Y-72446595D01*
X131415303Y-111377586D02*
X131437405Y-111365319D01*
X66662447Y-82941602D02*
X66616699Y-82923955D01*
X82882039Y-56471925D02*
X82857870Y-56514588D01*
X51196595Y-55403896D02*
X51226762Y-55365241D01*
X130983267Y-57410489D02*
X130960038Y-57400521D01*
X66001203Y-25050018D02*
X66000000Y-25000987D01*
X82596103Y-56803404D02*
X82556014Y-56831637D01*
X99382039Y-55528074D02*
X99404085Y-55571872D01*
X67514588Y-29142129D02*
X67556014Y-29168362D01*
X65774174Y-3515339D02*
X65766606Y-3491221D01*
X131437427Y-111365306D02*
X131633902Y-111249647D01*
X68000160Y-4993680D02*
X68000000Y-5006321D01*
X67050018Y-86001203D02*
X67098919Y-86004810D01*
X68000000Y-62006333D02*
X68000000Y-68250987D01*
X63190459Y-57505688D02*
X62983290Y-57410500D01*
X66443985Y-86168362D02*
X66485411Y-86142129D01*
X103028074Y-55117960D02*
X103071872Y-55095914D01*
X67989187Y-95897583D02*
X67980804Y-95945895D01*
X67098919Y-42754810D02*
X67147583Y-42760812D01*
X119010812Y-56147583D02*
X119004810Y-56098919D01*
X67556014Y-86168362D02*
X67596103Y-86196595D01*
X133692849Y-60275437D02*
X133684070Y-60251732D01*
X18142129Y-56514588D02*
X18117960Y-56471925D01*
X66949981Y-25998796D02*
X66901080Y-25995189D01*
X133483157Y-2786800D02*
X133377598Y-2584718D01*
X14970060Y-56243737D02*
X14956983Y-56290994D01*
X62484660Y-111774174D02*
X62508778Y-111766606D01*
X64247044Y-58198203D02*
X64070348Y-58054127D01*
X4759418Y-111993903D02*
X4993668Y-111999839D01*
X67000987Y-72250000D02*
X67050018Y-72251203D01*
X65899884Y-50994022D02*
X65940106Y-50769608D01*
X30598919Y-56995189D02*
X30550018Y-56998796D01*
X18949981Y-56998796D02*
X18901080Y-56995189D01*
X18999012Y-55000000D02*
X30500987Y-55000000D01*
X103401080Y-55004810D02*
X103449981Y-55001203D01*
X68634680Y-59562594D02*
X68622413Y-59584696D01*
X3759077Y-111843249D02*
X3981166Y-111894786D01*
X30928127Y-55095914D02*
X30971925Y-55117960D01*
X18662447Y-56941602D02*
X18616699Y-56923955D01*
X66901080Y-86004810D02*
X66949981Y-86001203D01*
X66949981Y-99751203D02*
X66999012Y-99750000D01*
X3251732Y-54684070D02*
X3275437Y-54692849D01*
X132247063Y-110801780D02*
X132266243Y-110785314D01*
X82998796Y-56050018D02*
X82995189Y-56098919D01*
X66019195Y-29804104D02*
X66029939Y-29756262D01*
X18662447Y-55058397D02*
X18709005Y-55043016D01*
X64961376Y-53050318D02*
X65096319Y-52866552D01*
X133589510Y-108983267D02*
X133599478Y-108960038D01*
X66043016Y-68540994D02*
X66029939Y-68493737D01*
X66616699Y-86076044D02*
X66662447Y-86058397D01*
X115956983Y-55709005D02*
X115970060Y-55756262D01*
X86043016Y-56290994D02*
X86029939Y-56243737D01*
X67831637Y-86443985D02*
X67857870Y-86485411D01*
X67956983Y-11540994D02*
X67941602Y-11587552D01*
X65774181Y-108484636D02*
X65836900Y-108265442D01*
X66000000Y-11250987D02*
X66000000Y-5006333D01*
X18000000Y-55999012D02*
X18001203Y-55949981D01*
X1949660Y-58038638D02*
X1929671Y-58054111D01*
X34726762Y-55365241D02*
X34758790Y-55328112D01*
X133943942Y-50744572D02*
X133972746Y-50518408D01*
X67290994Y-72293016D02*
X67337552Y-72308397D01*
X66168362Y-43193985D02*
X66196595Y-43153896D01*
X98500987Y-57000000D02*
X86999012Y-57000000D01*
X14471925Y-56882039D02*
X14428127Y-56904085D01*
X68315929Y-3251732D02*
X68307150Y-3275437D01*
X31500000Y-56000987D02*
X31498796Y-56050018D01*
X115514588Y-56857870D02*
X115471925Y-56882039D01*
X128993678Y-111999999D02*
X129006319Y-111999839D01*
X132615006Y-1546207D02*
X132453792Y-1384993D01*
X1367560Y-53435453D02*
X1384976Y-53453774D01*
X102529939Y-56243737D02*
X102519195Y-56195895D01*
X66142129Y-25514588D02*
X66117960Y-25471925D01*
X2344623Y-111236263D02*
X2366075Y-111249634D01*
X66901080Y-29004810D02*
X66949981Y-29001203D01*
X102985411Y-55142129D02*
X103028074Y-55117960D01*
X66485411Y-96607870D02*
X66443985Y-96581637D01*
X67989187Y-16102416D02*
X67995189Y-16151080D01*
X67556014Y-39581637D02*
X67514588Y-39607870D01*
X2154215Y-889225D02*
X2133468Y-903666D01*
X34985411Y-55142129D02*
X35028074Y-55117960D01*
X505688Y-2809540D02*
X410500Y-3016709D01*
X103449981Y-55001203D02*
X103499012Y-55000000D01*
X71491196Y-233401D02*
X71275461Y-307141D01*
X14956983Y-55709005D02*
X14970060Y-55756262D01*
X3981191Y-111894791D02*
X4005952Y-111899879D01*
X66709005Y-72293016D02*
X66756262Y-72279939D01*
X65836907Y-108265417D02*
X65843243Y-108240946D01*
X31096103Y-55196595D02*
X31134758Y-55226762D01*
X67923955Y-43366699D02*
X67941602Y-43412447D01*
X66528074Y-72367960D02*
X66571872Y-72345914D01*
X1038638Y-110050339D02*
X1054111Y-110070328D01*
X66709005Y-12206983D02*
X66662447Y-12191602D01*
X66328112Y-15508790D02*
X66365241Y-15476762D01*
X86010812Y-55852416D02*
X86019195Y-55804104D01*
X67989187Y-43602416D02*
X67995189Y-43651080D01*
X34668362Y-56556014D02*
X34642129Y-56514588D01*
X99500000Y-56000987D02*
X99498796Y-56050018D01*
X2344602Y-57763750D02*
X2154236Y-57889211D01*
X66019195Y-25195895D02*
X66010812Y-25147583D01*
X67147583Y-69239187D02*
X67098919Y-69245189D01*
X67383300Y-39673955D02*
X67337552Y-39691602D01*
X67471925Y-72367960D02*
X67514588Y-72392129D01*
X131845784Y-54110774D02*
X131866531Y-54096333D01*
X68000000Y-82000987D02*
X67998796Y-82050018D01*
X69752936Y-1198219D02*
X69733756Y-1214685D01*
X67923955Y-100366699D02*
X67941602Y-100412447D01*
X34828112Y-55258790D02*
X34865241Y-55226762D01*
X67671887Y-100008790D02*
X67707399Y-100042600D01*
X66616699Y-42826044D02*
X66662447Y-42808397D01*
X67995189Y-95848919D02*
X67989187Y-95897583D01*
X68225818Y-60515363D02*
X68163099Y-60734557D01*
X98790994Y-55043016D02*
X98837552Y-55058397D01*
X14337552Y-55058397D02*
X14383300Y-55076044D01*
X4005977Y-54899884D02*
X4230391Y-54940106D01*
X66616699Y-82923955D02*
X66571872Y-82904085D01*
X47995189Y-55901080D02*
X47998796Y-55949981D01*
X67857870Y-96264588D02*
X67831637Y-96306014D01*
X66616699Y-25923955D02*
X66571872Y-25904085D01*
X18258790Y-56671887D02*
X18226762Y-56634758D01*
X66010812Y-73102416D02*
X66019195Y-73054104D01*
X65894791Y-108018808D02*
X65899879Y-107994047D01*
X66117960Y-86528074D02*
X66142129Y-86485411D01*
X18043016Y-55709005D02*
X18058397Y-55662447D01*
X18999012Y-57000000D02*
X18949981Y-56998796D01*
X68100115Y-4005977D02*
X68059893Y-4230391D01*
X67556014Y-12081637D02*
X67514588Y-12107870D01*
X4230416Y-111940110D02*
X4255402Y-111943938D01*
X66804104Y-69230804D02*
X66756262Y-69220060D01*
X82000987Y-57000000D02*
X73006333Y-57000000D01*
X67773237Y-100115241D02*
X67803404Y-100153896D01*
X86485411Y-55142129D02*
X86528074Y-55117960D01*
X119226762Y-55365241D02*
X119258790Y-55328112D01*
X18004810Y-55901080D02*
X18010812Y-55852416D01*
X65940106Y-61230391D02*
X65899884Y-61005977D01*
X82556014Y-56831637D02*
X82514588Y-56857870D01*
X131213199Y-54483157D02*
X131415281Y-54377598D01*
X62484636Y-57225818D02*
X62265442Y-57163099D01*
X66168362Y-72693985D02*
X66196595Y-72653896D01*
X65249647Y-52633902D02*
X65365306Y-52437427D01*
X65236263Y-109655376D02*
X65249634Y-109633924D01*
X14290994Y-55043016D02*
X14337552Y-55058397D01*
X35304104Y-56980804D02*
X35256262Y-56970060D01*
X72993680Y-111999839D02*
X73006321Y-111999999D01*
X63437405Y-57634680D02*
X63415303Y-57622413D01*
X66226762Y-11884758D02*
X66196595Y-11846103D01*
X62018808Y-105208D02*
X61994047Y-100120D01*
X68006096Y-61759418D02*
X68000160Y-61993668D01*
X115428127Y-55095914D02*
X115471925Y-55117960D01*
X67556014Y-82831637D02*
X67514588Y-82857870D01*
X67098919Y-29004810D02*
X67147583Y-29010812D01*
X130724562Y-54692849D02*
X130748267Y-54684070D01*
X14803404Y-55403896D02*
X14831637Y-55443985D01*
X66709005Y-42793016D02*
X66756262Y-42779939D01*
X67980804Y-43554104D02*
X67989187Y-43602416D01*
X62018808Y-57105208D02*
X61994047Y-57100120D01*
X66616699Y-15326044D02*
X66662447Y-15308397D01*
X66000000Y-106993666D02*
X66000000Y-100749012D01*
X30500987Y-55000000D02*
X30550018Y-55001203D01*
X66019195Y-82195895D02*
X66010812Y-82147583D01*
X18010812Y-56147583D02*
X18004810Y-56098919D01*
X18117960Y-56471925D02*
X18095914Y-56428127D01*
X67707399Y-25707399D02*
X67671887Y-25741209D01*
X67428127Y-25904085D02*
X67383300Y-25923955D01*
X68105213Y-108018833D02*
X68156750Y-108240922D01*
X66001203Y-43699981D02*
X66004810Y-43651080D01*
X18142129Y-55485411D02*
X18168362Y-55443985D01*
X163099Y-51265442D02*
X225818Y-51484636D01*
X66142129Y-43235411D02*
X66168362Y-43193985D01*
X750365Y-109633924D02*
X763736Y-109655376D01*
X60993666Y0D02*
X5006333Y0D01*
X67980804Y-73054104D02*
X67989187Y-73102416D01*
X51403896Y-55196595D02*
X51443985Y-55168362D01*
X3515339Y-225825D02*
X3491221Y-233393D01*
X14514588Y-55142129D02*
X14556014Y-55168362D01*
X67195895Y-25980804D02*
X67147583Y-25989187D01*
X31382039Y-55528074D02*
X31404085Y-55571872D01*
X130484636Y-57225818D02*
X130265442Y-57163099D01*
X3016709Y-410500D02*
X2809540Y-505688D01*
X66328112Y-39491209D02*
X66292600Y-39457399D01*
X103071872Y-56904085D02*
X103028074Y-56882039D01*
X67290994Y-99793016D02*
X67337552Y-99808397D01*
X98743737Y-56970060D02*
X98695895Y-56980804D01*
X67904085Y-15821872D02*
X67923955Y-15866699D01*
X68056061Y-50744597D02*
X68059889Y-50769583D01*
X18709005Y-55043016D02*
X18756262Y-55029939D01*
X30500987Y-57000000D02*
X18999012Y-57000000D01*
X47773237Y-55365241D02*
X47803404Y-55403896D01*
X14596103Y-56803404D02*
X14556014Y-56831637D01*
X4993668Y-57000160D02*
X4759418Y-57006096D01*
X130748290Y-54684061D02*
X130960014Y-54599488D01*
X133836907Y-108265417D02*
X133843243Y-108240946D01*
X65483157Y-2786800D02*
X65377598Y-2584718D01*
X31331637Y-55443985D02*
X31357870Y-55485411D01*
X99014588Y-56857870D02*
X98971925Y-56882039D01*
X119168362Y-55443985D02*
X119196595Y-55403896D01*
X315929Y-3251732D02*
X307150Y-3275437D01*
X67471925Y-86117960D02*
X67514588Y-86142129D01*
X65692858Y-108724538D02*
X65766598Y-108508803D01*
X233401Y-51508803D02*
X307141Y-51724538D01*
X115941602Y-55662447D02*
X115956983Y-55709005D01*
X66142129Y-15735411D02*
X66168362Y-15693985D01*
X67195895Y-99769195D02*
X67243737Y-99779939D01*
X4255427Y-111943942D02*
X4481591Y-111972746D01*
X67857870Y-11764588D02*
X67831637Y-11806014D01*
X129006319Y-160D02*
X128993678Y0D01*
X132785314Y-53266243D02*
X132801780Y-53247063D01*
X51328112Y-56741209D02*
X51292600Y-56707399D01*
X82337552Y-55058397D02*
X82383300Y-55076044D01*
X66756262Y-86029939D02*
X66804104Y-86019195D01*
X102595914Y-56428127D02*
X102576044Y-56383300D01*
X64615023Y-53453774D02*
X64632439Y-53435453D01*
X66949981Y-72251203D02*
X66999012Y-72250000D01*
X31303404Y-55403896D02*
X31331637Y-55443985D01*
X71734557Y-57163099D02*
X71515363Y-57225818D01*
X70133468Y-54096333D02*
X70154215Y-54110774D01*
X131415281Y-622401D02*
X131213199Y-516842D01*
X130508778Y-57233393D02*
X130484660Y-57225825D01*
X99470060Y-55756262D02*
X99480804Y-55804104D01*
X67556014Y-99918362D02*
X67596103Y-99946595D01*
X99495189Y-56098919D02*
X99489187Y-56147583D01*
X67050018Y-29001203D02*
X67098919Y-29004810D01*
X62265417Y-163092D02*
X62240946Y-156756D01*
X66365241Y-99976762D02*
X66403896Y-99946595D01*
X61994047Y-111899879D02*
X62018808Y-111894791D01*
X30695895Y-56980804D02*
X30647583Y-56989187D01*
X66095914Y-82428127D02*
X66076044Y-82383300D01*
X51804104Y-56980804D02*
X51756262Y-56970060D01*
X62508803Y-111766598D02*
X62724538Y-111692858D01*
X62724538Y-307141D02*
X62508803Y-233401D01*
X61994022Y-100115D02*
X61769608Y-59893D01*
X66571872Y-99845914D02*
X66616699Y-99826044D01*
X69038638Y-53050339D02*
X69054111Y-53070328D01*
X133894786Y-3981166D02*
X133843249Y-3759077D01*
X83000000Y-56000987D02*
X82998796Y-56050018D01*
X72230416Y-54940110D02*
X72255402Y-54943938D01*
X1546207Y-58384993D02*
X1384993Y-58546207D01*
X66403896Y-12053404D02*
X66365241Y-12023237D01*
X62724562Y-111692849D02*
X62748267Y-111684070D01*
X67741209Y-68921887D02*
X67707399Y-68957399D01*
X82428127Y-56904085D02*
X82383300Y-56923955D01*
X66571872Y-42845914D02*
X66616699Y-42826044D01*
X71981166Y-105213D02*
X71759077Y-156750D01*
X70133447Y-903680D02*
X69949681Y-1038623D01*
X67904085Y-96178127D02*
X67882039Y-96221925D01*
X102865241Y-56773237D02*
X102828112Y-56741209D01*
X133894786Y-60981166D02*
X133843249Y-60759077D01*
X115147583Y-55010812D02*
X115195895Y-55019195D01*
X66258790Y-25671887D02*
X66226762Y-25634758D01*
X133999839Y-50006319D02*
X133999999Y-49993678D01*
X102617960Y-56471925D02*
X102595914Y-56428127D01*
X67707399Y-11957399D02*
X67671887Y-11991209D01*
X70366097Y-111249647D02*
X70562572Y-111365306D01*
X505699Y-109190482D02*
X516831Y-109213176D01*
X18168362Y-56556014D02*
X18142129Y-56514588D01*
X102576044Y-55616699D02*
X102595914Y-55571872D01*
X24693Y-107493235D02*
X27251Y-107518383D01*
X14989187Y-55852416D02*
X14995189Y-55901080D01*
X67050018Y-96748796D02*
X67000987Y-96750000D01*
X66043016Y-82290994D02*
X66029939Y-82243737D01*
X69214685Y-58733756D02*
X69198219Y-58752936D01*
X70809540Y-54494311D02*
X71016709Y-54589499D01*
X35209005Y-56956983D02*
X35162447Y-56941602D01*
X65494300Y-2809517D02*
X65483168Y-2786823D01*
X163092Y-60734582D02*
X156756Y-60759053D01*
X82741209Y-56671887D02*
X82707399Y-56707399D01*
X18076044Y-55616699D02*
X18095914Y-55571872D01*
X115998796Y-55949981D02*
X116000000Y-55999012D01*
X69054111Y-1929671D02*
X69038638Y-1949660D01*
X66019195Y-38945895D02*
X66010812Y-38897583D01*
X66528074Y-39632039D02*
X66485411Y-39607870D01*
X1367543Y-58564565D02*
X1214702Y-58733737D01*
X14831637Y-55443985D02*
X14857870Y-55485411D01*
X34504810Y-55901080D02*
X34510812Y-55852416D01*
X68763736Y-59344623D02*
X68750365Y-59366075D01*
X67970060Y-68493737D02*
X67956983Y-68540994D01*
X129265852Y-7377D02*
X129240606Y-6097D01*
X34500000Y-56000987D02*
X34500000Y-55999012D01*
X67147583Y-15260812D02*
X67195895Y-15269195D01*
X66168362Y-82556014D02*
X66142129Y-82514588D01*
X233393Y-3491221D02*
X225825Y-3515339D01*
X130240946Y-54843243D02*
X130265417Y-54836907D01*
X4993680Y-111999839D02*
X5006321Y-111999999D01*
X99241209Y-56671887D02*
X99207399Y-56707399D01*
X115882039Y-55528074D02*
X115904085Y-55571872D01*
X66010812Y-11397583D02*
X66004810Y-11348919D01*
X67980804Y-25195895D02*
X67970060Y-25243737D01*
X64070348Y-110945872D02*
X64247044Y-110801796D01*
X63415281Y-622401D02*
X63213199Y-516842D01*
X2133447Y-903680D02*
X1949681Y-1038623D01*
X68156756Y-108240946D02*
X68163092Y-108265417D01*
X133249634Y-2366075D02*
X133236263Y-2344623D01*
X102501203Y-56050018D02*
X102500000Y-56000987D01*
X14000987Y-55000000D02*
X14050018Y-55001203D01*
X99056014Y-55168362D02*
X99096103Y-55196595D01*
X410500Y-108983290D02*
X505688Y-109190459D01*
X1564546Y-1367560D02*
X1546225Y-1384976D01*
X132050318Y-58038623D02*
X131866552Y-57903680D01*
X18709005Y-56956983D02*
X18662447Y-56941602D01*
X133684070Y-51748267D02*
X133692849Y-51724562D01*
X115970060Y-56243737D02*
X115956983Y-56290994D01*
X133377598Y-52415281D02*
X133483157Y-52213199D01*
X68100120Y-107994047D02*
X68105208Y-108018808D01*
X71275437Y-57307150D02*
X71251732Y-57315929D01*
X51168362Y-56556014D02*
X51142129Y-56514588D01*
X63190459Y-505688D02*
X62983290Y-410500D01*
X133494311Y-109190459D02*
X133589499Y-108983290D01*
X67989187Y-38897583D02*
X67980804Y-38945895D01*
X63845784Y-54110774D02*
X63866531Y-54096333D01*
X69929651Y-1054127D02*
X69752955Y-1198203D01*
X115803404Y-55403896D02*
X115831637Y-55443985D01*
X903680Y-109866552D02*
X1038623Y-110050318D01*
X66058397Y-72912447D02*
X66076044Y-72866699D01*
X65599478Y-3039961D02*
X65589510Y-3016732D01*
X68400521Y-51960038D02*
X68410489Y-51983267D01*
X82383300Y-56923955D02*
X82337552Y-56941602D01*
X0Y-49993678D02*
X160Y-50006319D01*
X59893Y-50769608D02*
X100115Y-50994022D01*
X66019195Y-73054104D02*
X66029939Y-73006262D01*
X66117960Y-15778074D02*
X66142129Y-15735411D01*
X72255427Y-111943942D02*
X72481591Y-111972746D01*
X66365241Y-96523237D02*
X66328112Y-96491209D01*
X66485411Y-29142129D02*
X66528074Y-29117960D01*
X66226762Y-68884758D02*
X66196595Y-68846103D01*
X67634758Y-99976762D02*
X67671887Y-100008790D01*
X67556014Y-29168362D02*
X67596103Y-29196595D01*
X14773237Y-55365241D02*
X14803404Y-55403896D01*
X119999012Y-57000000D02*
X119949981Y-56998796D01*
X86328112Y-56741209D02*
X86292600Y-56707399D01*
X103209005Y-56956983D02*
X103162447Y-56941602D01*
X86999012Y-57000000D02*
X86949981Y-56998796D01*
X68156750Y-3759077D02*
X68105213Y-3981166D01*
X67383300Y-99826044D02*
X67428127Y-99845914D01*
X66076044Y-15866699D02*
X66095914Y-15821872D01*
X133999839Y-4993668D02*
X133993903Y-4759418D01*
X98837552Y-55058397D02*
X98883300Y-55076044D01*
X103352416Y-56989187D02*
X103304104Y-56980804D01*
X68410489Y-60016732D02*
X68400521Y-60039961D01*
X47941602Y-56337552D02*
X47923955Y-56383300D01*
X67773237Y-82634758D02*
X67741209Y-82671887D01*
X35209005Y-55043016D02*
X35256262Y-55029939D01*
X98971925Y-55117960D02*
X99014588Y-55142129D01*
X622413Y-109415303D02*
X634680Y-109437405D01*
X103499012Y-55000000D02*
X115000987Y-55000000D01*
X67741209Y-25671887D02*
X67707399Y-25707399D01*
X4506790Y-111975308D02*
X4734122Y-111992620D01*
X31056014Y-55168362D02*
X31096103Y-55196595D01*
X67956983Y-82290994D02*
X67941602Y-82337552D01*
X66949981Y-42751203D02*
X66999012Y-42750000D01*
X2366075Y-750365D02*
X2344623Y-763736D01*
X72759393Y-6097D02*
X72734147Y-7377D01*
X48000000Y-55999012D02*
X48000000Y-56000987D01*
X66029939Y-82243737D02*
X66019195Y-82195895D01*
X133992620Y-4734122D02*
X133975308Y-4506790D01*
X132615023Y-53453774D02*
X132632439Y-53435453D01*
X129006331Y-54999839D02*
X129240581Y-54993903D01*
X68024693Y-107493235D02*
X68027251Y-107518383D01*
X66443985Y-72418362D02*
X66485411Y-72392129D01*
X66029939Y-16006262D02*
X66043016Y-15959005D01*
X64945872Y-1929651D02*
X64801796Y-1752955D01*
X34758790Y-55328112D02*
X34792600Y-55292600D01*
X67243737Y-72279939D02*
X67290994Y-72293016D01*
X69214702Y-110266262D02*
X69367543Y-110435434D01*
X66662447Y-15308397D02*
X66709005Y-15293016D01*
X66196595Y-86403896D02*
X66226762Y-86365241D01*
X14428127Y-56904085D02*
X14383300Y-56923955D01*
X30837552Y-56941602D02*
X30790994Y-56956983D01*
X35304104Y-55019195D02*
X35352416Y-55010812D01*
X130508803Y-111766598D02*
X130724538Y-111692858D01*
X68056061Y-107744597D02*
X68059889Y-107769583D01*
X67098919Y-25995189D02*
X67050018Y-25998796D01*
X66117960Y-100278074D02*
X66142129Y-100235411D01*
X68000000Y-16249012D02*
X68000000Y-25000987D01*
X64070328Y-58054111D02*
X64050339Y-58038638D01*
X1214685Y-1733756D02*
X1198219Y-1752936D01*
X66999012Y-72250000D02*
X67000987Y-72250000D01*
X5006321Y0D02*
X4993680Y-160D01*
X65377586Y-59584696D02*
X65365319Y-59562594D01*
X14904085Y-56428127D02*
X14882039Y-56471925D01*
X66076044Y-11633300D02*
X66058397Y-11587552D01*
X14904085Y-55571872D02*
X14923955Y-55616699D01*
X65975308Y-107493209D02*
X65992620Y-107265877D01*
X35028074Y-56882039D02*
X34985411Y-56857870D01*
X67050018Y-15251203D02*
X67098919Y-15254810D01*
X128993678Y-54999999D02*
X129006319Y-54999839D01*
X67882039Y-29528074D02*
X67904085Y-29571872D01*
X66058397Y-11587552D02*
X66043016Y-11540994D01*
X66662447Y-25941602D02*
X66616699Y-25923955D01*
X61518408Y-111972746D02*
X61744572Y-111943942D01*
X99273237Y-55365241D02*
X99303404Y-55403896D01*
X67941602Y-43412447D02*
X67956983Y-43459005D01*
X82514588Y-55142129D02*
X82556014Y-55168362D01*
X69929651Y-58054127D02*
X69752955Y-58198203D01*
X31423955Y-56383300D02*
X31404085Y-56428127D01*
X47471925Y-56882039D02*
X47428127Y-56904085D01*
X4759393Y-57006097D02*
X4734147Y-57007377D01*
X67243737Y-99779939D02*
X67290994Y-99793016D01*
X68163099Y-51265442D02*
X68225818Y-51484636D01*
X68750365Y-109633924D02*
X68763736Y-109655376D01*
X72734147Y-111992622D02*
X72759393Y-111993902D01*
X63437427Y-111365306D02*
X63633902Y-111249647D01*
X66168362Y-29443985D02*
X66196595Y-29403896D01*
X66258790Y-43078112D02*
X66292600Y-43042600D01*
X102792600Y-56707399D02*
X102758790Y-56671887D01*
X71515339Y-57225825D02*
X71491221Y-57233393D01*
X98928127Y-55095914D02*
X98971925Y-55117960D01*
X86756262Y-55029939D02*
X86804104Y-55019195D01*
X30790994Y-55043016D02*
X30837552Y-55058397D01*
X18095914Y-55571872D02*
X18117960Y-55528074D01*
X67857870Y-29485411D02*
X67882039Y-29528074D01*
X47337552Y-55058397D02*
X47383300Y-55076044D01*
X132801780Y-1752936D02*
X132785314Y-1733756D01*
X66852416Y-82989187D02*
X66804104Y-82980804D01*
X102595914Y-55571872D02*
X102617960Y-55528074D01*
X82995189Y-56098919D02*
X82989187Y-56147583D01*
X51616699Y-55076044D02*
X51662447Y-55058397D01*
X67147583Y-96739187D02*
X67098919Y-96745189D01*
X61994022Y-57100115D02*
X61769608Y-57059893D01*
X73006321Y0D02*
X72993680Y-160D01*
X99096103Y-56803404D02*
X99056014Y-56831637D01*
X68000000Y-106993678D02*
X68000160Y-107006319D01*
X66258790Y-15578112D02*
X66292600Y-15542600D01*
X86043016Y-55709005D02*
X86058397Y-55662447D01*
X86571872Y-55095914D02*
X86616699Y-55076044D01*
X47904085Y-56428127D02*
X47882039Y-56471925D01*
X67741209Y-29328112D02*
X67773237Y-29365241D01*
X66403896Y-69053404D02*
X66365241Y-69023237D01*
X18196595Y-55403896D02*
X18226762Y-55365241D01*
X68006097Y-107240606D02*
X68007377Y-107265852D01*
X66443985Y-15418362D02*
X66485411Y-15392129D01*
X86019195Y-55804104D02*
X86029939Y-55756262D01*
X61769608Y-111940106D02*
X61994022Y-111899884D01*
X67471925Y-12132039D02*
X67428127Y-12154085D01*
X67471925Y-15367960D02*
X67514588Y-15392129D01*
X47098919Y-56995189D02*
X47050018Y-56998796D01*
X66403896Y-29196595D02*
X66443985Y-29168362D01*
X4481616Y-54972748D02*
X4506764Y-54975306D01*
X66004810Y-95848919D02*
X66001203Y-95800018D01*
X115857870Y-55485411D02*
X115882039Y-55528074D01*
X67000987Y-99750000D02*
X67050018Y-99751203D01*
X31489187Y-55852416D02*
X31495189Y-55901080D01*
X1949681Y-53961376D02*
X2133447Y-54096319D01*
X130748267Y-315929D02*
X130724562Y-307150D01*
X115995189Y-55901080D02*
X115998796Y-55949981D01*
X47428127Y-55095914D02*
X47471925Y-55117960D01*
X67337552Y-82941602D02*
X67290994Y-82956983D01*
X18010812Y-55852416D02*
X18019195Y-55804104D01*
X31014588Y-55142129D02*
X31056014Y-55168362D01*
X67290994Y-96706983D02*
X67243737Y-96720060D01*
X62508803Y-54766598D02*
X62724538Y-54692858D01*
X66756262Y-72279939D02*
X66804104Y-72269195D01*
X132453792Y-110615006D02*
X132615006Y-110453792D01*
X47671887Y-56741209D02*
X47634758Y-56773237D01*
X130265417Y-163092D02*
X130240946Y-156756D01*
X129006331Y-111999839D02*
X129240581Y-111993903D01*
X63655376Y-57763736D02*
X63633924Y-57750365D01*
X67941602Y-29662447D02*
X67956983Y-29709005D01*
X66328112Y-96491209D02*
X66292600Y-96457399D01*
X1949660Y-1038638D02*
X1929671Y-1054111D01*
X99382039Y-56471925D02*
X99357870Y-56514588D01*
X86571872Y-56904085D02*
X86528074Y-56882039D01*
X34576044Y-55616699D02*
X34595914Y-55571872D01*
X119058397Y-55662447D02*
X119076044Y-55616699D01*
X119901080Y-56995189D02*
X119852416Y-56989187D01*
X47634758Y-55226762D02*
X47671887Y-55258790D01*
X66010812Y-68397583D02*
X66004810Y-68348919D01*
X115290994Y-55043016D02*
X115337552Y-55058397D01*
X99056014Y-56831637D02*
X99014588Y-56857870D01*
X67923955Y-25383300D02*
X67904085Y-25428127D01*
X67514588Y-96607870D02*
X67471925Y-96632039D01*
X71515363Y-111774181D02*
X71734557Y-111836900D01*
X47741209Y-56671887D02*
X47707399Y-56707399D01*
X67634758Y-42976762D02*
X67671887Y-43008790D01*
X67707399Y-43042600D02*
X67741209Y-43078112D01*
X67290994Y-25956983D02*
X67243737Y-25970060D01*
X67596103Y-29196595D02*
X67634758Y-29226762D01*
X400511Y-3039985D02*
X315938Y-3251709D01*
X66901080Y-99754810D02*
X66949981Y-99751203D01*
X750365Y-52633924D02*
X763736Y-52655376D01*
X14000987Y-57000000D02*
X5006333Y-57000000D01*
X129493235Y-111975306D02*
X129518383Y-111972748D01*
X47383300Y-56923955D02*
X47337552Y-56941602D01*
X66058397Y-25337552D02*
X66043016Y-25290994D01*
X31056014Y-56831637D02*
X31014588Y-56857870D01*
X133766598Y-60491196D02*
X133692858Y-60275461D01*
X66365241Y-39523237D02*
X66328112Y-39491209D01*
X67428127Y-96654085D02*
X67383300Y-96673955D01*
X67707399Y-100042600D02*
X67741209Y-100078112D01*
X65377598Y-52415281D02*
X65483157Y-52213199D01*
X68750352Y-2366097D02*
X68634693Y-2562572D01*
X67980804Y-29804104D02*
X67989187Y-29852416D01*
X68059889Y-61230416D02*
X68056061Y-61255402D01*
X115995189Y-56098919D02*
X115989187Y-56147583D01*
X133993903Y-107240581D02*
X133999839Y-107006331D01*
X71016732Y-111589510D02*
X71039961Y-111599478D01*
X67803404Y-100153896D02*
X67831637Y-100193985D01*
X66000000Y-16249012D02*
X66001203Y-16199981D01*
X65940106Y-4230391D02*
X65899884Y-4005977D01*
X68634680Y-2562594D02*
X68622413Y-2584696D01*
X66000000Y-100749012D02*
X66001203Y-100699981D01*
X86949981Y-56998796D02*
X86901080Y-56995189D01*
X133766606Y-51508778D02*
X133774174Y-51484660D01*
X119403896Y-55196595D02*
X119443985Y-55168362D01*
X14741209Y-55328112D02*
X14773237Y-55365241D01*
X64961361Y-58949660D02*
X64945888Y-58929671D01*
X119292600Y-56707399D02*
X119258790Y-56671887D01*
X132785297Y-1733737D02*
X132632456Y-1564565D01*
X115556014Y-56831637D02*
X115514588Y-56857870D01*
X98883300Y-55076044D02*
X98928127Y-55095914D01*
X160Y-107006331D02*
X6096Y-107240581D01*
X115923955Y-56383300D02*
X115904085Y-56428127D01*
X67243737Y-29029939D02*
X67290994Y-29043016D01*
X30647583Y-55010812D02*
X30695895Y-55019195D01*
X102510812Y-55852416D02*
X102519195Y-55804104D01*
X115383300Y-56923955D02*
X115337552Y-56941602D01*
X66076044Y-100366699D02*
X66095914Y-100321872D01*
X67995189Y-43651080D02*
X67998796Y-43699981D01*
X2809517Y-57505699D02*
X2786823Y-57516831D01*
X68105213Y-51018833D02*
X68156750Y-51240922D01*
X86010812Y-56147583D02*
X86004810Y-56098919D01*
X68059893Y-107769608D02*
X68100115Y-107994022D01*
X82923955Y-56383300D02*
X82904085Y-56428127D01*
X69384993Y-53453792D02*
X69546207Y-53615006D01*
X67970060Y-95993737D02*
X67956983Y-96040994D01*
X66328112Y-100008790D02*
X66365241Y-99976762D01*
X34510812Y-55852416D02*
X34519195Y-55804104D01*
X119117960Y-56471925D02*
X119095914Y-56428127D01*
X115741209Y-55328112D02*
X115773237Y-55365241D01*
X69929671Y-110945888D02*
X69949660Y-110961361D01*
X68622401Y-2584718D02*
X68516842Y-2786800D01*
X133766598Y-3491196D02*
X133692858Y-3275461D01*
X1752955Y-110801796D02*
X1929651Y-110945872D01*
X66001203Y-68300018D02*
X66000000Y-68250987D01*
X34595914Y-55571872D02*
X34617960Y-55528074D01*
X119142129Y-55485411D02*
X119168362Y-55443985D01*
X47882039Y-56471925D02*
X47857870Y-56514588D01*
X133899884Y-107994022D02*
X133940106Y-107769608D01*
X66019195Y-11445895D02*
X66010812Y-11397583D01*
X47383300Y-55076044D02*
X47428127Y-55095914D01*
X51010812Y-55852416D02*
X51019195Y-55804104D01*
X66196595Y-82596103D02*
X66168362Y-82556014D01*
X68000000Y-11250987D02*
X67998796Y-11300018D01*
X67773237Y-29365241D02*
X67803404Y-29403896D01*
X72506790Y-54975308D02*
X72734122Y-54992620D01*
X86029939Y-55756262D02*
X86043016Y-55709005D01*
X47050018Y-56998796D02*
X47000987Y-57000000D01*
X67989187Y-11397583D02*
X67980804Y-11445895D01*
X14998796Y-56050018D02*
X14995189Y-56098919D01*
X47989187Y-56147583D02*
X47980804Y-56195895D01*
X51365241Y-56773237D02*
X51328112Y-56741209D01*
X62960038Y-111599478D02*
X62983267Y-111589510D01*
X4506764Y-57024693D02*
X4481616Y-57027251D01*
X115243737Y-55029939D02*
X115290994Y-55043016D01*
X67098919Y-86004810D02*
X67147583Y-86010812D01*
X69733756Y-110785314D02*
X69752936Y-110801780D01*
X67741209Y-86328112D02*
X67773237Y-86365241D01*
X67147583Y-72260812D02*
X67195895Y-72269195D01*
X69949660Y-1038638D02*
X69929671Y-1054111D01*
X66058397Y-29662447D02*
X66076044Y-29616699D01*
X66709005Y-69206983D02*
X66662447Y-69191602D01*
X51226762Y-55365241D02*
X51258790Y-55328112D01*
X68105208Y-60981191D02*
X68100120Y-61005952D01*
X86443985Y-55168362D02*
X86485411Y-55142129D01*
X68225825Y-108484660D02*
X68233393Y-108508778D01*
X67707399Y-39457399D02*
X67671887Y-39491209D01*
X31171887Y-55258790D02*
X31207399Y-55292600D01*
X30790994Y-56956983D02*
X30743737Y-56970060D01*
X82290994Y-56956983D02*
X82243737Y-56970060D01*
X47970060Y-55756262D02*
X47980804Y-55804104D01*
X66403896Y-15446595D02*
X66443985Y-15418362D01*
X2809540Y-54494311D02*
X3016709Y-54589499D01*
X51095914Y-56428127D02*
X51076044Y-56383300D01*
X98971925Y-56882039D02*
X98928127Y-56904085D01*
X67941602Y-15912447D02*
X67956983Y-15959005D01*
X4005977Y-111899884D02*
X4230391Y-111940106D01*
X71275461Y-111692858D02*
X71491196Y-111766598D01*
X31134758Y-55226762D02*
X31171887Y-55258790D01*
X66709005Y-82956983D02*
X66662447Y-82941602D01*
X67147583Y-99760812D02*
X67195895Y-99769195D01*
X66852416Y-72260812D02*
X66901080Y-72254810D01*
X69752955Y-53801796D02*
X69929651Y-53945872D01*
X47514588Y-56857870D02*
X47471925Y-56882039D01*
X67556014Y-42918362D02*
X67596103Y-42946595D01*
X66196595Y-72653896D02*
X66226762Y-72615241D01*
X64615023Y-110453774D02*
X64632439Y-110435453D01*
X71251732Y-111684070D02*
X71275437Y-111692849D01*
X3515363Y-54774181D02*
X3734557Y-54836900D01*
X66076044Y-39133300D02*
X66058397Y-39087552D01*
X119804104Y-55019195D02*
X119852416Y-55010812D01*
X34985411Y-56857870D02*
X34943985Y-56831637D01*
X67050018Y-69248796D02*
X67000987Y-69250000D01*
X18076044Y-56383300D02*
X18058397Y-56337552D01*
X119001203Y-56050018D02*
X119000000Y-56000987D01*
X64615006Y-58546207D02*
X64453792Y-58384993D01*
X131866552Y-54096319D02*
X132050318Y-53961376D01*
X66001203Y-86949981D02*
X66004810Y-86901080D01*
X66756262Y-82970060D02*
X66709005Y-82956983D01*
X68410489Y-3016732D02*
X68400521Y-3039961D01*
X98695895Y-56980804D02*
X98647583Y-56989187D01*
X30550018Y-55001203D02*
X30598919Y-55004810D01*
X3981166Y-57105213D02*
X3759077Y-57156750D01*
X47956983Y-56290994D02*
X47941602Y-56337552D01*
X3251709Y-315938D02*
X3039985Y-400511D01*
X132070328Y-58054111D02*
X132050339Y-58038638D01*
X51852416Y-55010812D02*
X51901080Y-55004810D01*
X133999839Y-61993668D02*
X133993903Y-61759418D01*
X67998796Y-73199981D02*
X68000000Y-73249012D01*
X66095914Y-11678127D02*
X66076044Y-11633300D01*
X67995189Y-25098919D02*
X67989187Y-25147583D01*
X99357870Y-56514588D02*
X99331637Y-56556014D01*
X67831637Y-25556014D02*
X67803404Y-25596103D01*
X82707399Y-55292600D02*
X82741209Y-55328112D01*
X66571872Y-15345914D02*
X66616699Y-15326044D01*
X68024691Y-61506790D02*
X68007379Y-61734122D01*
X130240922Y-156750D02*
X130018833Y-105213D01*
X66292600Y-100042600D02*
X66328112Y-100008790D01*
X70786800Y-57516842D02*
X70584718Y-57622401D01*
X119076044Y-56383300D02*
X119058397Y-56337552D01*
X66403896Y-39553404D02*
X66365241Y-39523237D01*
X132435434Y-1367543D02*
X132266262Y-1214702D01*
X47290994Y-56956983D02*
X47243737Y-56970060D01*
X1198219Y-110247063D02*
X1214685Y-110266243D01*
X70584696Y-57622413D02*
X70562594Y-57634680D01*
X133096319Y-59133447D02*
X132961376Y-58949681D01*
X67243737Y-96720060D02*
X67195895Y-96730804D01*
X18196595Y-56596103D02*
X18168362Y-56556014D01*
X67882039Y-96221925D02*
X67857870Y-96264588D01*
X68307141Y-60275461D02*
X68233401Y-60491196D01*
X7379Y-50265877D02*
X24691Y-50493209D01*
X47596103Y-55196595D02*
X47634758Y-55226762D01*
X1733737Y-58214702D02*
X1564565Y-58367543D01*
X71016709Y-57410500D02*
X70809540Y-57505688D01*
X14741209Y-56671887D02*
X14707399Y-56707399D01*
X102543016Y-55709005D02*
X102558397Y-55662447D01*
X51328112Y-55258790D02*
X51365241Y-55226762D01*
X115471925Y-56882039D02*
X115428127Y-56904085D01*
X70562572Y-57634693D02*
X70366097Y-57750352D01*
X68763736Y-2344623D02*
X68750365Y-2366075D01*
X65599488Y-51960014D02*
X65684061Y-51748290D01*
X66756262Y-39720060D02*
X66709005Y-39706983D01*
X69198203Y-1752955D02*
X69054127Y-1929651D01*
X634680Y-2562594D02*
X622413Y-2584696D01*
X2133447Y-57903680D02*
X1949681Y-58038623D01*
X72255402Y-56061D02*
X72230416Y-59889D01*
X67596103Y-99946595D02*
X67634758Y-99976762D01*
X65940110Y-50769583D02*
X65943938Y-50744597D01*
X82857870Y-55485411D02*
X82882039Y-55528074D01*
X66292600Y-86292600D02*
X66328112Y-86258790D01*
X65692849Y-60275437D02*
X65684070Y-60251732D01*
X67831637Y-96306014D02*
X67803404Y-96346103D01*
X66443985Y-96581637D02*
X66403896Y-96553404D01*
X18117960Y-55528074D02*
X18142129Y-55485411D01*
X66196595Y-29403896D02*
X66226762Y-29365241D01*
X66000000Y-73249012D02*
X66001203Y-73199981D01*
X14989187Y-56147583D02*
X14980804Y-56195895D01*
X67980804Y-82195895D02*
X67970060Y-82243737D01*
X14556014Y-56831637D02*
X14514588Y-56857870D01*
X1054127Y-110070348D02*
X1198203Y-110247044D01*
X66076044Y-68633300D02*
X66058397Y-68587552D01*
X763736Y-59344623D02*
X750365Y-59366075D01*
X64945888Y-110070328D02*
X64961361Y-110050339D01*
X64247044Y-1198203D02*
X64070348Y-1054127D01*
X82147583Y-56989187D02*
X82098919Y-56995189D01*
X63415303Y-54377586D02*
X63437405Y-54365319D01*
X3275461Y-111692858D02*
X3491196Y-111766598D01*
X133684061Y-60251709D02*
X133599488Y-60039985D01*
X66000000Y-68250987D02*
X66000000Y-62006333D01*
X66292600Y-39457399D02*
X66258790Y-39421887D01*
X67707399Y-82707399D02*
X67671887Y-82741209D01*
X18485411Y-56857870D02*
X18443985Y-56831637D01*
X73006333Y-55000000D02*
X82000987Y-55000000D01*
X68516831Y-59786823D02*
X68505699Y-59809517D01*
X31171887Y-56741209D02*
X31134758Y-56773237D01*
X72734147Y-54992622D02*
X72759393Y-54993902D01*
X82989187Y-55852416D02*
X82995189Y-55901080D01*
X116000000Y-56000987D02*
X115998796Y-56050018D01*
X103116699Y-55076044D02*
X103162447Y-55058397D01*
X61240606Y-111993902D02*
X61265852Y-111992622D01*
X35352416Y-56989187D02*
X35304104Y-56980804D01*
X66443985Y-29168362D02*
X66485411Y-29142129D01*
X66076044Y-96133300D02*
X66058397Y-96087552D01*
X130484660Y-54774174D02*
X130508778Y-54766606D01*
X65377586Y-2584696D02*
X65365319Y-2562594D01*
X51004810Y-56098919D02*
X51001203Y-56050018D01*
X60993678Y-54999999D02*
X61006319Y-54999839D01*
X133684070Y-108748267D02*
X133692849Y-108724562D01*
X34510812Y-56147583D02*
X34504810Y-56098919D01*
X67904085Y-25428127D02*
X67882039Y-25471925D01*
X47956983Y-55709005D02*
X47970060Y-55756262D01*
X69384976Y-1546225D02*
X69367560Y-1564546D01*
X14970060Y-55756262D02*
X14980804Y-55804104D01*
X68225818Y-3515363D02*
X68163099Y-3734557D01*
X132247063Y-53801780D02*
X132266243Y-53785314D01*
X86365241Y-55226762D02*
X86403896Y-55196595D01*
X68156750Y-60759077D02*
X68105213Y-60981166D01*
X129994022Y-57100115D02*
X129769608Y-57059893D01*
X4230416Y-54940110D02*
X4255402Y-54943938D01*
X34865241Y-56773237D02*
X34828112Y-56741209D01*
X66528074Y-96632039D02*
X66485411Y-96607870D01*
X14556014Y-55168362D02*
X14596103Y-55196595D01*
X115989187Y-56147583D02*
X115980804Y-56195895D01*
X61265877Y-111992620D02*
X61493209Y-111975308D01*
X62960014Y-400511D02*
X62748290Y-315938D01*
X63845784Y-111110774D02*
X63866531Y-111096333D01*
X133972746Y-61481591D02*
X133943942Y-61255427D01*
X66949981Y-96748796D02*
X66901080Y-96745189D01*
X99456983Y-55709005D02*
X99470060Y-55756262D01*
X15000000Y-56000987D02*
X14998796Y-56050018D01*
X67383300Y-15326044D02*
X67428127Y-15345914D01*
X65589510Y-51983267D02*
X65599478Y-51960038D01*
X71491196Y-57233401D02*
X71275461Y-57307141D01*
X67337552Y-15308397D02*
X67383300Y-15326044D01*
X18000000Y-56000987D02*
X18000000Y-55999012D01*
X129518408Y-54972746D02*
X129744572Y-54943942D01*
X66226762Y-72615241D02*
X66258790Y-72578112D01*
X131655376Y-763736D02*
X131633924Y-750365D01*
X67428127Y-42845914D02*
X67471925Y-42867960D01*
X66001203Y-16199981D02*
X66004810Y-16151080D01*
X102501203Y-55949981D02*
X102504810Y-55901080D01*
X67989187Y-68397583D02*
X67980804Y-68445895D01*
X132266262Y-53785297D02*
X132435434Y-53632456D01*
X18095914Y-56428127D02*
X18076044Y-56383300D01*
X66328112Y-29258790D02*
X66365241Y-29226762D01*
X115707399Y-55292600D02*
X115741209Y-55328112D01*
X62724538Y-57307141D02*
X62508803Y-57233401D01*
X82337552Y-56941602D02*
X82290994Y-56956983D01*
X99171887Y-56741209D02*
X99134758Y-56773237D01*
X102642129Y-55485411D02*
X102668362Y-55443985D01*
X133940106Y-4230391D02*
X133899884Y-4005977D01*
X131866552Y-111096319D02*
X132050318Y-110961376D01*
X67383300Y-72326044D02*
X67428127Y-72345914D01*
X82980804Y-55804104D02*
X82989187Y-55852416D01*
X66804104Y-29019195D02*
X66852416Y-29010812D01*
X31096103Y-56803404D02*
X31056014Y-56831637D01*
X51004810Y-55901080D02*
X51010812Y-55852416D01*
X66095914Y-25428127D02*
X66076044Y-25383300D01*
X2133468Y-111096333D02*
X2154215Y-111110774D01*
X51528074Y-56882039D02*
X51485411Y-56857870D01*
X133096333Y-52866531D02*
X133110774Y-52845784D01*
X66662447Y-12191602D02*
X66616699Y-12173955D01*
X67956983Y-43459005D02*
X67970060Y-43506262D01*
X86616699Y-55076044D02*
X86662447Y-55058397D01*
X68000160Y-61993680D02*
X68000000Y-62006321D01*
X3275461Y-54692858D02*
X3491196Y-54766598D01*
X2133468Y-54096333D02*
X2154215Y-54110774D01*
X62748290Y-111684061D02*
X62960014Y-111599488D01*
X68750365Y-52633924D02*
X68763736Y-52655376D01*
X67428127Y-82904085D02*
X67383300Y-82923955D01*
X66168362Y-96306014D02*
X66142129Y-96264588D01*
X61744597Y-111943938D02*
X61769583Y-111940110D01*
X69564565Y-53632456D02*
X69733737Y-53785297D01*
X130265442Y-54836900D02*
X130484636Y-54774181D01*
X66010812Y-95897583D02*
X66004810Y-95848919D01*
X67596103Y-42946595D02*
X67634758Y-42976762D01*
X67773237Y-86365241D02*
X67803404Y-86403896D01*
X68007377Y-4734147D02*
X68006097Y-4759393D01*
X63866531Y-57903666D02*
X63845784Y-57889225D01*
X65943938Y-4255402D02*
X65940110Y-4230416D01*
X18292600Y-55292600D02*
X18328112Y-55258790D01*
X132453774Y-58384976D02*
X132435453Y-58367560D01*
X102500000Y-55999012D02*
X102501203Y-55949981D01*
X132266243Y-1214685D02*
X132247063Y-1198219D01*
X64785297Y-58733737D02*
X64632456Y-58564565D01*
X63633902Y-57750352D02*
X63437427Y-57634693D01*
X131655397Y-54236249D02*
X131845763Y-54110788D01*
X115337552Y-55058397D02*
X115383300Y-55076044D01*
X4734147Y-54992622D02*
X4759393Y-54993902D01*
X34543016Y-55709005D02*
X34558397Y-55662447D01*
X69733737Y-58214702D02*
X69564565Y-58367543D01*
X102558397Y-55662447D02*
X102576044Y-55616699D01*
X64435434Y-58367543D02*
X64266262Y-58214702D01*
X61493235Y-54975306D02*
X61518383Y-54972748D01*
X132801780Y-58752936D02*
X132785314Y-58733756D01*
X130508778Y-233393D02*
X130484660Y-225825D01*
X72005977Y-54899884D02*
X72230391Y-54940106D01*
X86196595Y-55403896D02*
X86226762Y-55365241D01*
X160Y-61993680D02*
X0Y-62006321D01*
X6097Y-50240606D02*
X7377Y-50265852D01*
X27253Y-50518408D02*
X56057Y-50744572D01*
X66528074Y-25882039D02*
X66485411Y-25857870D01*
X115998796Y-56050018D02*
X115995189Y-56098919D01*
X86168362Y-56556014D02*
X86142129Y-56514588D01*
X47773237Y-56634758D02*
X47741209Y-56671887D01*
X67941602Y-100412447D02*
X67956983Y-100459005D01*
X67803404Y-68846103D02*
X67773237Y-68884758D01*
X66999012Y-26000000D02*
X66949981Y-25998796D01*
X128993666Y-57000000D02*
X119999012Y-57000000D01*
X67956983Y-72959005D02*
X67970060Y-73006262D01*
X68400521Y-108960038D02*
X68410489Y-108983267D01*
X14596103Y-55196595D02*
X14634758Y-55226762D01*
X67857870Y-25514588D02*
X67831637Y-25556014D01*
X72481591Y-27253D02*
X72255427Y-56057D01*
X130240946Y-111843243D02*
X130265417Y-111836907D01*
X66852416Y-69239187D02*
X66804104Y-69230804D01*
X31241209Y-55328112D02*
X31273237Y-55365241D01*
X65940110Y-107769583D02*
X65943938Y-107744597D01*
X99207399Y-56707399D02*
X99171887Y-56741209D01*
X133975306Y-4506764D02*
X133972748Y-4481616D01*
X51117960Y-56471925D02*
X51095914Y-56428127D01*
X130960014Y-400511D02*
X130748290Y-315938D01*
X119004810Y-55901080D02*
X119010812Y-55852416D01*
X18328112Y-55258790D02*
X18365241Y-55226762D01*
X129493235Y-54975306D02*
X129518383Y-54972748D01*
X66709005Y-25956983D02*
X66662447Y-25941602D01*
X103162447Y-56941602D02*
X103116699Y-56923955D01*
X60993666Y-57000000D02*
X51999012Y-57000000D01*
X67904085Y-86571872D02*
X67923955Y-86616699D01*
X51756262Y-56970060D02*
X51709005Y-56956983D01*
X99273237Y-56634758D02*
X99241209Y-56671887D01*
X66949981Y-29001203D02*
X66999012Y-29000000D01*
X129769583Y-59889D02*
X129744597Y-56061D01*
X61518383Y-27251D02*
X61493235Y-24693D01*
X47941602Y-55662447D02*
X47956983Y-55709005D01*
X82857870Y-56514588D02*
X82831637Y-56556014D01*
X65999839Y-61993668D02*
X65993903Y-61759418D01*
X105208Y-60981191D02*
X100120Y-61005952D01*
X62265442Y-111836900D02*
X62484636Y-111774181D01*
X133766606Y-108508778D02*
X133774174Y-108484660D01*
X66949981Y-82998796D02*
X66901080Y-82995189D01*
X18804104Y-56980804D02*
X18756262Y-56970060D01*
X14098919Y-56995189D02*
X14050018Y-56998796D01*
X1929671Y-53945888D02*
X1949660Y-53961361D01*
X131437405Y-634680D02*
X131415303Y-622413D01*
X1038623Y-1949681D02*
X903680Y-2133447D01*
X47882039Y-55528074D02*
X47904085Y-55571872D01*
X130018808Y-105208D02*
X129994047Y-100120D01*
X72506764Y-57024693D02*
X72481616Y-57027251D01*
X66019195Y-100554104D02*
X66029939Y-100506262D01*
X119142129Y-56514588D02*
X119117960Y-56471925D01*
X67098919Y-96745189D02*
X67050018Y-96748796D01*
X129518383Y-27251D02*
X129493235Y-24693D01*
X31273237Y-55365241D02*
X31303404Y-55403896D01*
X66019195Y-86804104D02*
X66029939Y-86756262D01*
X2154236Y-111110788D02*
X2344602Y-111236249D01*
X67243737Y-82970060D02*
X67195895Y-82980804D01*
X131213176Y-57516831D02*
X131190482Y-57505699D01*
X67243737Y-69220060D02*
X67195895Y-69230804D01*
X67803404Y-96346103D02*
X67773237Y-96384758D01*
X67243737Y-25970060D02*
X67195895Y-25980804D01*
X71039961Y-400521D02*
X71016732Y-410489D01*
X1367543Y-1564565D02*
X1214702Y-1733737D01*
X1198203Y-58752955D02*
X1054127Y-58929651D01*
X131190482Y-111494300D02*
X131213176Y-111483168D01*
X70344623Y-111236263D02*
X70366075Y-111249634D01*
X67707399Y-72542600D02*
X67741209Y-72578112D01*
X68505688Y-2809540D02*
X68410500Y-3016709D01*
X67671887Y-43008790D02*
X67707399Y-43042600D01*
X31498796Y-56050018D02*
X31495189Y-56098919D01*
X70584718Y-111377598D02*
X70786800Y-111483157D01*
X51662447Y-55058397D02*
X51709005Y-55043016D01*
X67803404Y-25596103D02*
X67773237Y-25634758D01*
X27251Y-61481616D02*
X24693Y-61506764D01*
X119076044Y-55616699D02*
X119095914Y-55571872D01*
X119852416Y-55010812D02*
X119901080Y-55004810D01*
X86117960Y-55528074D02*
X86142129Y-55485411D01*
X103401080Y-56995189D02*
X103352416Y-56989187D01*
X47000987Y-57000000D02*
X35499012Y-57000000D01*
X4506764Y-24693D02*
X4481616Y-27251D01*
X133110774Y-59154215D02*
X133096333Y-59133468D01*
X67857870Y-15735411D02*
X67882039Y-15778074D01*
X119000000Y-56000987D02*
X119000000Y-55999012D01*
X68903666Y-2133468D02*
X68889225Y-2154215D01*
X65599488Y-108960014D02*
X65684061Y-108748290D01*
X70154215Y-57889225D02*
X70133468Y-57903666D01*
X65110788Y-109845763D02*
X65236249Y-109655397D01*
X66571872Y-39654085D02*
X66528074Y-39632039D01*
X132050339Y-110961361D02*
X132070328Y-110945888D01*
X66901080Y-69245189D02*
X66852416Y-69239187D01*
X71039985Y-111599488D02*
X71251709Y-111684061D01*
X4481591Y-27253D02*
X4255427Y-56057D01*
X2584696Y-57622413D02*
X2562594Y-57634680D01*
X1384993Y-53453792D02*
X1546207Y-53615006D01*
X72230391Y-57059893D02*
X72005977Y-57100115D01*
X66365241Y-15476762D02*
X66403896Y-15446595D01*
X66000000Y-43749012D02*
X66001203Y-43699981D01*
X51528074Y-55117960D02*
X51571872Y-55095914D01*
X82995189Y-55901080D02*
X82998796Y-55949981D01*
X99498796Y-56050018D02*
X99495189Y-56098919D01*
X86226762Y-55365241D02*
X86258790Y-55328112D01*
X119328112Y-56741209D02*
X119292600Y-56707399D01*
X65843243Y-60759053D02*
X65836907Y-60734582D01*
X67337552Y-86058397D02*
X67383300Y-86076044D01*
X71981166Y-57105213D02*
X71759077Y-57156750D01*
X51443985Y-56831637D02*
X51403896Y-56803404D01*
X51616699Y-56923955D02*
X51571872Y-56904085D01*
X98837552Y-56941602D02*
X98790994Y-56956983D01*
X31241209Y-56671887D02*
X31207399Y-56707399D01*
X51852416Y-56989187D02*
X51804104Y-56980804D01*
X67995189Y-82098919D02*
X67989187Y-82147583D01*
X82050018Y-55001203D02*
X82098919Y-55004810D01*
X68000000Y-29999012D02*
X68000000Y-38750987D01*
X66485411Y-15392129D02*
X66528074Y-15367960D01*
X69198219Y-53247063D02*
X69214685Y-53266243D01*
X65096319Y-2133447D02*
X64961376Y-1949681D01*
X131213176Y-516831D02*
X131190482Y-505699D01*
X62748290Y-54684061D02*
X62960014Y-54599488D01*
X68000000Y-5006333D02*
X68000000Y-11250987D01*
X68000160Y-50006331D02*
X68006096Y-50240581D01*
X31423955Y-55616699D02*
X31441602Y-55662447D01*
X59889Y-4230416D02*
X56061Y-4255402D01*
X62240946Y-111843243D02*
X62265417Y-111836907D01*
X47904085Y-55571872D02*
X47923955Y-55616699D01*
X14995189Y-55901080D02*
X14998796Y-55949981D01*
X14980804Y-56195895D02*
X14970060Y-56243737D01*
X2154215Y-57889225D02*
X2133468Y-57903666D01*
X67773237Y-96384758D02*
X67741209Y-96421887D01*
X516831Y-59786823D02*
X505699Y-59809517D01*
X27251Y-4481616D02*
X24693Y-4506764D01*
X134000000Y-49993666D02*
X134000000Y-5006333D01*
X69214702Y-53266262D02*
X69367543Y-53435434D01*
X67337552Y-25941602D02*
X67290994Y-25956983D01*
X133365306Y-2562572D02*
X133249647Y-2366097D01*
X133843249Y-51240922D02*
X133894786Y-51018833D01*
X2366075Y-57750365D02*
X2344623Y-57763736D01*
X133599488Y-108960014D02*
X133684061Y-108748290D01*
X66292600Y-68957399D02*
X66258790Y-68921887D01*
X66528074Y-69132039D02*
X66485411Y-69107870D01*
X133899879Y-61005952D02*
X133894791Y-60981191D01*
X903680Y-52866552D02*
X1038623Y-53050318D01*
X133377598Y-109415281D02*
X133483157Y-109213199D01*
X119226762Y-56634758D02*
X119196595Y-56596103D01*
X4255402Y-56061D02*
X4230416Y-59889D01*
X67923955Y-86616699D02*
X67941602Y-86662447D01*
X65236249Y-2344602D02*
X65110788Y-2154236D01*
X119756262Y-56970060D02*
X119709005Y-56956983D01*
X130724538Y-307141D02*
X130508803Y-233401D01*
X133599478Y-3039961D02*
X133589510Y-3016732D01*
X82634758Y-55226762D02*
X82671887Y-55258790D01*
X47831637Y-55443985D02*
X47857870Y-55485411D01*
X31456983Y-55709005D02*
X31470060Y-55756262D01*
X67970060Y-86756262D02*
X67980804Y-86804104D01*
X68000000Y-86999012D02*
X68000000Y-95750987D01*
X133836907Y-51265417D02*
X133843243Y-51240946D01*
X67904085Y-11678127D02*
X67882039Y-11721925D01*
X67980804Y-95945895D02*
X67970060Y-95993737D01*
X66804104Y-42769195D02*
X66852416Y-42760812D01*
X65483168Y-109213176D02*
X65494300Y-109190482D01*
X2786823Y-54483168D02*
X2809517Y-54494300D01*
X64801780Y-1752936D02*
X64785314Y-1733756D01*
X68156756Y-51240946D02*
X68163092Y-51265417D01*
X115773237Y-56634758D02*
X115741209Y-56671887D01*
X66756262Y-25970060D02*
X66709005Y-25956983D01*
X4230391Y-59893D02*
X4005977Y-100115D01*
X64801780Y-58752936D02*
X64785314Y-58733756D01*
X66117960Y-39221925D02*
X66095914Y-39178127D01*
X0Y-106993678D02*
X160Y-107006319D01*
X102519195Y-55804104D02*
X102529939Y-55756262D01*
X130018808Y-57105208D02*
X129994047Y-57100120D01*
X69054127Y-53070348D02*
X69198203Y-53247044D01*
X67000987Y-29000000D02*
X67050018Y-29001203D01*
X64632456Y-110435434D02*
X64785297Y-110266262D01*
X129265877Y-54992620D02*
X129493209Y-54975308D01*
X1546225Y-53615023D02*
X1564546Y-53632439D01*
X67995189Y-29901080D02*
X67998796Y-29949981D01*
X67514588Y-86142129D02*
X67556014Y-86168362D01*
X3734582Y-54836907D02*
X3759053Y-54843243D01*
X82882039Y-55528074D02*
X82904085Y-55571872D01*
X14923955Y-56383300D02*
X14904085Y-56428127D01*
X69038638Y-110050339D02*
X69054111Y-110070328D01*
X115882039Y-56471925D02*
X115857870Y-56514588D01*
X68903666Y-59133468D02*
X68889225Y-59154215D01*
X18001203Y-55949981D02*
X18004810Y-55901080D01*
X82956983Y-56290994D02*
X82941602Y-56337552D01*
X233401Y-108508803D02*
X307141Y-108724538D01*
X119709005Y-56956983D02*
X119662447Y-56941602D01*
X65943938Y-61255402D02*
X65940110Y-61230416D01*
X67857870Y-100235411D02*
X67882039Y-100278074D01*
X0Y-62006333D02*
X0Y-106993666D01*
X66076044Y-29616699D02*
X66095914Y-29571872D01*
X2786823Y-111483168D02*
X2809517Y-111494300D01*
X47857870Y-55485411D02*
X47882039Y-55528074D01*
X66029939Y-11493737D02*
X66019195Y-11445895D01*
X66756262Y-96720060D02*
X66709005Y-96706983D01*
X65684070Y-108748267D02*
X65692849Y-108724562D01*
X64435453Y-53632439D02*
X64453774Y-53615023D01*
X18756262Y-55029939D02*
X18804104Y-55019195D01*
X66852416Y-86010812D02*
X66901080Y-86004810D01*
X4993680Y-54999839D02*
X5006321Y-54999999D01*
X66328112Y-68991209D02*
X66292600Y-68957399D01*
X99423955Y-56383300D02*
X99404085Y-56428127D01*
X66043016Y-15959005D02*
X66058397Y-15912447D01*
X102504810Y-55901080D02*
X102510812Y-55852416D01*
X99470060Y-56243737D02*
X99456983Y-56290994D01*
X64945872Y-58929651D02*
X64801796Y-58752955D01*
X2562594Y-54365319D02*
X2584696Y-54377586D01*
X400511Y-60039985D02*
X315938Y-60251709D01*
X66196595Y-15653896D02*
X66226762Y-15615241D01*
X69949681Y-53961376D02*
X70133447Y-54096319D01*
X66292600Y-25707399D02*
X66258790Y-25671887D01*
X1214702Y-53266262D02*
X1367543Y-53435434D01*
X67970060Y-82243737D02*
X67956983Y-82290994D01*
X82989187Y-56147583D02*
X82980804Y-56195895D01*
X66949981Y-39748796D02*
X66901080Y-39745189D01*
X763750Y-52655397D02*
X889211Y-52845763D01*
X67998796Y-86949981D02*
X68000000Y-86999012D01*
X2584718Y-54377598D02*
X2786800Y-54483157D01*
X51365241Y-55226762D02*
X51403896Y-55196595D01*
X18403896Y-55196595D02*
X18443985Y-55168362D01*
X67000987Y-69250000D02*
X66999012Y-69250000D01*
X66196595Y-11846103D02*
X66168362Y-11806014D01*
X86001203Y-56050018D02*
X86000000Y-56000987D01*
X66043016Y-39040994D02*
X66029939Y-38993737D01*
X115980804Y-56195895D02*
X115970060Y-56243737D01*
X133993902Y-61759393D02*
X133992622Y-61734147D01*
X71734557Y-163099D02*
X71515363Y-225818D01*
X67707399Y-96457399D02*
X67671887Y-96491209D01*
X132945872Y-1929651D02*
X132801796Y-1752955D01*
X67741209Y-43078112D02*
X67773237Y-43115241D01*
X133483168Y-52213176D02*
X133494300Y-52190482D01*
X65972746Y-61481591D02*
X65943942Y-61255427D01*
X68233393Y-3491221D02*
X68225825Y-3515339D01*
X66095914Y-43321872D02*
X66117960Y-43278074D01*
X66095914Y-15821872D02*
X66117960Y-15778074D01*
X66029939Y-86756262D02*
X66043016Y-86709005D01*
X67970060Y-43506262D02*
X67980804Y-43554104D01*
X69546207Y-58384993D02*
X69384993Y-58546207D01*
X66095914Y-96178127D02*
X66076044Y-96133300D01*
X82923955Y-55616699D02*
X82941602Y-55662447D01*
X119043016Y-56290994D02*
X119029939Y-56243737D01*
X4255402Y-57056061D02*
X4230416Y-57059889D01*
X66004810Y-11348919D02*
X66001203Y-11300018D01*
X67098919Y-39745189D02*
X67050018Y-39748796D01*
X51168362Y-55443985D02*
X51196595Y-55403896D01*
X82000987Y-55000000D02*
X82050018Y-55001203D01*
X133972748Y-107518383D02*
X133975306Y-107493235D01*
X66365241Y-69023237D02*
X66328112Y-68991209D01*
X99404085Y-55571872D02*
X99423955Y-55616699D01*
X119485411Y-55142129D02*
X119528074Y-55117960D01*
X99500000Y-55999012D02*
X99500000Y-56000987D01*
X132632439Y-58564546D02*
X132615023Y-58546225D01*
X66485411Y-99892129D02*
X66528074Y-99867960D01*
X1198203Y-1752955D02*
X1054127Y-1929651D01*
X34519195Y-56195895D02*
X34510812Y-56147583D01*
X86443985Y-56831637D02*
X86403896Y-56803404D01*
X68163099Y-108265442D02*
X68225818Y-108484636D01*
X64453792Y-53615006D02*
X64615006Y-53453792D01*
X35401080Y-55004810D02*
X35449981Y-55001203D01*
X67923955Y-39133300D02*
X67904085Y-39178127D01*
X66403896Y-82803404D02*
X66365241Y-82773237D01*
X51076044Y-56383300D02*
X51058397Y-56337552D01*
X66004810Y-86901080D02*
X66010812Y-86852416D01*
X67634758Y-29226762D02*
X67671887Y-29258790D01*
X115098919Y-56995189D02*
X115050018Y-56998796D01*
X18168362Y-55443985D02*
X18196595Y-55403896D01*
X64632456Y-53435434D02*
X64785297Y-53266262D01*
X130484660Y-111774174D02*
X130508778Y-111766606D01*
X67882039Y-72778074D02*
X67904085Y-72821872D01*
X51292600Y-55292600D02*
X51328112Y-55258790D01*
X34519195Y-55804104D02*
X34529939Y-55756262D01*
X1198219Y-53247063D02*
X1214685Y-53266243D01*
X64945888Y-53070328D02*
X64961361Y-53050339D01*
X66804104Y-12230804D02*
X66756262Y-12220060D01*
X47741209Y-55328112D02*
X47773237Y-55365241D01*
X67980804Y-68445895D02*
X67970060Y-68493737D01*
X66095914Y-86571872D02*
X66117960Y-86528074D01*
X68056057Y-61255427D02*
X68027253Y-61481591D01*
X66000000Y-29999012D02*
X66001203Y-29949981D01*
X66001203Y-100699981D02*
X66004810Y-100651080D01*
X65899884Y-107994022D02*
X65940106Y-107769608D01*
X105208Y-3981191D02*
X100120Y-4005952D01*
X66043016Y-96040994D02*
X66029939Y-95993737D01*
X71039985Y-54599488D02*
X71251709Y-54684061D01*
X66365241Y-25773237D02*
X66328112Y-25741209D01*
X82596103Y-55196595D02*
X82634758Y-55226762D01*
X67831637Y-68806014D02*
X67803404Y-68846103D01*
X129518408Y-111972746D02*
X129744572Y-111943942D01*
X100120Y-107994047D02*
X105208Y-108018808D01*
X133993902Y-4759393D02*
X133992622Y-4734147D01*
X66000000Y-49993666D02*
X66000000Y-43749012D01*
X18901080Y-56995189D02*
X18852416Y-56989187D01*
X51901080Y-55004810D02*
X51949981Y-55001203D01*
X133684061Y-3251709D02*
X133599488Y-3039985D01*
X62484660Y-54774174D02*
X62508778Y-54766606D01*
X82803404Y-56596103D02*
X82773237Y-56634758D01*
X34758790Y-56671887D02*
X34726762Y-56634758D01*
X34501203Y-55949981D02*
X34504810Y-55901080D01*
X66117960Y-72778074D02*
X66142129Y-72735411D01*
X65999999Y-5006321D02*
X65999839Y-4993680D01*
X225825Y-108484660D02*
X233393Y-108508778D01*
X82980804Y-56195895D02*
X82970060Y-56243737D01*
X103352416Y-55010812D02*
X103401080Y-55004810D01*
X14243737Y-55029939D02*
X14290994Y-55043016D01*
X62240946Y-54843243D02*
X62265417Y-54836907D01*
X132961361Y-58949660D02*
X132945888Y-58929671D01*
X67596103Y-39553404D02*
X67556014Y-39581637D01*
X69546225Y-53615023D02*
X69564546Y-53632439D01*
X67904085Y-72821872D02*
X67923955Y-72866699D01*
X82671887Y-55258790D02*
X82707399Y-55292600D01*
X130484636Y-225818D02*
X130265442Y-163099D01*
X70154236Y-111110788D02*
X70344602Y-111236249D01*
X67471925Y-99867960D02*
X67514588Y-99892129D01*
X67941602Y-82337552D02*
X67923955Y-82383300D01*
X67195895Y-86019195D02*
X67243737Y-86029939D01*
X1752955Y-53801796D02*
X1929651Y-53945872D01*
X133483168Y-109213176D02*
X133494300Y-109190482D01*
X69038623Y-1949681D02*
X68903680Y-2133447D01*
X86901080Y-55004810D02*
X86949981Y-55001203D01*
X31489187Y-56147583D02*
X31480804Y-56195895D01*
X82428127Y-55095914D02*
X82471925Y-55117960D01*
X68027251Y-61481616D02*
X68024693Y-61506764D01*
X68100120Y-50994047D02*
X68105208Y-51018808D01*
X66019195Y-68445895D02*
X66010812Y-68397583D01*
X119043016Y-55709005D02*
X119058397Y-55662447D01*
X66328112Y-72508790D02*
X66365241Y-72476762D01*
X131633924Y-111249634D02*
X131655376Y-111236263D01*
X67383300Y-96673955D02*
X67337552Y-96691602D01*
X67998796Y-95800018D02*
X67995189Y-95848919D01*
X62240922Y-57156750D02*
X62018833Y-57105213D01*
X18058397Y-56337552D02*
X18043016Y-56290994D01*
X103449981Y-56998796D02*
X103401080Y-56995189D01*
X82904085Y-55571872D02*
X82923955Y-55616699D01*
X30837552Y-55058397D02*
X30883300Y-55076044D01*
X67773237Y-68884758D02*
X67741209Y-68921887D01*
X65836907Y-51265417D02*
X65843243Y-51240946D01*
X763750Y-109655397D02*
X889211Y-109845763D01*
X18403896Y-56803404D02*
X18365241Y-56773237D01*
X67857870Y-39264588D02*
X67831637Y-39306014D01*
X68000000Y-95750987D02*
X67998796Y-95800018D01*
X68027253Y-107518408D02*
X68056057Y-107744572D01*
X68233401Y-108508803D02*
X68307141Y-108724538D01*
X119852416Y-56989187D02*
X119804104Y-56980804D01*
X82290994Y-55043016D02*
X82337552Y-55058397D01*
X67290994Y-39706983D02*
X67243737Y-39720060D01*
X31404085Y-56428127D02*
X31382039Y-56471925D01*
X63655376Y-763736D02*
X63633924Y-750365D01*
X133843243Y-60759053D02*
X133836907Y-60734582D01*
X131190459Y-505688D02*
X130983290Y-410500D01*
X65096319Y-59133447D02*
X64961376Y-58949681D01*
X63213199Y-111483157D02*
X63415281Y-111377598D01*
X133774181Y-108484636D02*
X133836900Y-108265442D01*
X67290994Y-29043016D02*
X67337552Y-29058397D01*
X119756262Y-55029939D02*
X119804104Y-55019195D01*
X70584718Y-54377598D02*
X70786800Y-54483157D01*
X82773237Y-55365241D02*
X82803404Y-55403896D01*
X67596103Y-12053404D02*
X67556014Y-12081637D01*
X47195895Y-56980804D02*
X47147583Y-56989187D01*
X67904085Y-82428127D02*
X67882039Y-82471925D01*
X66117960Y-29528074D02*
X66142129Y-29485411D01*
X99495189Y-55901080D02*
X99498796Y-55949981D01*
X65365306Y-2562572D02*
X65249647Y-2366097D01*
X132453792Y-53615006D02*
X132615006Y-53453792D01*
X67707399Y-29292600D02*
X67741209Y-29328112D01*
X64785314Y-110266243D02*
X64801780Y-110247063D01*
X67882039Y-82471925D02*
X67857870Y-82514588D01*
X65096333Y-52866531D02*
X65110774Y-52845784D01*
X86403896Y-55196595D02*
X86443985Y-55168362D01*
X51709005Y-55043016D02*
X51756262Y-55029939D01*
X103256262Y-55029939D02*
X103304104Y-55019195D01*
X132945888Y-53070328D02*
X132961361Y-53050339D01*
X67941602Y-86662447D02*
X67956983Y-86709005D01*
X18756262Y-56970060D02*
X18709005Y-56956983D01*
X131437405Y-57634680D02*
X131415303Y-57622413D01*
X68315929Y-60251732D02*
X68307150Y-60275437D01*
X115428127Y-56904085D02*
X115383300Y-56923955D01*
X133236263Y-52655376D02*
X133249634Y-52633924D01*
X51019195Y-56195895D02*
X51010812Y-56147583D01*
X67671887Y-11991209D02*
X67634758Y-12023237D01*
X129744597Y-54943938D02*
X129769583Y-54940110D01*
X99331637Y-56556014D02*
X99303404Y-56596103D01*
X14243737Y-56970060D02*
X14195895Y-56980804D01*
X67773237Y-43115241D02*
X67803404Y-43153896D01*
X63437427Y-54365306D02*
X63633902Y-54249647D01*
X67956983Y-39040994D02*
X67941602Y-39087552D01*
X1929651Y-1054127D02*
X1752955Y-1198203D01*
X86004810Y-55901080D02*
X86010812Y-55852416D01*
X103071872Y-55095914D02*
X103116699Y-55076044D01*
X34543016Y-56290994D02*
X34529939Y-56243737D01*
X132632456Y-110435434D02*
X132785297Y-110266262D01*
X66901080Y-72254810D02*
X66949981Y-72251203D01*
X67383300Y-69173955D02*
X67337552Y-69191602D01*
X56057Y-4255427D02*
X27253Y-4481591D01*
X34576044Y-56383300D02*
X34558397Y-56337552D01*
X67098919Y-69245189D02*
X67050018Y-69248796D01*
X67000987Y-15250000D02*
X67050018Y-15251203D01*
X67195895Y-72269195D02*
X67243737Y-72279939D01*
X68763750Y-109655397D02*
X68889211Y-109845763D01*
X3759053Y-57156756D02*
X3734582Y-57163092D01*
X4255427Y-54943942D02*
X4481591Y-54972746D01*
X130983267Y-410489D02*
X130960038Y-400521D01*
X65692849Y-3275437D02*
X65684070Y-3251732D01*
X99489187Y-55852416D02*
X99495189Y-55901080D01*
X98695895Y-55019195D02*
X98743737Y-55029939D01*
X67956983Y-68540994D02*
X67941602Y-68587552D01*
X86616699Y-56923955D02*
X86571872Y-56904085D01*
X66029939Y-25243737D02*
X66019195Y-25195895D01*
X2562572Y-57634693D02*
X2366097Y-57750352D01*
X67904085Y-39178127D02*
X67882039Y-39221925D01*
X67000987Y-86000000D02*
X67050018Y-86001203D01*
X307141Y-3275461D02*
X233401Y-3491196D01*
X3734557Y-57163099D02*
X3515363Y-57225818D01*
X133599478Y-60039961D02*
X133589510Y-60016732D01*
X67980804Y-38945895D02*
X67970060Y-38993737D01*
X69949660Y-58038638D02*
X69929671Y-58054111D01*
X68027251Y-4481616D02*
X68024693Y-4506764D01*
X67383300Y-82923955D02*
X67337552Y-82941602D01*
X119901080Y-55004810D02*
X119949981Y-55001203D01*
X130960038Y-54599478D02*
X130983267Y-54589510D01*
X61493235Y-111975306D02*
X61518383Y-111972748D01*
X69546207Y-1384993D02*
X69384993Y-1546207D01*
X115596103Y-56803404D02*
X115556014Y-56831637D01*
X132785314Y-110266243D02*
X132801780Y-110247063D01*
X67995189Y-100651080D02*
X67998796Y-100699981D01*
X15000000Y-55999012D02*
X15000000Y-56000987D01*
X67195895Y-96730804D02*
X67147583Y-96739187D01*
X66852416Y-96739187D02*
X66804104Y-96730804D01*
X66403896Y-99946595D02*
X66443985Y-99918362D01*
X63213176Y-57516831D02*
X63190482Y-57505699D01*
X47634758Y-56773237D02*
X47596103Y-56803404D01*
X66292600Y-82707399D02*
X66258790Y-82671887D01*
X31441602Y-55662447D02*
X31456983Y-55709005D01*
X66804104Y-99769195D02*
X66852416Y-99760812D01*
X102943985Y-56831637D02*
X102903896Y-56803404D01*
X130724538Y-57307141D02*
X130508803Y-57233401D01*
X67707399Y-68957399D02*
X67671887Y-68991209D01*
X66258790Y-100078112D02*
X66292600Y-100042600D01*
X66485411Y-42892129D02*
X66528074Y-42867960D01*
X68505699Y-52190482D02*
X68516831Y-52213176D01*
X133943942Y-107744572D02*
X133972746Y-107518408D01*
X69733756Y-53785314D02*
X69752936Y-53801780D01*
X67998796Y-68300018D02*
X67995189Y-68348919D01*
X131655397Y-111236249D02*
X131845763Y-111110788D01*
X1733756Y-110785314D02*
X1752936Y-110801780D01*
X65836900Y-60734557D02*
X65774181Y-60515363D01*
X82634758Y-56773237D02*
X82596103Y-56803404D01*
X66058397Y-86662447D02*
X66076044Y-86616699D01*
X115556014Y-55168362D02*
X115596103Y-55196595D01*
X66000000Y-25000987D02*
X66000000Y-16249012D01*
X66662447Y-72308397D02*
X66709005Y-72293016D01*
X66043016Y-11540994D02*
X66029939Y-11493737D01*
X66403896Y-72446595D02*
X66443985Y-72418362D01*
X66443985Y-25831637D02*
X66403896Y-25803404D01*
X903666Y-59133468D02*
X889225Y-59154215D01*
X67803404Y-39346103D02*
X67773237Y-39384758D01*
X35449981Y-56998796D02*
X35401080Y-56995189D01*
X67970060Y-11493737D02*
X67956983Y-11540994D01*
X132961361Y-1949660D02*
X132945888Y-1929671D01*
X66999012Y-96750000D02*
X66949981Y-96748796D01*
X132070348Y-53945872D02*
X132247044Y-53801796D01*
X35256262Y-56970060D02*
X35209005Y-56956983D01*
X64453792Y-110615006D02*
X64615006Y-110453792D01*
X66292600Y-43042600D02*
X66328112Y-43008790D01*
X67147583Y-39739187D02*
X67098919Y-39745189D01*
X68225825Y-51484660D02*
X68233393Y-51508778D01*
X102792600Y-55292600D02*
X102828112Y-55258790D01*
X67383300Y-12173955D02*
X67337552Y-12191602D01*
X67995189Y-38848919D02*
X67989187Y-38897583D01*
X3275437Y-307150D02*
X3251732Y-315929D01*
X99171887Y-55258790D02*
X99207399Y-55292600D01*
X66226762Y-25634758D02*
X66196595Y-25596103D01*
X65599478Y-60039961D02*
X65589510Y-60016732D01*
X66000000Y-38750987D02*
X66000000Y-29999012D01*
X67514588Y-12107870D02*
X67471925Y-12132039D01*
X47147583Y-56989187D02*
X47098919Y-56995189D01*
X72005952Y-100120D02*
X71981191Y-105208D01*
X64453774Y-1384976D02*
X64435453Y-1367560D01*
X61769583Y-59889D02*
X61744597Y-56061D01*
X66804104Y-82980804D02*
X66756262Y-82970060D01*
X225825Y-51484660D02*
X233393Y-51508778D01*
X66043016Y-29709005D02*
X66058397Y-29662447D01*
X86000000Y-55999012D02*
X86001203Y-55949981D01*
X133110788Y-109845763D02*
X133236249Y-109655397D01*
X67195895Y-29019195D02*
X67243737Y-29029939D01*
X67471925Y-39632039D02*
X67428127Y-39654085D01*
X66117960Y-43278074D02*
X66142129Y-43235411D01*
X51662447Y-56941602D02*
X51616699Y-56923955D01*
X72255402Y-57056061D02*
X72230416Y-57059889D01*
X51709005Y-56956983D02*
X51662447Y-56941602D01*
X67980804Y-86804104D02*
X67989187Y-86852416D01*
X66709005Y-99793016D02*
X66756262Y-99779939D01*
X68059893Y-50769608D02*
X68100115Y-50994022D01*
X160Y-4993680D02*
X0Y-5006321D01*
X64050318Y-58038623D02*
X63866552Y-57903680D01*
X129493209Y-57024691D02*
X129265877Y-57007379D01*
X86756262Y-56970060D02*
X86709005Y-56956983D01*
X133692858Y-108724538D02*
X133766598Y-108508803D01*
X61006331Y-111999839D02*
X61240581Y-111993903D01*
X115383300Y-55076044D02*
X115428127Y-55095914D01*
X86168362Y-55443985D02*
X86196595Y-55403896D01*
X86804104Y-56980804D02*
X86756262Y-56970060D01*
X82243737Y-56970060D02*
X82195895Y-56980804D01*
X67882039Y-39221925D02*
X67857870Y-39264588D01*
X66196595Y-68846103D02*
X66168362Y-68806014D01*
X86999012Y-55000000D02*
X98500987Y-55000000D01*
X82147583Y-55010812D02*
X82195895Y-55019195D01*
X86804104Y-55019195D02*
X86852416Y-55010812D01*
X63655397Y-54236249D02*
X63845763Y-54110788D01*
X763736Y-2344623D02*
X750365Y-2366075D01*
X18004810Y-56098919D02*
X18001203Y-56050018D01*
X65589499Y-3016709D02*
X65494311Y-2809540D01*
X69752955Y-110801796D02*
X69929651Y-110945872D01*
X129240606Y-111993902D02*
X129265852Y-111992622D01*
X86528074Y-56882039D02*
X86485411Y-56857870D01*
X133899879Y-4005952D02*
X133894791Y-3981191D01*
X67556014Y-72418362D02*
X67596103Y-72446595D01*
X68634693Y-109437427D02*
X68750352Y-109633902D01*
X67923955Y-68633300D02*
X67904085Y-68678127D01*
X69367543Y-1564565D02*
X69214702Y-1733737D01*
X70154215Y-889225D02*
X70133468Y-903666D01*
X132266262Y-110785297D02*
X132435434Y-110632456D01*
X516831Y-2786823D02*
X505699Y-2809517D01*
X86328112Y-55258790D02*
X86365241Y-55226762D01*
X119010812Y-55852416D02*
X119019195Y-55804104D01*
X66662447Y-39691602D02*
X66616699Y-39673955D01*
X1546207Y-1384993D02*
X1384993Y-1546207D01*
X71981191Y-111894791D02*
X72005952Y-111899879D01*
X51010812Y-56147583D02*
X51004810Y-56098919D01*
X51292600Y-56707399D02*
X51258790Y-56671887D01*
X47243737Y-56970060D02*
X47195895Y-56980804D01*
X67956983Y-29709005D02*
X67970060Y-29756262D01*
X66999012Y-39750000D02*
X66949981Y-39748796D01*
X133894791Y-108018808D02*
X133899879Y-107994047D01*
X129493209Y-24691D02*
X129265877Y-7379D01*
X130748267Y-57315929D02*
X130724562Y-57307150D01*
X66029939Y-43506262D02*
X66043016Y-43459005D01*
X18258790Y-55328112D02*
X18292600Y-55292600D01*
X132615006Y-58546207D02*
X132453792Y-58384993D01*
X99357870Y-55485411D02*
X99382039Y-55528074D01*
X63866552Y-111096319D02*
X64050318Y-110961376D01*
X67707399Y-15542600D02*
X67741209Y-15578112D01*
X66292600Y-15542600D02*
X66328112Y-15508790D01*
X27253Y-107518408D02*
X56057Y-107744572D01*
X86117960Y-56471925D02*
X86095914Y-56428127D01*
X34792600Y-56707399D02*
X34758790Y-56671887D01*
X102576044Y-56383300D02*
X102558397Y-56337552D01*
X66365241Y-42976762D02*
X66403896Y-42946595D01*
X1384976Y-1546225D02*
X1367560Y-1564546D01*
X119804104Y-56980804D02*
X119756262Y-56970060D01*
X65843243Y-3759053D02*
X65836907Y-3734582D01*
X119258790Y-55328112D02*
X119292600Y-55292600D01*
X99423955Y-55616699D02*
X99441602Y-55662447D01*
X31331637Y-56556014D02*
X31303404Y-56596103D01*
X72993668Y-160D02*
X72759418Y-6096D01*
X66571872Y-29095914D02*
X66616699Y-29076044D01*
X132070348Y-110945872D02*
X132247044Y-110801796D01*
X66328112Y-43008790D02*
X66365241Y-42976762D01*
X67989187Y-100602416D02*
X67995189Y-100651080D01*
X66901080Y-12245189D02*
X66852416Y-12239187D01*
X63415281Y-57622401D02*
X63213199Y-57516842D01*
X66328112Y-86258790D02*
X66365241Y-86226762D01*
X1752936Y-58198219D02*
X1733756Y-58214685D01*
X119949981Y-55001203D02*
X119999012Y-55000000D01*
X69564546Y-58367560D02*
X69546225Y-58384976D01*
X66804104Y-86019195D02*
X66852416Y-86010812D01*
X66076044Y-82383300D02*
X66058397Y-82337552D01*
X61769583Y-57059889D02*
X61744597Y-57056061D01*
X67956983Y-25290994D02*
X67941602Y-25337552D01*
X67428127Y-15345914D02*
X67471925Y-15367960D01*
X102943985Y-55168362D02*
X102985411Y-55142129D01*
X71759053Y-156756D02*
X71734582Y-163092D01*
X65894786Y-3981166D02*
X65843249Y-3759077D01*
X133999999Y-5006321D02*
X133999839Y-4993680D01*
X2584718Y-111377598D02*
X2786800Y-111483157D01*
X71016732Y-54589510D02*
X71039961Y-54599478D01*
X2786800Y-516842D02*
X2584718Y-622401D01*
X119196595Y-55403896D02*
X119226762Y-55365241D01*
X130508803Y-54766598D02*
X130724538Y-54692858D01*
X66001203Y-73199981D02*
X66004810Y-73151080D01*
X4481591Y-57027253D02*
X4255427Y-57056057D01*
X129994047Y-54899879D02*
X130018808Y-54894791D01*
X86258790Y-55328112D02*
X86292600Y-55292600D01*
X86258790Y-56671887D02*
X86226762Y-56634758D01*
X61744572Y-56057D02*
X61518408Y-27253D01*
X133940110Y-50769583D02*
X133943938Y-50744597D01*
X66328112Y-82741209D02*
X66292600Y-82707399D01*
X24693Y-50493235D02*
X27251Y-50518383D01*
X31382039Y-56471925D02*
X31357870Y-56514588D01*
X64453774Y-58384976D02*
X64435453Y-58367560D01*
X66196595Y-96346103D02*
X66168362Y-96306014D01*
X35028074Y-55117960D02*
X35071872Y-55095914D01*
X2344623Y-54236263D02*
X2366075Y-54249634D01*
X132050339Y-53961361D02*
X132070328Y-53945888D01*
X65999839Y-4993668D02*
X65993903Y-4759418D01*
X130018833Y-54894786D02*
X130240922Y-54843249D01*
X66365241Y-86226762D02*
X66403896Y-86196595D01*
X71039961Y-57400521D02*
X71016732Y-57410489D01*
X70584696Y-622413D02*
X70562594Y-634680D01*
X72481591Y-57027253D02*
X72255427Y-57056057D01*
X62484636Y-225818D02*
X62265442Y-163099D01*
X62018833Y-54894786D02*
X62240922Y-54843249D01*
X67098919Y-82995189D02*
X67050018Y-82998796D01*
X61006319Y-160D02*
X60993678Y0D01*
X31273237Y-56634758D02*
X31241209Y-56671887D01*
X115050018Y-56998796D02*
X115000987Y-57000000D01*
X64801796Y-110247044D02*
X64945872Y-110070348D01*
X30883300Y-56923955D02*
X30837552Y-56941602D01*
X51485411Y-55142129D02*
X51528074Y-55117960D01*
X66226762Y-96384758D02*
X66196595Y-96346103D01*
X68000000Y-43749012D02*
X68000000Y-49993666D01*
X1214702Y-110266262D02*
X1367543Y-110435434D01*
X66949981Y-15251203D02*
X66999012Y-15250000D01*
X68100115Y-61005977D02*
X68059893Y-61230391D01*
X66756262Y-42779939D02*
X66804104Y-42769195D01*
X18528074Y-55117960D02*
X18571872Y-55095914D01*
X51076044Y-55616699D02*
X51095914Y-55571872D01*
X14980804Y-55804104D02*
X14989187Y-55852416D01*
X66616699Y-39673955D02*
X66571872Y-39654085D01*
X67195895Y-15269195D02*
X67243737Y-15279939D01*
X133236249Y-2344602D02*
X133110788Y-2154236D01*
X70154236Y-54110788D02*
X70344602Y-54236249D01*
X82195895Y-55019195D02*
X82243737Y-55029939D01*
X63845763Y-57889211D02*
X63655397Y-57763750D01*
X131633902Y-750352D02*
X131437427Y-634693D01*
X102510812Y-56147583D02*
X102504810Y-56098919D01*
X66662447Y-69191602D02*
X66616699Y-69173955D01*
X156750Y-60759077D02*
X105213Y-60981166D01*
X119662447Y-55058397D02*
X119709005Y-55043016D01*
X67634758Y-82773237D02*
X67596103Y-82803404D01*
X67857870Y-72735411D02*
X67882039Y-72778074D01*
X24691Y-61506790D02*
X7379Y-61734122D01*
X131190482Y-54494300D02*
X131213176Y-54483168D01*
X102758790Y-56671887D02*
X102726762Y-56634758D01*
X68400511Y-60039985D02*
X68315938Y-60251709D01*
X67882039Y-100278074D02*
X67904085Y-100321872D01*
X133774174Y-3515339D02*
X133766606Y-3491221D01*
X66485411Y-12107870D02*
X66443985Y-12081637D01*
X119949981Y-56998796D02*
X119901080Y-56995189D01*
X67671887Y-29258790D02*
X67707399Y-29292600D01*
X70809540Y-111494311D02*
X71016709Y-111589499D01*
X35116699Y-55076044D02*
X35162447Y-55058397D01*
X225818Y-3515363D02*
X163099Y-3734557D01*
X67596103Y-69053404D02*
X67556014Y-69081637D01*
X3275437Y-57307150D02*
X3251732Y-57315929D01*
X34642129Y-55485411D02*
X34668362Y-55443985D01*
X67556014Y-25831637D02*
X67514588Y-25857870D01*
X66043016Y-100459005D02*
X66058397Y-100412447D01*
X65365319Y-109437405D02*
X65377586Y-109415303D01*
X51485411Y-56857870D02*
X51443985Y-56831637D01*
X67147583Y-29010812D02*
X67195895Y-29019195D01*
X66076044Y-43366699D02*
X66095914Y-43321872D01*
X66004810Y-68348919D02*
X66001203Y-68300018D01*
X66043016Y-72959005D02*
X66058397Y-72912447D01*
X66662447Y-29058397D02*
X66709005Y-29043016D01*
X70786800Y-516842D02*
X70584718Y-622401D01*
X62018833Y-111894786D02*
X62240922Y-111843249D01*
X66485411Y-69107870D02*
X66443985Y-69081637D01*
X67147583Y-82989187D02*
X67098919Y-82995189D01*
X67970060Y-73006262D02*
X67980804Y-73054104D01*
X61006319Y-57000160D02*
X60993678Y-57000000D01*
X47050018Y-55001203D02*
X47098919Y-55004810D01*
X63845763Y-889211D02*
X63655397Y-763750D01*
X67428127Y-29095914D02*
X67471925Y-29117960D01*
X67904085Y-29571872D02*
X67923955Y-29616699D01*
X70562594Y-54365319D02*
X70584696Y-54377586D01*
X66004810Y-38848919D02*
X66001203Y-38800018D01*
X82098919Y-56995189D02*
X82050018Y-56998796D01*
X103209005Y-55043016D02*
X103256262Y-55029939D01*
X70562572Y-634693D02*
X70366097Y-750352D01*
X68634693Y-52437427D02*
X68750352Y-52633902D01*
X133992620Y-61734122D02*
X133975308Y-61506790D01*
X67671887Y-15508790D02*
X67707399Y-15542600D01*
X34696595Y-55403896D02*
X34726762Y-55365241D01*
X132801796Y-53247044D02*
X132945872Y-53070348D01*
X14050018Y-56998796D02*
X14000987Y-57000000D01*
X634693Y-109437427D02*
X750352Y-109633902D01*
X133975308Y-107493209D02*
X133992620Y-107265877D01*
X66662447Y-86058397D02*
X66709005Y-86043016D01*
X66058397Y-96087552D02*
X66043016Y-96040994D01*
X130983290Y-54589499D02*
X131190459Y-54494311D01*
X99498796Y-55949981D02*
X99500000Y-55999012D01*
X72993668Y-57000160D02*
X72759418Y-57006096D01*
X35352416Y-55010812D02*
X35401080Y-55004810D01*
X65684061Y-60251709D02*
X65599488Y-60039985D01*
X505688Y-59809540D02*
X410500Y-60016709D01*
X61994047Y-54899879D02*
X62018808Y-54894791D01*
X82970060Y-56243737D02*
X82956983Y-56290994D01*
X66196595Y-100153896D02*
X66226762Y-100115241D01*
X66095914Y-39178127D02*
X66076044Y-39133300D01*
X67428127Y-86095914D02*
X67471925Y-86117960D01*
X51443985Y-55168362D02*
X51485411Y-55142129D01*
X65365319Y-52437405D02*
X65377586Y-52415303D01*
X63633924Y-54249634D02*
X63655376Y-54236263D01*
X69198219Y-110247063D02*
X69214685Y-110266243D01*
X66616699Y-99826044D02*
X66662447Y-99808397D01*
X30883300Y-55076044D02*
X30928127Y-55095914D01*
X4734122Y-7379D02*
X4506790Y-24691D01*
X35256262Y-55029939D02*
X35304104Y-55019195D01*
X6097Y-107240606D02*
X7377Y-107265852D01*
X66999012Y-12250000D02*
X66949981Y-12248796D01*
X64050339Y-53961361D02*
X64070328Y-53945888D01*
X3016709Y-57410500D02*
X2809540Y-57505688D01*
X65684061Y-3251709D02*
X65599488Y-3039985D01*
X115671887Y-56741209D02*
X115634758Y-56773237D01*
X133843249Y-108240922D02*
X133894786Y-108018833D01*
X82741209Y-55328112D02*
X82773237Y-55365241D01*
X31456983Y-56290994D02*
X31441602Y-56337552D01*
X51258790Y-55328112D02*
X51292600Y-55292600D01*
X72759393Y-57006097D02*
X72734147Y-57007377D01*
X72230391Y-59893D02*
X72005977Y-100115D01*
X14998796Y-55949981D02*
X15000000Y-55999012D01*
X2584696Y-622413D02*
X2562594Y-634680D01*
X47000987Y-55000000D02*
X47050018Y-55001203D01*
X66196595Y-25596103D02*
X66168362Y-25556014D01*
X67634758Y-15476762D02*
X67671887Y-15508790D01*
X131633902Y-57750352D02*
X131437427Y-57634693D01*
X132945888Y-110070328D02*
X132961361Y-110050339D01*
X34558397Y-55662447D02*
X34576044Y-55616699D01*
X66168362Y-100193985D02*
X66196595Y-100153896D01*
X67773237Y-25634758D02*
X67741209Y-25671887D01*
X130960038Y-111599478D02*
X130983267Y-111589510D01*
X67741209Y-11921887D02*
X67707399Y-11957399D01*
X66058397Y-43412447D02*
X66076044Y-43366699D01*
X18043016Y-56290994D02*
X18029939Y-56243737D01*
X66662447Y-96691602D02*
X66616699Y-96673955D01*
X68889211Y-59154236D02*
X68763750Y-59344602D01*
X99404085Y-56428127D02*
X99382039Y-56471925D01*
X47857870Y-56514588D02*
X47831637Y-56556014D01*
X62983290Y-54589499D02*
X63190459Y-54494311D01*
X67634758Y-12023237D02*
X67596103Y-12053404D01*
X67956983Y-86709005D02*
X67970060Y-86756262D01*
X71515339Y-225825D02*
X71491221Y-233393D01*
X51058397Y-56337552D02*
X51043016Y-56290994D01*
X18058397Y-55662447D02*
X18076044Y-55616699D01*
X66852416Y-39739187D02*
X66804104Y-39730804D01*
X102726762Y-55365241D02*
X102758790Y-55328112D01*
X66852416Y-42760812D02*
X66901080Y-42754810D01*
X66095914Y-29571872D02*
X66117960Y-29528074D01*
X903666Y-2133468D02*
X889225Y-2154215D01*
X119616699Y-56923955D02*
X119571872Y-56904085D01*
X82243737Y-55029939D02*
X82290994Y-55043016D01*
X51019195Y-55804104D02*
X51029939Y-55756262D01*
X63655397Y-111236249D02*
X63845763Y-111110788D01*
X70344623Y-54236263D02*
X70366075Y-54249634D01*
X66804104Y-72269195D02*
X66852416Y-72260812D01*
X100115Y-61005977D02*
X59893Y-61230391D01*
X31495189Y-55901080D02*
X31498796Y-55949981D01*
X30971925Y-55117960D02*
X31014588Y-55142129D01*
X67857870Y-68764588D02*
X67831637Y-68806014D01*
X60993678Y-111999999D02*
X61006319Y-111999839D01*
X67831637Y-100193985D02*
X67857870Y-100235411D01*
X119029939Y-55756262D02*
X119043016Y-55709005D01*
X65894791Y-51018808D02*
X65899879Y-50994047D01*
X67147583Y-86010812D02*
X67195895Y-86019195D01*
X115956983Y-56290994D02*
X115941602Y-56337552D01*
X51117960Y-55528074D02*
X51142129Y-55485411D01*
X750352Y-59366097D02*
X634693Y-59562572D01*
X4759393Y-6097D02*
X4734147Y-7377D01*
X31357870Y-55485411D02*
X31382039Y-55528074D01*
X128993666Y0D02*
X73006333Y0D01*
X61744572Y-57056057D02*
X61518408Y-57027253D01*
X14882039Y-56471925D02*
X14857870Y-56514588D01*
X66029939Y-100506262D02*
X66043016Y-100459005D01*
X66010812Y-29852416D02*
X66019195Y-29804104D01*
X65110774Y-2154215D02*
X65096333Y-2133468D01*
X64247063Y-53801780D02*
X64266243Y-53785314D01*
X99480804Y-56195895D02*
X99470060Y-56243737D01*
X66616699Y-29076044D02*
X66662447Y-29058397D01*
X66804104Y-96730804D02*
X66756262Y-96720060D01*
X66117960Y-25471925D02*
X66095914Y-25428127D01*
X66226762Y-100115241D02*
X66258790Y-100078112D01*
X68233401Y-51508803D02*
X68307141Y-51724538D01*
X86196595Y-56596103D02*
X86168362Y-56556014D01*
X67634758Y-25773237D02*
X67596103Y-25803404D01*
X66196595Y-39346103D02*
X66168362Y-39306014D01*
X67882039Y-25471925D02*
X67857870Y-25514588D01*
X98598919Y-56995189D02*
X98550018Y-56998796D01*
X65993903Y-107240581D02*
X65999839Y-107006331D01*
X102903896Y-55196595D02*
X102943985Y-55168362D01*
X67989187Y-25147583D02*
X67980804Y-25195895D01*
X66095914Y-72821872D02*
X66117960Y-72778074D01*
X66662447Y-99808397D02*
X66709005Y-99793016D01*
X67857870Y-43235411D02*
X67882039Y-43278074D01*
X82941602Y-55662447D02*
X82956983Y-55709005D01*
X66142129Y-86485411D02*
X66168362Y-86443985D01*
X1214685Y-58733756D02*
X1198219Y-58752936D01*
X1384993Y-110453792D02*
X1546207Y-110615006D01*
X4506790Y-54975308D02*
X4734122Y-54992620D01*
X130724562Y-111692849D02*
X130748267Y-111684070D01*
X3734582Y-111836907D02*
X3759053Y-111843243D01*
X86095914Y-56428127D02*
X86076044Y-56383300D01*
X35071872Y-56904085D02*
X35028074Y-56882039D01*
X68000000Y-68250987D02*
X67998796Y-68300018D01*
X18019195Y-55804104D02*
X18029939Y-55756262D01*
X67428127Y-99845914D02*
X67471925Y-99867960D01*
X69384993Y-110453792D02*
X69546207Y-110615006D01*
X1929671Y-110945888D02*
X1949660Y-110961361D01*
X69038623Y-58949681D02*
X68903680Y-59133447D01*
X102543016Y-56290994D02*
X102529939Y-56243737D01*
X62240922Y-156750D02*
X62018833Y-105213D01*
X47243737Y-55029939D02*
X47290994Y-55043016D01*
X133096333Y-109866531D02*
X133110774Y-109845784D01*
X67050018Y-99751203D02*
X67098919Y-99754810D01*
X1752936Y-1198219D02*
X1733756Y-1214685D01*
X64632439Y-58564546D02*
X64615023Y-58546225D01*
X47471925Y-55117960D02*
X47514588Y-55142129D01*
X133249634Y-59366075D02*
X133236263Y-59344623D01*
X133110774Y-2154215D02*
X133096333Y-2133468D01*
X119365241Y-55226762D02*
X119403896Y-55196595D01*
X315938Y-108748290D02*
X400511Y-108960014D01*
X103304104Y-56980804D02*
X103256262Y-56970060D01*
X67050018Y-12248796D02*
X67000987Y-12250000D01*
X71491221Y-54766606D02*
X71515339Y-54774174D01*
X634693Y-52437427D02*
X750352Y-52633902D01*
X67773237Y-11884758D02*
X67741209Y-11921887D01*
X102696595Y-55403896D02*
X102726762Y-55365241D01*
X70133447Y-57903680D02*
X69949681Y-58038623D01*
X133494311Y-52190459D02*
X133589499Y-51983290D01*
X1564565Y-110632456D02*
X1733737Y-110785297D01*
X66999012Y-15250000D02*
X67000987Y-15250000D01*
X66949981Y-69248796D02*
X66901080Y-69245189D01*
X131437427Y-54365306D02*
X131633902Y-54249647D01*
X67471925Y-25882039D02*
X67428127Y-25904085D01*
X14050018Y-55001203D02*
X14098919Y-55004810D01*
X67741209Y-96421887D02*
X67707399Y-96457399D01*
X66485411Y-82857870D02*
X66443985Y-82831637D01*
X65684070Y-51748267D02*
X65692849Y-51724562D01*
X129240606Y-54993902D02*
X129265852Y-54992622D01*
X82773237Y-56634758D02*
X82741209Y-56671887D01*
X51142129Y-55485411D02*
X51168362Y-55443985D01*
X63415303Y-111377586D02*
X63437405Y-111365319D01*
X66616699Y-72326044D02*
X66662447Y-72308397D01*
X130748290Y-111684061D02*
X130960014Y-111599488D01*
X2562572Y-634693D02*
X2366097Y-750352D01*
X67803404Y-72653896D02*
X67831637Y-72693985D01*
X61006331Y-54999839D02*
X61240581Y-54993903D01*
X66029939Y-68493737D02*
X66019195Y-68445895D01*
X51058397Y-55662447D02*
X51076044Y-55616699D01*
X71759077Y-111843249D02*
X71981166Y-111894786D01*
X115904085Y-55571872D02*
X115923955Y-55616699D01*
X66365241Y-29226762D02*
X66403896Y-29196595D01*
X66010812Y-86852416D02*
X66019195Y-86804104D01*
X67195895Y-69230804D02*
X67147583Y-69239187D01*
X102828112Y-56741209D02*
X102792600Y-56707399D01*
X67671887Y-25741209D02*
X67634758Y-25773237D01*
X99441602Y-56337552D02*
X99423955Y-56383300D01*
X67882039Y-11721925D02*
X67857870Y-11764588D01*
X134000000Y-106993666D02*
X134000000Y-62006333D01*
X67995189Y-68348919D02*
X67989187Y-68397583D01*
X67556014Y-96581637D02*
X67514588Y-96607870D01*
X66142129Y-72735411D02*
X66168362Y-72693985D01*
X64632439Y-1564546D02*
X64615023Y-1546225D01*
X66168362Y-25556014D02*
X66142129Y-25514588D01*
X66528074Y-99867960D02*
X66571872Y-99845914D01*
X634680Y-59562594D02*
X622413Y-59584696D01*
X35449981Y-55001203D02*
X35499012Y-55000000D01*
X66019195Y-16054104D02*
X66029939Y-16006262D01*
X35162447Y-55058397D02*
X35209005Y-55043016D01*
X400521Y-51960038D02*
X410489Y-51983267D01*
X131415281Y-57622401D02*
X131213199Y-57516842D01*
X132961376Y-53050318D02*
X133096319Y-52866552D01*
X66403896Y-96553404D02*
X66365241Y-96523237D01*
X82050018Y-56998796D02*
X82000987Y-57000000D01*
X67471925Y-29117960D02*
X67514588Y-29142129D01*
X18226762Y-56634758D02*
X18196595Y-56596103D01*
X66226762Y-82634758D02*
X66196595Y-82596103D01*
X31014588Y-56857870D02*
X30971925Y-56882039D01*
X131633924Y-54249634D02*
X131655376Y-54236263D01*
X2344602Y-763750D02*
X2154236Y-889211D01*
X68750352Y-59366097D02*
X68634693Y-59562572D01*
X133943938Y-4255402D02*
X133940110Y-4230416D01*
X62983267Y-57410489D02*
X62960038Y-57400521D01*
X30695895Y-55019195D02*
X30743737Y-55029939D01*
X65975308Y-50493209D02*
X65992620Y-50265877D01*
X48000000Y-56000987D02*
X47998796Y-56050018D01*
X133940106Y-61230391D02*
X133899884Y-61005977D01*
X66403896Y-42946595D02*
X66443985Y-42918362D01*
X71734582Y-111836907D02*
X71759053Y-111843243D01*
X65494311Y-109190459D02*
X65589499Y-108983290D01*
X67741209Y-15578112D02*
X67773237Y-15615241D01*
X133992622Y-107265852D02*
X133993902Y-107240606D01*
X66117960Y-96221925D02*
X66095914Y-96178127D01*
X67556014Y-15418362D02*
X67596103Y-15446595D01*
X14195895Y-56980804D02*
X14147583Y-56989187D01*
X67980804Y-16054104D02*
X67989187Y-16102416D01*
X67098919Y-12245189D02*
X67050018Y-12248796D01*
X133975306Y-61506764D02*
X133972748Y-61481616D01*
X64961376Y-110050318D02*
X65096319Y-109866552D01*
X14803404Y-56596103D02*
X14773237Y-56634758D01*
X6096Y-4759418D02*
X160Y-4993668D01*
X67995189Y-86901080D02*
X67998796Y-86949981D01*
X132615023Y-110453774D02*
X132632439Y-110435453D01*
X130265417Y-57163092D02*
X130240946Y-57156756D01*
X133836900Y-3734557D02*
X133774181Y-3515363D01*
X69214685Y-1733756D02*
X69198219Y-1752936D01*
X86142129Y-55485411D02*
X86168362Y-55443985D01*
X67970060Y-38993737D02*
X67956983Y-39040994D01*
X133843243Y-3759053D02*
X133836907Y-3734582D01*
X51095914Y-55571872D02*
X51117960Y-55528074D01*
X115634758Y-56773237D02*
X115596103Y-56803404D01*
X67195895Y-12230804D02*
X67147583Y-12239187D01*
X99480804Y-55804104D02*
X99489187Y-55852416D01*
X115000987Y-55000000D02*
X115050018Y-55001203D01*
X62748267Y-315929D02*
X62724562Y-307150D01*
X14147583Y-56989187D02*
X14098919Y-56995189D01*
X66662447Y-42808397D02*
X66709005Y-42793016D01*
X67803404Y-82596103D02*
X67773237Y-82634758D01*
X66001203Y-82050018D02*
X66000000Y-82000987D01*
X51226762Y-56634758D02*
X51196595Y-56596103D01*
X1054111Y-1929671D02*
X1038638Y-1949660D01*
X67556014Y-69081637D02*
X67514588Y-69107870D01*
X2562594Y-111365319D02*
X2584696Y-111377586D01*
X5006333Y-112000000D02*
X60993666Y-112000000D01*
X65249634Y-2366075D02*
X65236263Y-2344623D01*
X133589510Y-51983267D02*
X133599478Y-51960038D01*
X35071872Y-55095914D02*
X35116699Y-55076044D01*
X18029939Y-55756262D02*
X18043016Y-55709005D01*
X14290994Y-56956983D02*
X14243737Y-56970060D01*
X65766606Y-51508778D02*
X65774174Y-51484660D01*
X67147583Y-42760812D02*
X67195895Y-42769195D01*
X66852416Y-25989187D02*
X66804104Y-25980804D01*
X63633902Y-750352D02*
X63437427Y-634693D01*
X82831637Y-56556014D02*
X82803404Y-56596103D01*
X14195895Y-55019195D02*
X14243737Y-55029939D01*
X307141Y-60275461D02*
X233401Y-60491196D01*
X62983290Y-111589499D02*
X63190459Y-111494311D01*
X410500Y-51983290D02*
X505688Y-52190459D01*
X66756262Y-15279939D02*
X66804104Y-15269195D01*
X47556014Y-55168362D02*
X47596103Y-55196595D01*
X67514588Y-42892129D02*
X67556014Y-42918362D01*
X3039985Y-111599488D02*
X3251709Y-111684061D01*
X102529939Y-55756262D02*
X102543016Y-55709005D01*
X68622401Y-59584718D02*
X68516842Y-59786800D01*
X64247063Y-110801780D02*
X64266243Y-110785314D01*
X72230416Y-111940110D02*
X72255402Y-111943938D01*
X56061Y-107744597D02*
X59889Y-107769583D01*
X66485411Y-39607870D02*
X66443985Y-39581637D01*
X86058397Y-55662447D02*
X86076044Y-55616699D01*
X86004810Y-56098919D02*
X86001203Y-56050018D01*
X129769608Y-54940106D02*
X129994022Y-54899884D01*
X119365241Y-56773237D02*
X119328112Y-56741209D01*
X86095914Y-55571872D02*
X86117960Y-55528074D01*
X51196595Y-56596103D02*
X51168362Y-56556014D01*
X14147583Y-55010812D02*
X14195895Y-55019195D01*
X34642129Y-56514588D02*
X34617960Y-56471925D01*
X65899879Y-4005952D02*
X65894791Y-3981191D01*
X119999012Y-55000000D02*
X128993666Y-55000000D01*
X64801796Y-53247044D02*
X64945872Y-53070348D01*
X67998796Y-38800018D02*
X67995189Y-38848919D01*
X67290994Y-15293016D02*
X67337552Y-15308397D01*
X66709005Y-39706983D02*
X66662447Y-39691602D01*
X67596103Y-25803404D02*
X67556014Y-25831637D01*
X67428127Y-72345914D02*
X67471925Y-72367960D01*
X67337552Y-69191602D02*
X67290994Y-69206983D01*
X129518383Y-57027251D02*
X129493235Y-57024693D01*
X119196595Y-56596103D02*
X119168362Y-56556014D01*
X0Y-5006333D02*
X0Y-49993666D01*
X61518408Y-54972746D02*
X61744572Y-54943942D01*
X889225Y-109845784D02*
X903666Y-109866531D01*
X66043016Y-43459005D02*
X66058397Y-43412447D01*
X115050018Y-55001203D02*
X115098919Y-55004810D01*
X68516842Y-52213199D02*
X68622401Y-52415281D01*
X34943985Y-55168362D02*
X34985411Y-55142129D01*
X64266262Y-53785297D02*
X64435434Y-53632456D01*
X66804104Y-15269195D02*
X66852416Y-15260812D01*
X4230391Y-57059893D02*
X4005977Y-57100115D01*
X132070328Y-1054111D02*
X132050339Y-1038638D01*
X67243737Y-42779939D02*
X67290994Y-42793016D01*
X115904085Y-56428127D02*
X115882039Y-56471925D01*
X51000000Y-55999012D02*
X51001203Y-55949981D01*
X133365319Y-109437405D02*
X133377586Y-109415303D01*
X102726762Y-56634758D02*
X102696595Y-56596103D01*
X66001203Y-38800018D02*
X66000000Y-38750987D01*
X156756Y-51240946D02*
X163092Y-51265417D01*
X67741209Y-72578112D02*
X67773237Y-72615241D01*
X115989187Y-55852416D02*
X115995189Y-55901080D01*
X3491221Y-111766606D02*
X3515339Y-111774174D01*
X66949981Y-12248796D02*
X66901080Y-12245189D01*
X67956983Y-100459005D02*
X67970060Y-100506262D01*
X119709005Y-55043016D02*
X119756262Y-55029939D01*
X119403896Y-56803404D02*
X119365241Y-56773237D01*
X71515363Y-54774181D02*
X71734557Y-54836900D01*
X400521Y-108960038D02*
X410489Y-108983267D01*
X67995189Y-16151080D02*
X67998796Y-16199981D01*
X67000987Y-12250000D02*
X66999012Y-12250000D01*
X82098919Y-55004810D02*
X82147583Y-55010812D01*
X68007379Y-50265877D02*
X68024691Y-50493209D01*
X133894791Y-51018808D02*
X133899879Y-50994047D01*
X14857870Y-56514588D02*
X14831637Y-56556014D01*
X18292600Y-56707399D02*
X18258790Y-56671887D01*
X66571872Y-86095914D02*
X66616699Y-86076044D01*
X66010812Y-38897583D02*
X66004810Y-38848919D01*
X65236249Y-59344602D02*
X65110788Y-59154236D01*
X66528074Y-42867960D02*
X66571872Y-42845914D01*
X119616699Y-55076044D02*
X119662447Y-55058397D01*
X14471925Y-55117960D02*
X14514588Y-55142129D01*
X65110774Y-59154215D02*
X65096333Y-59133468D01*
X34696595Y-56596103D02*
X34668362Y-56556014D01*
X67596103Y-96553404D02*
X67556014Y-96581637D01*
X66142129Y-68764588D02*
X66117960Y-68721925D01*
X82195895Y-56980804D02*
X82147583Y-56989187D01*
X129994047Y-111899879D02*
X130018808Y-111894791D01*
X119029939Y-56243737D02*
X119019195Y-56195895D01*
X30550018Y-56998796D02*
X30500987Y-57000000D01*
X66043016Y-25290994D02*
X66029939Y-25243737D01*
X31470060Y-56243737D02*
X31456983Y-56290994D01*
X67337552Y-39691602D02*
X67290994Y-39706983D01*
X67634758Y-69023237D02*
X67596103Y-69053404D01*
X65843249Y-108240922D02*
X65894786Y-108018833D01*
X66328112Y-11991209D02*
X66292600Y-11957399D01*
X3759077Y-54843249D02*
X3981166Y-54894786D01*
X132435453Y-110632439D02*
X132453774Y-110615023D01*
X133899884Y-50994022D02*
X133940106Y-50769608D01*
X129994022Y-100115D02*
X129769608Y-59893D01*
X64785314Y-53266243D02*
X64801780Y-53247063D01*
X315929Y-60251732D02*
X307150Y-60275437D01*
X67941602Y-25337552D02*
X67923955Y-25383300D01*
X34529939Y-55756262D02*
X34543016Y-55709005D01*
X67998796Y-16199981D02*
X68000000Y-16249012D01*
X67831637Y-29443985D02*
X67857870Y-29485411D01*
X14831637Y-56556014D02*
X14803404Y-56596103D01*
X67243737Y-86029939D02*
X67290994Y-86043016D01*
X68763750Y-52655397D02*
X68889211Y-52845763D01*
X67290994Y-12206983D02*
X67243737Y-12220060D01*
X67941602Y-68587552D02*
X67923955Y-68633300D01*
X86709005Y-56956983D02*
X86662447Y-56941602D01*
X133377586Y-2584696D02*
X133365319Y-2562594D01*
X750352Y-2366097D02*
X634693Y-2562572D01*
X67098919Y-72254810D02*
X67147583Y-72260812D01*
X67514588Y-25857870D02*
X67471925Y-25882039D01*
X68903680Y-52866552D02*
X69038623Y-53050318D01*
X18571872Y-56904085D02*
X18528074Y-56882039D01*
X67147583Y-25989187D02*
X67098919Y-25995189D01*
X119095914Y-56428127D02*
X119076044Y-56383300D01*
X98743737Y-55029939D02*
X98790994Y-55043016D01*
X133774181Y-51484636D02*
X133836900Y-51265442D01*
X66142129Y-96264588D02*
X66117960Y-96221925D01*
X34668362Y-55443985D02*
X34696595Y-55403896D01*
X3491196Y-57233401D02*
X3275461Y-57307141D01*
X68410500Y-108983290D02*
X68505688Y-109190459D01*
X67989187Y-29852416D02*
X67995189Y-29901080D01*
X119662447Y-56941602D02*
X119616699Y-56923955D01*
X47998796Y-56050018D02*
X47995189Y-56098919D01*
X31207399Y-56707399D02*
X31171887Y-56741209D01*
X132961376Y-110050318D02*
X133096319Y-109866552D01*
X86403896Y-56803404D02*
X86365241Y-56773237D01*
X72005977Y-111899884D02*
X72230391Y-111940106D01*
X51043016Y-55709005D02*
X51058397Y-55662447D01*
X86076044Y-56383300D02*
X86058397Y-56337552D01*
X315938Y-51748290D02*
X400511Y-51960014D01*
X103028074Y-56882039D02*
X102985411Y-56857870D01*
X102865241Y-55226762D02*
X102903896Y-55196595D01*
X14634758Y-55226762D02*
X14671887Y-55258790D01*
X47337552Y-56941602D02*
X47290994Y-56956983D01*
X67337552Y-96691602D02*
X67290994Y-96706983D01*
X67773237Y-15615241D02*
X67803404Y-15653896D01*
X47290994Y-55043016D02*
X47337552Y-55058397D01*
X34943985Y-56831637D02*
X34903896Y-56803404D01*
X14941602Y-55662447D02*
X14956983Y-55709005D01*
X86076044Y-55616699D02*
X86095914Y-55571872D01*
X51000000Y-56000987D02*
X51000000Y-55999012D01*
X14337552Y-56941602D02*
X14290994Y-56956983D01*
X1949681Y-110961376D02*
X2133447Y-111096319D01*
X129769583Y-57059889D02*
X129744597Y-57056061D01*
X68889225Y-109845784D02*
X68903666Y-109866531D01*
X30971925Y-56882039D02*
X30928127Y-56904085D01*
X130983290Y-111589499D02*
X131190459Y-111494311D01*
X66403896Y-25803404D02*
X66365241Y-25773237D01*
X67970060Y-16006262D02*
X67980804Y-16054104D01*
X66485411Y-25857870D02*
X66443985Y-25831637D01*
X66901080Y-42754810D02*
X66949981Y-42751203D01*
X67831637Y-72693985D02*
X67857870Y-72735411D01*
X67383300Y-25923955D02*
X67337552Y-25941602D01*
X14941602Y-56337552D02*
X14923955Y-56383300D01*
X14098919Y-55004810D02*
X14147583Y-55010812D01*
X115671887Y-55258790D02*
X115707399Y-55292600D01*
X70344602Y-57763750D02*
X70154236Y-57889211D01*
X65975306Y-4506764D02*
X65972748Y-4481616D01*
X18019195Y-56195895D02*
X18010812Y-56147583D01*
X67290994Y-69206983D02*
X67243737Y-69220060D01*
X67923955Y-82383300D02*
X67904085Y-82428127D01*
X67000987Y-96750000D02*
X66999012Y-96750000D01*
X67337552Y-72308397D02*
X67383300Y-72326044D01*
X67050018Y-42751203D02*
X67098919Y-42754810D01*
X516842Y-52213199D02*
X622401Y-52415281D01*
X119528074Y-55117960D02*
X119571872Y-55095914D01*
X71251732Y-54684070D02*
X71275437Y-54692849D01*
X65992620Y-4734122D02*
X65975308Y-4506790D01*
X67195895Y-39730804D02*
X67147583Y-39739187D01*
X62960014Y-57400511D02*
X62748290Y-57315938D01*
X67882039Y-86528074D02*
X67904085Y-86571872D01*
X3515339Y-57225825D02*
X3491221Y-57233393D01*
X130960014Y-57400511D02*
X130748290Y-57315938D01*
X99014588Y-55142129D02*
X99056014Y-55168362D01*
X67634758Y-72476762D02*
X67671887Y-72508790D01*
X4481616Y-111972748D02*
X4506764Y-111975306D01*
X131190459Y-57505688D02*
X130983290Y-57410500D01*
X622413Y-52415303D02*
X634680Y-52437405D01*
X82970060Y-55756262D02*
X82980804Y-55804104D01*
X119019195Y-56195895D02*
X119010812Y-56147583D01*
X35162447Y-56941602D02*
X35116699Y-56923955D01*
X51571872Y-56904085D02*
X51528074Y-56882039D01*
X116000000Y-55999012D02*
X116000000Y-56000987D01*
X71251709Y-315938D02*
X71039985Y-400511D01*
X115000987Y-57000000D02*
X103499012Y-57000000D01*
X2154236Y-54110788D02*
X2344602Y-54236249D01*
X66000000Y-95750987D02*
X66000000Y-86999012D01*
X65483157Y-59786800D02*
X65377598Y-59584718D01*
X67383300Y-42826044D02*
X67428127Y-42845914D01*
X2366097Y-111249647D02*
X2562572Y-111365306D01*
X2366097Y-54249647D02*
X2562572Y-54365306D01*
X51901080Y-56995189D02*
X51852416Y-56989187D01*
X99489187Y-56147583D02*
X99480804Y-56195895D01*
X69384976Y-58546225D02*
X69367560Y-58564546D01*
X67471925Y-82882039D02*
X67428127Y-82904085D01*
X66258790Y-68921887D02*
X66226762Y-68884758D01*
X14634758Y-56773237D02*
X14596103Y-56803404D01*
X51001203Y-55949981D02*
X51004810Y-55901080D01*
X86528074Y-55117960D02*
X86571872Y-55095914D01*
X68622413Y-52415303D02*
X68634680Y-52437405D01*
X69367560Y-110435453D02*
X69384976Y-110453774D01*
X66571872Y-12154085D02*
X66528074Y-12132039D01*
X66168362Y-15693985D02*
X66196595Y-15653896D01*
X102696595Y-56596103D02*
X102668362Y-56556014D01*
X34903896Y-55196595D02*
X34943985Y-55168362D01*
X622401Y-2584718D02*
X516842Y-2786800D01*
X67290994Y-42793016D02*
X67337552Y-42808397D01*
X66616699Y-96673955D02*
X66571872Y-96654085D01*
X68233393Y-60491221D02*
X68225825Y-60515339D01*
X3016732Y-111589510D02*
X3039961Y-111599478D01*
X34558397Y-56337552D02*
X34543016Y-56290994D01*
X67671887Y-96491209D02*
X67634758Y-96523237D01*
X68505699Y-109190482D02*
X68516831Y-109213176D01*
X131845763Y-57889211D02*
X131655397Y-57763750D01*
X86365241Y-56773237D02*
X86328112Y-56741209D01*
X61744597Y-54943938D02*
X61769583Y-54940110D01*
X72255427Y-54943942D02*
X72481591Y-54972746D01*
X68000000Y-100749012D02*
X68000000Y-106993666D01*
X66443985Y-39581637D02*
X66403896Y-39553404D01*
X51999012Y-55000000D02*
X60993666Y-55000000D01*
X82956983Y-55709005D02*
X82970060Y-55756262D01*
X72734122Y-57007379D02*
X72506790Y-57024691D01*
X66010812Y-16102416D02*
X66019195Y-16054104D01*
X69564565Y-110632456D02*
X69733737Y-110785297D01*
X66142129Y-29485411D02*
X66168362Y-29443985D01*
X86662447Y-56941602D02*
X86616699Y-56923955D01*
X133999999Y-62006321D02*
X133999839Y-61993680D01*
X67195895Y-82980804D02*
X67147583Y-82989187D01*
X133972746Y-4481591D02*
X133943942Y-4255427D01*
X66117960Y-68721925D02*
X66095914Y-68678127D01*
X66804104Y-25980804D02*
X66756262Y-25970060D01*
X67098919Y-15254810D02*
X67147583Y-15260812D01*
X132632456Y-53435434D02*
X132785297Y-53266262D01*
X47147583Y-55010812D02*
X47195895Y-55019195D01*
X889211Y-59154236D02*
X763750Y-59344602D01*
X65993903Y-50240581D02*
X65999839Y-50006331D01*
X115803404Y-56596103D02*
X115773237Y-56634758D01*
X1564546Y-58367560D02*
X1546225Y-58384976D01*
X65992622Y-50265852D02*
X65993902Y-50240606D01*
X129744597Y-111943938D02*
X129769583Y-111940110D01*
X18901080Y-55004810D02*
X18949981Y-55001203D01*
X99134758Y-56773237D02*
X99096103Y-56803404D01*
X51949981Y-55001203D02*
X51999012Y-55000000D01*
X86226762Y-56634758D02*
X86196595Y-56596103D01*
X69752936Y-58198219D02*
X69733756Y-58214685D01*
X82831637Y-55443985D02*
X82857870Y-55485411D01*
X132247044Y-58198203D02*
X132070348Y-58054127D01*
X6096Y-61759418D02*
X160Y-61993668D01*
X65766598Y-60491196D02*
X65692858Y-60275461D01*
X31404085Y-55571872D02*
X31423955Y-55616699D01*
X66443985Y-42918362D02*
X66485411Y-42892129D01*
X66019195Y-43554104D02*
X66029939Y-43506262D01*
X115773237Y-55365241D02*
X115803404Y-55403896D01*
X47556014Y-56831637D02*
X47514588Y-56857870D01*
X66168362Y-11806014D02*
X66142129Y-11764588D01*
X102617960Y-55528074D02*
X102642129Y-55485411D01*
X18571872Y-55095914D02*
X18616699Y-55076044D01*
X66901080Y-25995189D02*
X66852416Y-25989187D01*
X67596103Y-15446595D02*
X67634758Y-15476762D01*
X68056057Y-4255427D02*
X68027253Y-4481591D01*
X62265417Y-57163092D02*
X62240946Y-57156756D01*
X69564546Y-1367560D02*
X69546225Y-1384976D01*
X65999839Y-107006319D02*
X65999999Y-106993678D01*
X3251709Y-57315938D02*
X3039985Y-57400511D01*
X70133468Y-111096333D02*
X70154215Y-111110774D01*
X18365241Y-55226762D02*
X18403896Y-55196595D01*
X67000987Y-39750000D02*
X66999012Y-39750000D01*
X65836900Y-3734557D02*
X65774181Y-3515363D01*
X14707399Y-56707399D02*
X14671887Y-56741209D01*
X31357870Y-56514588D02*
X31331637Y-56556014D01*
X99441602Y-55662447D02*
X99456983Y-55709005D01*
X71016709Y-410500D02*
X70809540Y-505688D01*
X63213176Y-516831D02*
X63190482Y-505699D01*
X66852416Y-12239187D02*
X66804104Y-12230804D01*
X62748267Y-57315929D02*
X62724562Y-57307150D01*
X72993680Y-54999839D02*
X73006321Y-54999999D01*
X63633924Y-111249634D02*
X63655376Y-111236263D01*
X67980804Y-100554104D02*
X67989187Y-100602416D01*
X35401080Y-56995189D02*
X35352416Y-56989187D01*
X18852416Y-55010812D02*
X18901080Y-55004810D01*
X73006333Y-112000000D02*
X128993666Y-112000000D01*
X133494300Y-2809517D02*
X133483168Y-2786823D01*
X65589499Y-60016709D02*
X65494311Y-59809540D01*
X132945872Y-58929651D02*
X132801796Y-58752955D01*
X66528074Y-86117960D02*
X66571872Y-86095914D01*
X133692849Y-3275437D02*
X133684070Y-3251732D01*
X2809540Y-111494311D02*
X3016709Y-111589499D01*
X68007377Y-61734147D02*
X68006097Y-61759393D01*
X67596103Y-82803404D02*
X67556014Y-82831637D01*
X66852416Y-15260812D02*
X66901080Y-15254810D01*
X119019195Y-55804104D02*
X119029939Y-55756262D01*
X65365306Y-59562572D02*
X65249647Y-59366097D01*
X69367543Y-58564565D02*
X69214702Y-58733737D01*
X67000987Y-42750000D02*
X67050018Y-42751203D01*
X47998796Y-55949981D02*
X48000000Y-55999012D01*
X47831637Y-56556014D02*
X47803404Y-56596103D01*
X133992622Y-50265852D02*
X133993902Y-50240606D01*
X67514588Y-69107870D02*
X67471925Y-69132039D01*
X133249647Y-52633902D02*
X133365306Y-52437427D01*
X67671887Y-68991209D02*
X67634758Y-69023237D01*
X71734582Y-54836907D02*
X71759053Y-54843243D01*
X65249647Y-109633902D02*
X65365306Y-109437427D01*
X47923955Y-56383300D02*
X47904085Y-56428127D01*
X65943942Y-107744572D02*
X65972746Y-107518408D01*
X63866531Y-903666D02*
X63845784Y-889225D01*
X47803404Y-56596103D02*
X47773237Y-56634758D01*
X67634758Y-86226762D02*
X67671887Y-86258790D01*
X66010812Y-100602416D02*
X66019195Y-100554104D01*
X66076044Y-25383300D02*
X66058397Y-25337552D01*
X133249647Y-109633902D02*
X133365306Y-109437427D01*
X67941602Y-96087552D02*
X67923955Y-96133300D01*
X66010812Y-43602416D02*
X66019195Y-43554104D01*
X131866531Y-903666D02*
X131845784Y-889225D01*
X65843249Y-51240922D02*
X65894786Y-51018833D01*
X67147583Y-12239187D02*
X67098919Y-12245189D01*
X115596103Y-55196595D02*
X115634758Y-55226762D01*
X68505688Y-59809540D02*
X68410500Y-60016709D01*
X72506790Y-111975308D02*
X72734122Y-111992620D01*
X62508778Y-57233393D02*
X62484660Y-57225825D01*
X66528074Y-29117960D02*
X66571872Y-29095914D01*
X66901080Y-39745189D02*
X66852416Y-39739187D01*
X132247044Y-1198203D02*
X132070348Y-1054127D01*
X119001203Y-55949981D02*
X119004810Y-55901080D01*
X63437405Y-634680D02*
X63415303Y-622413D01*
X67000987Y-83000000D02*
X66999012Y-83000000D01*
X68006097Y-50240606D02*
X68007377Y-50265852D01*
X65972746Y-4481591D02*
X65943942Y-4255427D01*
X131415303Y-54377586D02*
X131437405Y-54365319D01*
X65993902Y-4759393D02*
X65992622Y-4734147D01*
X66058397Y-39087552D02*
X66043016Y-39040994D01*
X65494311Y-52190459D02*
X65589499Y-51983290D01*
X99303404Y-56596103D02*
X99273237Y-56634758D01*
X2786800Y-57516842D02*
X2584718Y-57622401D01*
X67471925Y-69132039D02*
X67428127Y-69154085D01*
X66010812Y-25147583D02*
X66004810Y-25098919D01*
X67941602Y-11587552D02*
X67923955Y-11633300D01*
X34726762Y-56634758D02*
X34696595Y-56596103D01*
X66616699Y-12173955D02*
X66571872Y-12154085D01*
X410489Y-3016732D02*
X400521Y-3039961D01*
X67383300Y-29076044D02*
X67428127Y-29095914D01*
X66076044Y-86616699D02*
X66095914Y-86571872D01*
X66999012Y-86000000D02*
X67000987Y-86000000D01*
X66004810Y-73151080D02*
X66010812Y-73102416D01*
X61265877Y-54992620D02*
X61493209Y-54975308D01*
X64435453Y-110632439D02*
X64453774Y-110615023D01*
X31480804Y-55804104D02*
X31489187Y-55852416D01*
X14671887Y-55258790D02*
X14707399Y-55292600D01*
X67923955Y-72866699D02*
X67941602Y-72912447D01*
X98647583Y-56989187D02*
X98598919Y-56995189D01*
X132435434Y-58367543D02*
X132266262Y-58214702D01*
X129265877Y-111992620D02*
X129493209Y-111975308D01*
X67956983Y-15959005D02*
X67970060Y-16006262D01*
X67831637Y-82556014D02*
X67803404Y-82596103D01*
X67904085Y-100321872D02*
X67923955Y-100366699D01*
X82904085Y-56428127D02*
X82882039Y-56471925D01*
X51804104Y-55019195D02*
X51852416Y-55010812D01*
X18328112Y-56741209D02*
X18292600Y-56707399D01*
X119328112Y-55258790D02*
X119365241Y-55226762D01*
X18443985Y-55168362D02*
X18485411Y-55142129D01*
X3039961Y-57400521D02*
X3016732Y-57410489D01*
X65975306Y-61506764D02*
X65972748Y-61481616D01*
X70809517Y-57505699D02*
X70786823Y-57516831D01*
X132050318Y-1038623D02*
X131866552Y-903680D01*
X66258790Y-39421887D02*
X66226762Y-39384758D01*
X98883300Y-56923955D02*
X98837552Y-56941602D01*
X31207399Y-55292600D02*
X31241209Y-55328112D01*
X65766598Y-3491196D02*
X65692858Y-3275461D01*
X98550018Y-56998796D02*
X98500987Y-57000000D01*
X51756262Y-55029939D02*
X51804104Y-55019195D01*
X14857870Y-55485411D02*
X14882039Y-55528074D01*
X65972748Y-50518383D02*
X65975306Y-50493235D01*
X2809517Y-505699D02*
X2786823Y-516831D01*
X66142129Y-39264588D02*
X66117960Y-39221925D01*
X99331637Y-55443985D02*
X99357870Y-55485411D01*
X65766606Y-108508778D02*
X65774174Y-108484660D01*
X67941602Y-72912447D02*
X67956983Y-72959005D01*
X115970060Y-55756262D02*
X115980804Y-55804104D01*
X68163092Y-60734582D02*
X68156756Y-60759053D01*
X67773237Y-72615241D02*
X67803404Y-72653896D01*
X133940110Y-107769583D02*
X133943938Y-107744597D01*
X18528074Y-56882039D02*
X18485411Y-56857870D01*
X66756262Y-12220060D02*
X66709005Y-12206983D01*
X67337552Y-99808397D02*
X67383300Y-99826044D01*
X133096319Y-2133447D02*
X132961376Y-1949681D01*
X66571872Y-96654085D02*
X66528074Y-96632039D01*
X103256262Y-56970060D02*
X103209005Y-56956983D01*
X98598919Y-55004810D02*
X98647583Y-55010812D01*
X69546225Y-110615023D02*
X69564546Y-110632439D01*
X67337552Y-42808397D02*
X67383300Y-42826044D01*
X72734122Y-7379D02*
X72506790Y-24691D01*
X119443985Y-56831637D02*
X119403896Y-56803404D01*
X67634758Y-39523237D02*
X67596103Y-39553404D01*
X47195895Y-55019195D02*
X47243737Y-55029939D01*
X130018833Y-111894786D02*
X130240922Y-111843249D01*
X67998796Y-25050018D02*
X67995189Y-25098919D01*
X65992620Y-61734122D02*
X65975308Y-61506790D01*
X119571872Y-55095914D02*
X119616699Y-55076044D01*
X68000000Y-73249012D02*
X68000000Y-82000987D01*
X34617960Y-55528074D02*
X34642129Y-55485411D01*
X133365306Y-59562572D02*
X133249647Y-59366097D01*
X14514588Y-56857870D02*
X14471925Y-56882039D01*
X47980804Y-56195895D02*
X47970060Y-56243737D01*
X71491221Y-111766606D02*
X71515339Y-111774174D01*
X64070348Y-53945872D02*
X64247044Y-53801796D01*
X66443985Y-99918362D02*
X66485411Y-99892129D01*
X67514588Y-39607870D02*
X67471925Y-39632039D01*
X51043016Y-56290994D02*
X51029939Y-56243737D01*
X115195895Y-55019195D02*
X115243737Y-55029939D01*
X67596103Y-72446595D02*
X67634758Y-72476762D01*
X66001203Y-29949981D02*
X66004810Y-29901080D01*
X66365241Y-12023237D02*
X66328112Y-11991209D01*
X233393Y-60491221D02*
X225825Y-60515339D01*
X34504810Y-56098919D02*
X34501203Y-56050018D01*
X67671887Y-72508790D02*
X67707399Y-72542600D01*
X67098919Y-99754810D02*
X67147583Y-99760812D01*
X34792600Y-55292600D02*
X34828112Y-55258790D01*
X66999012Y-83000000D02*
X66949981Y-82998796D01*
X47707399Y-55292600D02*
X47741209Y-55328112D01*
X70366075Y-750365D02*
X70344623Y-763736D01*
X30743737Y-56970060D02*
X30695895Y-56980804D01*
X64615006Y-1546207D02*
X64453792Y-1384993D01*
X86142129Y-56514588D02*
X86117960Y-56471925D01*
X62724562Y-54692849D02*
X62748267Y-54684070D01*
X72481616Y-54972748D02*
X72506764Y-54975306D01*
X132632439Y-1564546D02*
X132615023Y-1546225D01*
X86852416Y-55010812D02*
X86901080Y-55004810D01*
X307150Y-108724562D02*
X315929Y-108748267D01*
X14956983Y-56290994D02*
X14941602Y-56337552D01*
X67857870Y-86485411D02*
X67882039Y-86528074D01*
X103304104Y-55019195D02*
X103352416Y-55010812D01*
X73006321Y-57000000D02*
X72993680Y-57000160D01*
X133993903Y-50240581D02*
X133999839Y-50006331D01*
X119485411Y-56857870D02*
X119443985Y-56831637D01*
X66001203Y-95800018D02*
X66000000Y-95750987D01*
X47098919Y-55004810D02*
X47147583Y-55010812D01*
X70809517Y-505699D02*
X70786823Y-516831D01*
X66999012Y-42750000D02*
X67000987Y-42750000D01*
X18365241Y-56773237D02*
X18328112Y-56741209D01*
X66004810Y-29901080D02*
X66010812Y-29852416D01*
X64070328Y-1054111D02*
X64050339Y-1038638D01*
X70366097Y-54249647D02*
X70562572Y-54365306D01*
X67970060Y-29756262D02*
X67980804Y-29804104D01*
X1054127Y-53070348D02*
X1198203Y-53247044D01*
X69929671Y-53945888D02*
X69949660Y-53961361D01*
X67923955Y-11633300D02*
X67904085Y-11678127D01*
X133110788Y-52845763D02*
X133236249Y-52655397D01*
X66058397Y-82337552D02*
X66043016Y-82290994D01*
X66000000Y-86999012D02*
X66001203Y-86949981D01*
X67995189Y-11348919D02*
X67989187Y-11397583D01*
X66168362Y-68806014D02*
X66142129Y-68764588D01*
X225818Y-60515363D02*
X163099Y-60734557D01*
X61265852Y-7377D02*
X61240606Y-6097D01*
X68105208Y-3981191D02*
X68100120Y-4005952D01*
X67195895Y-42769195D02*
X67243737Y-42779939D01*
X67050018Y-72251203D02*
X67098919Y-72254810D01*
X14882039Y-55528074D02*
X14904085Y-55571872D01*
X66010812Y-82147583D02*
X66004810Y-82098919D01*
X47980804Y-55804104D02*
X47989187Y-55852416D01*
X51029939Y-56243737D02*
X51019195Y-56195895D01*
X4734147Y-111992622D02*
X4759393Y-111993902D01*
X133943938Y-61255402D02*
X133940110Y-61230416D01*
X51258790Y-56671887D02*
X51226762Y-56634758D01*
X67998796Y-29949981D02*
X68000000Y-29999012D01*
X4005952Y-57100120D02*
X3981191Y-57105208D01*
X56057Y-61255427D02*
X27253Y-61481591D01*
X51571872Y-55095914D02*
X51616699Y-55076044D01*
X99456983Y-56290994D02*
X99441602Y-56337552D01*
X102828112Y-55258790D02*
X102865241Y-55226762D01*
X65494300Y-59809517D02*
X65483168Y-59786823D01*
X18616699Y-56923955D02*
X18571872Y-56904085D01*
X68000160Y-107006331D02*
X68006096Y-107240581D01*
X98550018Y-55001203D02*
X98598919Y-55004810D01*
X516842Y-109213199D02*
X622401Y-109415281D01*
X131845763Y-889211D02*
X131655397Y-763750D01*
X66142129Y-100235411D02*
X66168362Y-100193985D01*
X66226762Y-86365241D02*
X66258790Y-86328112D01*
X163099Y-108265442D02*
X225818Y-108484636D01*
X67050018Y-39748796D02*
X67000987Y-39750000D01*
X66029939Y-73006262D02*
X66043016Y-72959005D01*
X133483157Y-59786800D02*
X133377598Y-59584718D01*
X66196595Y-43153896D02*
X66226762Y-43115241D01*
X68516831Y-2786823D02*
X68505699Y-2809517D01*
X61518383Y-57027251D02*
X61493235Y-57024693D01*
X133236249Y-59344602D02*
X133110788Y-59154236D01*
X115147583Y-56989187D02*
X115098919Y-56995189D01*
X82998796Y-55949981D02*
X83000000Y-55999012D01*
X65692858Y-51724538D02*
X65766598Y-51508803D01*
X66709005Y-96706983D02*
X66662447Y-96691602D01*
X82671887Y-56741209D02*
X82634758Y-56773237D01*
X86001203Y-55949981D02*
X86004810Y-55901080D01*
X3759053Y-156756D02*
X3734582Y-163092D01*
X119000000Y-55999012D02*
X119001203Y-55949981D01*
X66019195Y-95945895D02*
X66010812Y-95897583D01*
X66258790Y-72578112D02*
X66292600Y-72542600D01*
X30647583Y-56989187D02*
X30598919Y-56995189D01*
X18949981Y-55001203D02*
X18999012Y-55000000D01*
X505699Y-52190482D02*
X516831Y-52213176D01*
X105213Y-51018833D02*
X156750Y-51240922D01*
X86852416Y-56989187D02*
X86804104Y-56980804D01*
X68889211Y-2154236D02*
X68763750Y-2344602D01*
X14773237Y-56634758D02*
X14741209Y-56671887D01*
X70562594Y-111365319D02*
X70584696Y-111377586D01*
X115634758Y-55226762D02*
X115671887Y-55258790D01*
X67803404Y-86403896D02*
X67831637Y-86443985D01*
X65899879Y-61005952D02*
X65894791Y-60981191D01*
X1929651Y-58054127D02*
X1752955Y-58198203D01*
X66117960Y-11721925D02*
X66095914Y-11678127D01*
X64266243Y-1214685D02*
X64247063Y-1198219D01*
X102500000Y-56000987D02*
X102500000Y-55999012D01*
X68400511Y-3039985D02*
X68315938Y-3251709D01*
X102668362Y-55443985D02*
X102696595Y-55403896D01*
X69367560Y-53435453D02*
X69384976Y-53453774D01*
X65249634Y-59366075D02*
X65236263Y-59344623D01*
X3491221Y-54766606D02*
X3515339Y-54774174D01*
X51999012Y-57000000D02*
X51949981Y-56998796D01*
X133972748Y-50518383D02*
X133975306Y-50493235D01*
X66949981Y-86001203D02*
X66999012Y-86000000D01*
X889225Y-52845784D02*
X903666Y-52866531D01*
X65589510Y-108983267D02*
X65599478Y-108960038D01*
X5006333Y-55000000D02*
X14000987Y-55000000D01*
X31480804Y-56195895D02*
X31470060Y-56243737D01*
X51142129Y-56514588D02*
X51117960Y-56471925D01*
X622401Y-59584718D02*
X516842Y-59786800D01*
X119095914Y-55571872D02*
X119117960Y-55528074D01*
X65110788Y-52845763D02*
X65236249Y-52655397D01*
X86029939Y-56243737D02*
X86019195Y-56195895D01*
X67923955Y-29616699D02*
X67941602Y-29662447D01*
X160Y-50006331D02*
X6096Y-50240581D01*
X63190482Y-111494300D02*
X63213176Y-111483168D01*
X131866531Y-57903666D02*
X131845784Y-57889225D01*
X61493209Y-24691D02*
X61265877Y-7379D01*
X71759053Y-57156756D02*
X71734582Y-57163092D01*
X70786823Y-54483168D02*
X70809517Y-54494300D01*
X18852416Y-56989187D02*
X18804104Y-56980804D01*
X65236263Y-52655376D02*
X65249634Y-52633924D01*
X47596103Y-56803404D02*
X47556014Y-56831637D01*
X133589499Y-3016709D02*
X133494311Y-2809540D01*
X67671887Y-86258790D02*
X67707399Y-86292600D01*
X86709005Y-55043016D02*
X86756262Y-55029939D01*
X65483168Y-52213176D02*
X65494300Y-52190482D01*
X99303404Y-55403896D02*
X99331637Y-55443985D01*
X115707399Y-56707399D02*
X115671887Y-56741209D01*
X72481616Y-111972748D02*
X72506764Y-111975306D01*
X65999999Y-62006321D02*
X65999839Y-61993680D01*
X115195895Y-56980804D02*
X115147583Y-56989187D01*
X133999839Y-107006319D02*
X133999999Y-106993678D01*
X3039961Y-400521D02*
X3016732Y-410489D01*
X14923955Y-55616699D02*
X14941602Y-55662447D01*
X66328112Y-25741209D02*
X66292600Y-25707399D01*
X119292600Y-55292600D02*
X119328112Y-55258790D01*
X3491196Y-233401D02*
X3275461Y-307141D01*
X72759418Y-111993903D02*
X72993668Y-111999839D01*
X98500987Y-55000000D02*
X98550018Y-55001203D01*
X67803404Y-43153896D02*
X67831637Y-43193985D01*
X34595914Y-56428127D02*
X34576044Y-56383300D01*
X66901080Y-82995189D02*
X66852416Y-82989187D01*
X67290994Y-86043016D02*
X67337552Y-86058397D01*
X129744572Y-57056057D02*
X129518408Y-57027253D01*
X31303404Y-56596103D02*
X31273237Y-56634758D01*
X68307141Y-3275461D02*
X68233401Y-3491196D01*
X66058397Y-100412447D02*
X66076044Y-100366699D01*
X35499012Y-55000000D02*
X47000987Y-55000000D01*
X66616699Y-69173955D02*
X66571872Y-69154085D01*
X47803404Y-55403896D02*
X47831637Y-55443985D01*
X131845784Y-111110774D02*
X131866531Y-111096333D01*
X1733756Y-53785314D02*
X1752936Y-53801780D01*
X66226762Y-29365241D02*
X66258790Y-29328112D01*
X35499012Y-57000000D02*
X35449981Y-56998796D01*
X30598919Y-55004810D02*
X30647583Y-55010812D01*
X66443985Y-12081637D02*
X66403896Y-12053404D01*
X133365319Y-52437405D02*
X133377586Y-52415303D01*
X68410500Y-51983290D02*
X68505688Y-52190459D01*
X71981191Y-54894791D02*
X72005952Y-54899879D01*
X115471925Y-55117960D02*
X115514588Y-55142129D01*
X99134758Y-55226762D02*
X99171887Y-55258790D01*
X115923955Y-55616699D02*
X115941602Y-55662447D01*
X67741209Y-82671887D02*
X67707399Y-82707399D01*
X47989187Y-55852416D02*
X47995189Y-55901080D01*
X61240606Y-54993902D02*
X61265852Y-54992622D01*
X18485411Y-55142129D02*
X18528074Y-55117960D01*
X30928127Y-56904085D02*
X30883300Y-56923955D01*
X66292600Y-96457399D02*
X66258790Y-96421887D01*
X156750Y-3759077D02*
X105213Y-3981166D01*
X66571872Y-69154085D02*
X66528074Y-69132039D01*
X69054111Y-58929671D02*
X69038638Y-58949660D01*
X66029939Y-29756262D02*
X66043016Y-29709005D01*
X130265442Y-111836900D02*
X130484636Y-111774181D01*
X67941602Y-39087552D02*
X67923955Y-39133300D01*
X131655376Y-57763736D02*
X131633924Y-57750365D01*
X67634758Y-96523237D02*
X67596103Y-96553404D01*
X68027253Y-50518408D02*
X68056057Y-50744572D01*
X65377598Y-109415281D02*
X65483157Y-109213199D01*
X47428127Y-56904085D02*
X47383300Y-56923955D01*
X63866552Y-54096319D02*
X64050318Y-53961376D01*
X86292600Y-56707399D02*
X86258790Y-56671887D01*
X66168362Y-86443985D02*
X66196595Y-86403896D01*
X63213199Y-54483157D02*
X63415281Y-54377598D01*
X7377Y-4734147D02*
X6097Y-4759393D01*
X67998796Y-100699981D02*
X68000000Y-100749012D01*
X47995189Y-56098919D02*
X47989187Y-56147583D01*
X66571872Y-25904085D02*
X66528074Y-25882039D01*
X82803404Y-55403896D02*
X82831637Y-55443985D01*
X132435453Y-53632439D02*
X132453774Y-53615023D01*
X129265852Y-57007377D02*
X129240606Y-57006097D01*
X66117960Y-82471925D02*
X66095914Y-82428127D01*
X102758790Y-55328112D02*
X102792600Y-55292600D01*
X119117960Y-55528074D02*
X119142129Y-55485411D01*
X3039985Y-54599488D02*
X3251709Y-54684061D01*
X67882039Y-68721925D02*
X67857870Y-68764588D01*
X1733737Y-1214702D02*
X1564565Y-1367543D01*
X66365241Y-82773237D02*
X66328112Y-82741209D01*
X83000000Y-55999012D02*
X83000000Y-56000987D01*
X102985411Y-56857870D02*
X102943985Y-56831637D01*
X67882039Y-43278074D02*
X67904085Y-43321872D01*
X67998796Y-43699981D02*
X68000000Y-43749012D01*
X56061Y-50744597D02*
X59889Y-50769583D01*
X132453774Y-1384976D02*
X132435453Y-1367560D01*
X67803404Y-15653896D02*
X67831637Y-15693985D01*
X70786823Y-111483168D02*
X70809517Y-111494300D01*
X67383300Y-86076044D02*
X67428127Y-86095914D01*
X68000000Y-38750987D02*
X67998796Y-38800018D01*
X72005952Y-57100120D02*
X71981191Y-57105208D01*
X66095914Y-100321872D02*
X66117960Y-100278074D01*
X69054127Y-110070348D02*
X69198203Y-110247044D01*
X66076044Y-72866699D02*
X66095914Y-72821872D01*
X67989187Y-86852416D02*
X67995189Y-86901080D01*
X67857870Y-82514588D02*
X67831637Y-82556014D01*
X103162447Y-55058397D02*
X103209005Y-55043016D01*
X34865241Y-55226762D02*
X34903896Y-55196595D01*
X66292600Y-11957399D02*
X66258790Y-11921887D01*
X889211Y-2154236D02*
X763750Y-2344602D01*
X69733737Y-1214702D02*
X69564565Y-1367543D01*
X156756Y-108240946D02*
X163092Y-108265417D01*
X130240922Y-57156750D02*
X130018833Y-57105213D01*
X35116699Y-56923955D02*
X35071872Y-56904085D01*
X102558397Y-56337552D02*
X102543016Y-56290994D01*
X115098919Y-55004810D02*
X115147583Y-55010812D01*
X64961361Y-1949660D02*
X64945888Y-1929671D01*
X66142129Y-82514588D02*
X66117960Y-82471925D01*
X67514588Y-72392129D02*
X67556014Y-72418362D01*
X68315938Y-51748290D02*
X68400511Y-51960014D01*
X67707399Y-86292600D02*
X67741209Y-86328112D01*
X71275461Y-54692858D02*
X71491196Y-54766598D01*
X71759077Y-54843249D02*
X71981166Y-54894786D01*
X66095914Y-68678127D02*
X66076044Y-68633300D01*
X129240581Y-57006096D02*
X129006331Y-57000160D01*
X68007379Y-107265877D02*
X68024691Y-107493209D01*
X67243737Y-15279939D02*
X67290994Y-15293016D01*
X86292600Y-55292600D02*
X86328112Y-55258790D01*
X31470060Y-55756262D02*
X31480804Y-55804104D01*
X65096333Y-109866531D02*
X65110774Y-109845784D01*
X133494300Y-59809517D02*
X133483168Y-59786823D01*
X67671887Y-82741209D02*
X67634758Y-82773237D01*
X115243737Y-56970060D02*
X115195895Y-56980804D01*
X115857870Y-56514588D02*
X115831637Y-56556014D01*
X62265442Y-54836900D02*
X62484636Y-54774181D01*
X47923955Y-55616699D02*
X47941602Y-55662447D01*
X31134758Y-56773237D02*
X31096103Y-56803404D01*
X31500000Y-55999012D02*
X31500000Y-56000987D01*
X67290994Y-82956983D02*
X67243737Y-82970060D01*
X47707399Y-56707399D02*
X47671887Y-56741209D01*
X5006321Y-57000000D02*
X4993680Y-57000160D01*
X34500000Y-55999012D02*
X34501203Y-55949981D01*
X66004810Y-16151080D02*
X66010812Y-16102416D01*
X67471925Y-42867960D02*
X67514588Y-42892129D01*
X67514588Y-99892129D02*
X67556014Y-99918362D01*
X51001203Y-56050018D02*
X51000000Y-56000987D01*
X34828112Y-56741209D02*
X34792600Y-56707399D01*
X66043016Y-86709005D02*
X66058397Y-86662447D01*
X67831637Y-15693985D02*
X67857870Y-15735411D01*
X82941602Y-56337552D02*
X82923955Y-56383300D01*
X67000987Y-26000000D02*
X66999012Y-26000000D01*
X86901080Y-56995189D02*
X86852416Y-56989187D01*
X47970060Y-56243737D02*
X47956983Y-56290994D01*
X66852416Y-29010812D02*
X66901080Y-29004810D01*
X68000000Y-25000987D02*
X67998796Y-25050018D01*
X129006319Y-57000160D02*
X128993678Y-57000000D01*
X61769608Y-54940106D02*
X61994022Y-54899884D01*
X133589499Y-60016709D02*
X133494311Y-59809540D01*
X70344602Y-763750D02*
X70154236Y-889211D01*
X34501203Y-56050018D02*
X34500000Y-56000987D01*
X68307150Y-51724562D02*
X68315929Y-51748267D01*
X67514588Y-82857870D02*
X67471925Y-82882039D01*
X66004810Y-25098919D02*
X66001203Y-25050018D01*
X67831637Y-43193985D02*
X67857870Y-43235411D01*
X34529939Y-56243737D02*
X34519195Y-56195895D01*
X98790994Y-56956983D02*
X98743737Y-56970060D01*
X66804104Y-39730804D02*
X66756262Y-39720060D01*
X67904085Y-68678127D02*
X67882039Y-68721925D01*
X18001203Y-56050018D02*
X18000000Y-56000987D01*
X66004810Y-43651080D02*
X66010812Y-43602416D01*
X66901080Y-96745189D02*
X66852416Y-96739187D01*
X68006096Y-4759418D02*
X68000160Y-4993668D01*
X66058397Y-68587552D02*
X66043016Y-68540994D01*
X64785297Y-1733737D02*
X64632456Y-1564565D01*
X67923955Y-15866699D02*
X67941602Y-15912447D01*
X66292600Y-29292600D02*
X66328112Y-29258790D01*
X82707399Y-56707399D02*
X82671887Y-56741209D01*
X3251732Y-111684070D02*
X3275437Y-111692849D01*
X67428127Y-12154085D02*
X67383300Y-12173955D01*
X119443985Y-55168362D02*
X119485411Y-55142129D01*
X62508778Y-233393D02*
X62484660Y-225825D01*
X1546225Y-110615023D02*
X1564546Y-110632439D01*
X66258790Y-96421887D02*
X66226762Y-96384758D01*
X61265852Y-57007377D02*
X61240606Y-57006097D01*
X18616699Y-55076044D02*
X18662447Y-55058397D01*
X67050018Y-25998796D02*
X67000987Y-26000000D01*
X66709005Y-29043016D02*
X66756262Y-29029939D01*
X66226762Y-39384758D02*
X66196595Y-39346103D01*
X67428127Y-39654085D02*
X67383300Y-39673955D01*
X115831637Y-55443985D02*
X115857870Y-55485411D01*
X66001203Y-11300018D02*
X66000000Y-11250987D01*
X82514588Y-56857870D02*
X82471925Y-56882039D01*
X115831637Y-56556014D02*
X115803404Y-56596103D01*
X51029939Y-55756262D02*
X51043016Y-55709005D01*
X4759418Y-54993903D02*
X4993668Y-54999839D01*
X67803404Y-29403896D02*
X67831637Y-29443985D01*
X59889Y-61230416D02*
X56061Y-61255402D01*
X64050318Y-1038623D02*
X63866552Y-903680D01*
X82471925Y-55117960D02*
X82514588Y-55142129D01*
X67243737Y-12220060D02*
X67195895Y-12230804D01*
X67904085Y-43321872D02*
X67923955Y-43366699D01*
X66004810Y-82098919D02*
X66001203Y-82050018D01*
X3734557Y-163099D02*
X3515363Y-225818D01*
X1367560Y-110435453D02*
X1384976Y-110453774D01*
X119528074Y-56882039D02*
X119485411Y-56857870D01*
X67050018Y-82998796D02*
X67000987Y-83000000D01*
X65774174Y-60515339D02*
X65766606Y-60491221D01*
X99096103Y-55196595D02*
X99134758Y-55226762D01*
X131213199Y-111483157D02*
X131415281Y-111377598D01*
X66485411Y-72392129D02*
X66528074Y-72367960D01*
X115514588Y-55142129D02*
X115556014Y-55168362D01*
X66571872Y-82904085D02*
X66528074Y-82882039D01*
X66058397Y-15912447D02*
X66076044Y-15866699D01*
X14707399Y-55292600D02*
X14741209Y-55328112D01*
X119258790Y-56671887D02*
X119226762Y-56634758D01*
X102519195Y-56195895D02*
X102510812Y-56147583D01*
X62960038Y-54599478D02*
X62983267Y-54589510D01*
X61493209Y-57024691D02*
X61265877Y-57007379D01*
X132801796Y-110247044D02*
X132945872Y-110070348D01*
X98928127Y-56904085D02*
X98883300Y-56923955D01*
X67831637Y-11806014D02*
X67803404Y-11846103D01*
X68622413Y-109415303D02*
X68634680Y-109437405D01*
X82471925Y-56882039D02*
X82428127Y-56904085D01*
X66029939Y-95993737D02*
X66019195Y-95945895D01*
X7377Y-61734147D02*
X6097Y-61759393D01*
X66528074Y-82882039D02*
X66485411Y-82857870D01*
X65992622Y-107265852D02*
X65993902Y-107240606D01*
X66709005Y-15293016D02*
X66756262Y-15279939D01*
X132785297Y-58733737D02*
X132632456Y-58564565D01*
X1054111Y-58929671D02*
X1038638Y-58949660D01*
X103116699Y-56923955D02*
X103071872Y-56904085D01*
X98647583Y-55010812D02*
X98695895Y-55019195D01*
X68000000Y-49993678D02*
X68000160Y-50006319D01*
X129240581Y-6096D02*
X129006331Y-160D01*
X72759418Y-54993903D02*
X72993668Y-54999839D01*
X31498796Y-55949981D02*
X31500000Y-55999012D01*
X68315938Y-108748290D02*
X68400511Y-108960014D01*
X51403896Y-56803404D02*
X51365241Y-56773237D01*
X67471925Y-96632039D02*
X67428127Y-96654085D01*
X129769608Y-111940106D02*
X129994022Y-111899884D01*
X132266243Y-58214685D02*
X132247063Y-58198219D01*
X67882039Y-15778074D02*
X67904085Y-15821872D01*
X103499012Y-57000000D02*
X103449981Y-56998796D01*
X133599488Y-51960014D02*
X133684061Y-51748290D01*
X72506764Y-24693D02*
X72481616Y-27251D01*
X66999012Y-69250000D02*
X66949981Y-69248796D01*
X47671887Y-55258790D02*
X47707399Y-55292600D01*
X66756262Y-99779939D02*
X66804104Y-99769195D01*
X14383300Y-55076044D02*
X14428127Y-55095914D01*
X133236263Y-109655376D02*
X133249634Y-109633924D01*
X115741209Y-56671887D02*
X115707399Y-56707399D01*
X68024691Y-4506790D02*
X68007379Y-4734122D01*
X1038623Y-58949681D02*
X903680Y-59133447D01*
X66852416Y-99760812D02*
X66901080Y-99754810D01*
X67998796Y-82050018D02*
X67995189Y-82098919D01*
X68163092Y-3734582D02*
X68156756Y-3759053D01*
X3981191Y-54894791D02*
X4005952Y-54899879D01*
X67995189Y-73151080D02*
X67998796Y-73199981D01*
X102504810Y-56098919D02*
X102501203Y-56050018D01*
X66403896Y-86196595D02*
X66443985Y-86168362D01*
X70366075Y-57750365D02*
X70344623Y-57763736D01*
X67970060Y-100506262D02*
X67980804Y-100554104D01*
X65894786Y-60981166D02*
X65843249Y-60759077D01*
X67773237Y-39384758D02*
X67741209Y-39421887D01*
X67989187Y-82147583D02*
X67980804Y-82195895D01*
X66999012Y-29000000D02*
X67000987Y-29000000D01*
X47514588Y-55142129D02*
X47556014Y-55168362D01*
X119058397Y-56337552D02*
X119043016Y-56290994D01*
X67989187Y-73102416D02*
X67995189Y-73151080D01*
X66226762Y-43115241D02*
X66258790Y-43078112D01*
X31495189Y-56098919D02*
X31489187Y-56147583D01*
X4005952Y-100120D02*
X3981191Y-105208D01*
X100120Y-50994047D02*
X105208Y-51018808D01*
X86949981Y-55001203D02*
X86999012Y-55000000D01*
X67923955Y-96133300D02*
X67904085Y-96178127D01*
X102642129Y-56514588D02*
X102617960Y-56471925D01*
X65774181Y-51484636D02*
X65836900Y-51265442D01*
X66168362Y-39306014D02*
X66142129Y-39264588D01*
X1564565Y-53632456D02*
X1733737Y-53785297D01*
X18804104Y-55019195D02*
X18852416Y-55010812D01*
X68059889Y-4230416D02*
X68056061Y-4255402D01*
X66443985Y-82831637D02*
X66403896Y-82803404D01*
X67956983Y-96040994D02*
X67941602Y-96087552D01*
X119004810Y-56098919D02*
X119001203Y-56050018D01*
X67428127Y-69154085D02*
X67383300Y-69173955D01*
X62983267Y-410489D02*
X62960038Y-400521D01*
X86000000Y-56000987D02*
X86000000Y-55999012D01*
X119571872Y-56904085D02*
X119528074Y-56882039D01*
X67980804Y-11445895D02*
X67970060Y-11493737D01*
X115941602Y-56337552D02*
X115923955Y-56383300D01*
X66226762Y-15615241D02*
X66258790Y-15578112D01*
X64050339Y-110961361D02*
X64070328Y-110945888D01*
X100115Y-4005977D02*
X59893Y-4230391D01*
X133377586Y-59584696D02*
X133365319Y-59562594D01*
X86662447Y-55058397D02*
X86709005Y-55043016D01*
X66258790Y-86328112D02*
X66292600Y-86292600D01*
X410489Y-60016732D02*
X400521Y-60039961D01*
X3515363Y-111774181D02*
X3734557Y-111836900D01*
X67831637Y-39306014D02*
X67803404Y-39346103D01*
X82383300Y-55076044D02*
X82428127Y-55095914D01*
X67998796Y-11300018D02*
X67995189Y-11348919D01*
X133836900Y-60734557D02*
X133774181Y-60515363D01*
X86058397Y-56337552D02*
X86043016Y-56290994D01*
X86485411Y-56857870D02*
X86443985Y-56831637D01*
X66292600Y-72542600D02*
X66328112Y-72508790D01*
X67671887Y-39491209D02*
X67634758Y-39523237D01*
X66709005Y-86043016D02*
X66756262Y-86029939D01*
X68516842Y-109213199D02*
X68622401Y-109415281D01*
X67514588Y-15392129D02*
X67556014Y-15418362D01*
X30743737Y-55029939D02*
X30790994Y-55043016D01*
X61240581Y-6096D02*
X61006331Y-160D01*
X129744572Y-56057D02*
X129518408Y-27253D01*
X14995189Y-56098919D02*
X14989187Y-56147583D01*
X4993668Y-160D02*
X4759418Y-6096D01*
X102903896Y-56803404D02*
X102865241Y-56773237D01*
X71275437Y-307150D02*
X71251732Y-315929D01*
X133692858Y-51724538D02*
X133766598Y-51508803D01*
X14428127Y-55095914D02*
X14471925Y-55117960D01*
X105213Y-108018833D02*
X156750Y-108240922D01*
X63190482Y-54494300D02*
X63213176Y-54483168D01*
X67803404Y-11846103D02*
X67773237Y-11884758D01*
X34617960Y-56471925D02*
X34595914Y-56428127D01*
X66029939Y-38993737D02*
X66019195Y-38945895D01*
X18443985Y-56831637D02*
X18403896Y-56803404D01*
X1384976Y-58546225D02*
X1367560Y-58564546D01*
X61240581Y-57006096D02*
X61006331Y-57000160D01*
X24691Y-4506790D02*
X7379Y-4734122D01*
X65972748Y-107518383D02*
X65975306Y-107493235D01*
X66000000Y-82000987D02*
X66000000Y-73249012D01*
X163092Y-3734582D02*
X156756Y-3759053D01*
X69949681Y-110961376D02*
X70133447Y-111096319D01*
X66443985Y-69081637D02*
X66403896Y-69053404D01*
X67337552Y-29058397D02*
X67383300Y-29076044D01*
X64266262Y-110785297D02*
X64435434Y-110632456D01*
X68903680Y-109866552D02*
X69038623Y-110050318D01*
X34903896Y-56803404D02*
X34865241Y-56773237D01*
X307150Y-51724562D02*
X315929Y-51748267D01*
X65993902Y-61759393D02*
X65992622Y-61734147D01*
X71251709Y-57315938D02*
X71039985Y-57400511D01*
X4734122Y-57007379D02*
X4506790Y-57024691D01*
X66528074Y-12132039D02*
X66485411Y-12107870D01*
X18029939Y-56243737D02*
X18019195Y-56195895D01*
X115980804Y-55804104D02*
X115989187Y-55852416D01*
X67596103Y-86196595D02*
X67634758Y-86226762D01*
X66528074Y-15367960D02*
X66571872Y-15345914D01*
X67741209Y-39421887D02*
X67707399Y-39457399D01*
X3016732Y-54589510D02*
X3039961Y-54599478D01*
X133774174Y-60515339D02*
X133766606Y-60491221D01*
X119168362Y-56556014D02*
X119142129Y-56514588D01*
X66485411Y-86142129D02*
X66528074Y-86117960D01*
X65943942Y-50744572D02*
X65972746Y-50518408D01*
X86019195Y-56195895D02*
X86010812Y-56147583D01*
X67337552Y-12191602D02*
X67290994Y-12206983D01*
X1038638Y-53050339D02*
X1054111Y-53070328D01*
X67970060Y-25243737D02*
X67956983Y-25290994D01*
M02*
