G04 #@! TF.GenerationSoftware,KiCad,Pcbnew,8.0.3-8.0.3-0~ubuntu24.04.1*
G04 #@! TF.CreationDate,2024-07-21T14:04:27+02:00*
G04 #@! TF.ProjectId,panel,70616e65-6c2e-46b6-9963-61645f706362,rev?*
G04 #@! TF.SameCoordinates,Original*
G04 #@! TF.FileFunction,Soldermask,Bot*
G04 #@! TF.FilePolarity,Negative*
%FSLAX46Y46*%
G04 Gerber Fmt 4.6, Leading zero omitted, Abs format (unit mm)*
G04 Created by KiCad (PCBNEW 8.0.3-8.0.3-0~ubuntu24.04.1) date 2024-07-21 14:04:27*
%MOMM*%
%LPD*%
G01*
G04 APERTURE LIST*
%ADD10C,0.500000*%
%ADD11C,2.200000*%
%ADD12R,2.000000X2.000000*%
%ADD13C,2.000000*%
%ADD14C,0.900000*%
G04 APERTURE END LIST*
D10*
G04 #@! TO.C,KiKit_MB_9_5*
X68200000Y-39250000D03*
G04 #@! TD*
G04 #@! TO.C,KiKit_MB_23_5*
X103000000Y-57200000D03*
G04 #@! TD*
G04 #@! TO.C,KiKit_MB_16_5*
X18500000Y-57200000D03*
G04 #@! TD*
G04 #@! TO.C,KiKit_MB_19_5*
X68200000Y-68750000D03*
G04 #@! TD*
G04 #@! TO.C,KiKit_MB_22_4*
X85500000Y-57200000D03*
G04 #@! TD*
G04 #@! TO.C,KiKit_MB_19_2*
X68200000Y-71750000D03*
G04 #@! TD*
G04 #@! TO.C,KiKit_MB_8_5*
X68200000Y-25500000D03*
G04 #@! TD*
G04 #@! TO.C,KiKit_MB_3_1*
X65800000Y-39250000D03*
G04 #@! TD*
G04 #@! TO.C,KiKit_MB_1_5*
X65800000Y-15750000D03*
G04 #@! TD*
G04 #@! TO.C,KiKit_MB_18_3*
X49500000Y-57200000D03*
G04 #@! TD*
D11*
G04 #@! TO.C,*
X53250000Y-38425000D03*
G04 #@! TD*
D10*
G04 #@! TO.C,KiKit_MB_23_4*
X102000000Y-57200000D03*
G04 #@! TD*
G04 #@! TO.C,KiKit_MB_2_4*
X65800000Y-28500000D03*
G04 #@! TD*
G04 #@! TO.C,KiKit_MB_14_2*
X65800000Y-83500000D03*
G04 #@! TD*
G04 #@! TO.C,KiKit_MB_16_4*
X17500000Y-57200000D03*
G04 #@! TD*
D11*
G04 #@! TO.C,*
X101000000Y-3500000D03*
G04 #@! TD*
G04 #@! TO.C,*
X80750000Y-38425000D03*
G04 #@! TD*
G04 #@! TO.C,*
X80750000Y-95425000D03*
G04 #@! TD*
D10*
G04 #@! TO.C,KiKit_MB_17_5*
X35000000Y-57200000D03*
G04 #@! TD*
G04 #@! TO.C,KiKit_MB_18_2*
X48500000Y-57200000D03*
G04 #@! TD*
G04 #@! TO.C,KiKit_MB_17_4*
X34000000Y-57200000D03*
G04 #@! TD*
G04 #@! TO.C,KiKit_MB_5_4*
X32000000Y-54800000D03*
G04 #@! TD*
G04 #@! TO.C,KiKit_MB_22_5*
X86500000Y-57200000D03*
G04 #@! TD*
G04 #@! TO.C,KiKit_MB_24_1*
X115500000Y-57200000D03*
G04 #@! TD*
G04 #@! TO.C,KiKit_MB_10_1*
X86500000Y-54800000D03*
G04 #@! TD*
G04 #@! TO.C,KiKit_MB_14_3*
X65800000Y-84500000D03*
G04 #@! TD*
G04 #@! TO.C,KiKit_MB_22_3*
X84500000Y-57200000D03*
G04 #@! TD*
G04 #@! TO.C,KiKit_MB_5_3*
X33000000Y-54800000D03*
G04 #@! TD*
G04 #@! TO.C,KiKit_MB_6_2*
X50500000Y-54800000D03*
G04 #@! TD*
D12*
G04 #@! TO.C,BT1*
X81987500Y-104886433D03*
D13*
X126687500Y-104886433D03*
G04 #@! TD*
D10*
G04 #@! TO.C,KiKit_MB_12_2*
X118500000Y-54800000D03*
G04 #@! TD*
G04 #@! TO.C,KiKit_MB_12_3*
X117500000Y-54800000D03*
G04 #@! TD*
G04 #@! TO.C,KiKit_MB_20_2*
X68200000Y-85500000D03*
G04 #@! TD*
G04 #@! TO.C,KiKit_MB_12_5*
X115500000Y-54800000D03*
G04 #@! TD*
G04 #@! TO.C,KiKit_MB_20_4*
X68200000Y-83500000D03*
G04 #@! TD*
G04 #@! TO.C,KiKit_MB_12_1*
X119500000Y-54800000D03*
G04 #@! TD*
G04 #@! TO.C,KiKit_MB_7_3*
X68200000Y-13750000D03*
G04 #@! TD*
G04 #@! TO.C,KiKit_MB_24_3*
X117500000Y-57200000D03*
G04 #@! TD*
G04 #@! TO.C,KiKit_MB_12_4*
X116500000Y-54800000D03*
G04 #@! TD*
G04 #@! TO.C,KiKit_MB_13_2*
X65800000Y-69750000D03*
G04 #@! TD*
G04 #@! TO.C,KiKit_MB_11_2*
X102000000Y-54800000D03*
G04 #@! TD*
G04 #@! TO.C,KiKit_MB_8_2*
X68200000Y-28500000D03*
G04 #@! TD*
G04 #@! TO.C,KiKit_MB_4_5*
X14500000Y-54800000D03*
G04 #@! TD*
G04 #@! TO.C,KiKit_MB_13_3*
X65800000Y-70750000D03*
G04 #@! TD*
G04 #@! TO.C,KiKit_MB_11_5*
X99000000Y-54800000D03*
G04 #@! TD*
G04 #@! TO.C,KiKit_MB_8_3*
X68200000Y-27500000D03*
G04 #@! TD*
G04 #@! TO.C,KiKit_MB_2_5*
X65800000Y-29500000D03*
G04 #@! TD*
G04 #@! TO.C,KiKit_MB_15_2*
X65800000Y-97250000D03*
G04 #@! TD*
G04 #@! TO.C,KiKit_MB_21_3*
X68200000Y-98250000D03*
G04 #@! TD*
G04 #@! TO.C,KiKit_MB_10_4*
X83500000Y-54800000D03*
G04 #@! TD*
G04 #@! TO.C,KiKit_MB_17_3*
X33000000Y-57200000D03*
G04 #@! TD*
G04 #@! TO.C,KiKit_MB_18_4*
X50500000Y-57200000D03*
G04 #@! TD*
G04 #@! TO.C,KiKit_MB_13_1*
X65800000Y-68750000D03*
G04 #@! TD*
G04 #@! TO.C,KiKit_MB_6_1*
X51500000Y-54800000D03*
G04 #@! TD*
G04 #@! TO.C,KiKit_MB_10_2*
X85500000Y-54800000D03*
G04 #@! TD*
G04 #@! TO.C,KiKit_MB_3_2*
X65800000Y-40250000D03*
G04 #@! TD*
G04 #@! TO.C,KiKit_MB_1_2*
X65800000Y-12750000D03*
G04 #@! TD*
G04 #@! TO.C,KiKit_MB_23_1*
X99000000Y-57200000D03*
G04 #@! TD*
D11*
G04 #@! TO.C,*
X121250000Y-95425000D03*
G04 #@! TD*
D12*
G04 #@! TO.C,BT1*
X13987500Y-47886433D03*
D13*
X58687500Y-47886433D03*
G04 #@! TD*
D10*
G04 #@! TO.C,KiKit_MB_1_4*
X65800000Y-14750000D03*
G04 #@! TD*
D14*
G04 #@! TO.C,SW1*
X2282500Y-30011433D03*
X2282500Y-33011433D03*
G04 #@! TD*
D10*
G04 #@! TO.C,KiKit_MB_16_3*
X16500000Y-57200000D03*
G04 #@! TD*
G04 #@! TO.C,KiKit_MB_20_1*
X68200000Y-86500000D03*
G04 #@! TD*
G04 #@! TO.C,KiKit_MB_17_2*
X32000000Y-57200000D03*
G04 #@! TD*
G04 #@! TO.C,KiKit_MB_2_3*
X65800000Y-27500000D03*
G04 #@! TD*
G04 #@! TO.C,KiKit_MB_5_1*
X35000000Y-54800000D03*
G04 #@! TD*
G04 #@! TO.C,KiKit_MB_4_4*
X15500000Y-54800000D03*
G04 #@! TD*
D12*
G04 #@! TO.C,BT1*
X13987500Y-104886433D03*
D13*
X58687500Y-104886433D03*
G04 #@! TD*
D10*
G04 #@! TO.C,KiKit_MB_20_3*
X68200000Y-84500000D03*
G04 #@! TD*
G04 #@! TO.C,KiKit_MB_7_4*
X68200000Y-12750000D03*
G04 #@! TD*
G04 #@! TO.C,KiKit_MB_15_1*
X65800000Y-96250000D03*
G04 #@! TD*
D14*
G04 #@! TO.C,SW1*
X70282500Y-30011433D03*
X70282500Y-33011433D03*
G04 #@! TD*
D10*
G04 #@! TO.C,KiKit_MB_23_3*
X101000000Y-57200000D03*
G04 #@! TD*
G04 #@! TO.C,KiKit_MB_3_5*
X65800000Y-43250000D03*
G04 #@! TD*
G04 #@! TO.C,KiKit_MB_24_5*
X119500000Y-57200000D03*
G04 #@! TD*
G04 #@! TO.C,KiKit_MB_19_4*
X68200000Y-69750000D03*
G04 #@! TD*
G04 #@! TO.C,KiKit_MB_4_1*
X18500000Y-54800000D03*
G04 #@! TD*
D11*
G04 #@! TO.C,*
X33000000Y-3500000D03*
G04 #@! TD*
D10*
G04 #@! TO.C,KiKit_MB_9_3*
X68200000Y-41250000D03*
G04 #@! TD*
G04 #@! TO.C,KiKit_MB_22_1*
X82500000Y-57200000D03*
G04 #@! TD*
D11*
G04 #@! TO.C,*
X33000000Y-60500000D03*
G04 #@! TD*
D10*
G04 #@! TO.C,KiKit_MB_24_2*
X116500000Y-57200000D03*
G04 #@! TD*
G04 #@! TO.C,KiKit_MB_9_1*
X68200000Y-43250000D03*
G04 #@! TD*
G04 #@! TO.C,KiKit_MB_13_5*
X65800000Y-72750000D03*
G04 #@! TD*
G04 #@! TO.C,KiKit_MB_18_1*
X47500000Y-57200000D03*
G04 #@! TD*
G04 #@! TO.C,KiKit_MB_11_3*
X101000000Y-54800000D03*
G04 #@! TD*
G04 #@! TO.C,KiKit_MB_4_2*
X17500000Y-54800000D03*
G04 #@! TD*
D11*
G04 #@! TO.C,*
X12750000Y-95425000D03*
G04 #@! TD*
D10*
G04 #@! TO.C,KiKit_MB_11_1*
X103000000Y-54800000D03*
G04 #@! TD*
G04 #@! TO.C,KiKit_MB_18_5*
X51500000Y-57200000D03*
G04 #@! TD*
D11*
G04 #@! TO.C,*
X12750000Y-38425000D03*
G04 #@! TD*
D10*
G04 #@! TO.C,KiKit_MB_6_4*
X48500000Y-54800000D03*
G04 #@! TD*
G04 #@! TO.C,KiKit_MB_22_2*
X83500000Y-57200000D03*
G04 #@! TD*
G04 #@! TO.C,KiKit_MB_13_4*
X65800000Y-71750000D03*
G04 #@! TD*
G04 #@! TO.C,KiKit_MB_1_1*
X65800000Y-11750000D03*
G04 #@! TD*
G04 #@! TO.C,KiKit_MB_16_2*
X15500000Y-57200000D03*
G04 #@! TD*
G04 #@! TO.C,KiKit_MB_23_2*
X100000000Y-57200000D03*
G04 #@! TD*
G04 #@! TO.C,KiKit_MB_8_4*
X68200000Y-26500000D03*
G04 #@! TD*
G04 #@! TO.C,KiKit_MB_16_1*
X14500000Y-57200000D03*
G04 #@! TD*
G04 #@! TO.C,KiKit_MB_7_1*
X68200000Y-15750000D03*
G04 #@! TD*
G04 #@! TO.C,KiKit_MB_21_4*
X68200000Y-97250000D03*
G04 #@! TD*
G04 #@! TO.C,KiKit_MB_11_4*
X100000000Y-54800000D03*
G04 #@! TD*
G04 #@! TO.C,KiKit_MB_10_3*
X84500000Y-54800000D03*
G04 #@! TD*
D11*
G04 #@! TO.C,*
X121250000Y-38425000D03*
G04 #@! TD*
D14*
G04 #@! TO.C,SW1*
X2282500Y-87011433D03*
X2282500Y-90011433D03*
G04 #@! TD*
D10*
G04 #@! TO.C,KiKit_MB_2_2*
X65800000Y-26500000D03*
G04 #@! TD*
G04 #@! TO.C,KiKit_MB_6_5*
X47500000Y-54800000D03*
G04 #@! TD*
G04 #@! TO.C,KiKit_MB_20_5*
X68200000Y-82500000D03*
G04 #@! TD*
G04 #@! TO.C,KiKit_MB_14_1*
X65800000Y-82500000D03*
G04 #@! TD*
G04 #@! TO.C,KiKit_MB_19_1*
X68200000Y-72750000D03*
G04 #@! TD*
G04 #@! TO.C,KiKit_MB_17_1*
X31000000Y-57200000D03*
G04 #@! TD*
G04 #@! TO.C,KiKit_MB_3_4*
X65800000Y-42250000D03*
G04 #@! TD*
D11*
G04 #@! TO.C,*
X53250000Y-95425000D03*
G04 #@! TD*
D10*
G04 #@! TO.C,KiKit_MB_7_5*
X68200000Y-11750000D03*
G04 #@! TD*
G04 #@! TO.C,KiKit_MB_19_3*
X68200000Y-70750000D03*
G04 #@! TD*
G04 #@! TO.C,KiKit_MB_15_4*
X65800000Y-99250000D03*
G04 #@! TD*
D14*
G04 #@! TO.C,SW1*
X70282500Y-87011433D03*
X70282500Y-90011433D03*
G04 #@! TD*
D10*
G04 #@! TO.C,KiKit_MB_7_2*
X68200000Y-14750000D03*
G04 #@! TD*
G04 #@! TO.C,KiKit_MB_9_4*
X68200000Y-40250000D03*
G04 #@! TD*
G04 #@! TO.C,KiKit_MB_3_3*
X65800000Y-41250000D03*
G04 #@! TD*
G04 #@! TO.C,KiKit_MB_10_5*
X82500000Y-54800000D03*
G04 #@! TD*
G04 #@! TO.C,KiKit_MB_5_5*
X31000000Y-54800000D03*
G04 #@! TD*
D12*
G04 #@! TO.C,BT1*
X81987500Y-47886433D03*
D13*
X126687500Y-47886433D03*
G04 #@! TD*
D10*
G04 #@! TO.C,KiKit_MB_5_2*
X34000000Y-54800000D03*
G04 #@! TD*
G04 #@! TO.C,KiKit_MB_4_3*
X16500000Y-54800000D03*
G04 #@! TD*
G04 #@! TO.C,KiKit_MB_9_2*
X68200000Y-42250000D03*
G04 #@! TD*
G04 #@! TO.C,KiKit_MB_21_2*
X68200000Y-99250000D03*
G04 #@! TD*
G04 #@! TO.C,KiKit_MB_14_4*
X65800000Y-85500000D03*
G04 #@! TD*
G04 #@! TO.C,KiKit_MB_21_1*
X68200000Y-100250000D03*
G04 #@! TD*
D11*
G04 #@! TO.C,*
X101000000Y-60500000D03*
G04 #@! TD*
D10*
G04 #@! TO.C,KiKit_MB_14_5*
X65800000Y-86500000D03*
G04 #@! TD*
G04 #@! TO.C,KiKit_MB_2_1*
X65800000Y-25500000D03*
G04 #@! TD*
G04 #@! TO.C,KiKit_MB_21_5*
X68200000Y-96250000D03*
G04 #@! TD*
G04 #@! TO.C,KiKit_MB_24_4*
X118500000Y-57200000D03*
G04 #@! TD*
G04 #@! TO.C,KiKit_MB_8_1*
X68200000Y-29500000D03*
G04 #@! TD*
G04 #@! TO.C,KiKit_MB_1_3*
X65800000Y-13750000D03*
G04 #@! TD*
G04 #@! TO.C,KiKit_MB_15_5*
X65800000Y-100250000D03*
G04 #@! TD*
G04 #@! TO.C,KiKit_MB_6_3*
X49500000Y-54800000D03*
G04 #@! TD*
G04 #@! TO.C,KiKit_MB_15_3*
X65800000Y-98250000D03*
G04 #@! TD*
G36*
X63467915Y-66094685D02*
G01*
X63513670Y-66147489D01*
X63524876Y-66199124D01*
X63500124Y-90901124D01*
X63480372Y-90968144D01*
X63427522Y-91013846D01*
X63376124Y-91025000D01*
X2748504Y-91025000D01*
X2681465Y-91005315D01*
X2635710Y-90952511D01*
X2624505Y-90901497D01*
X2525499Y-66199497D01*
X2544915Y-66132379D01*
X2597535Y-66086413D01*
X2649498Y-66075000D01*
X63400876Y-66075000D01*
X63467915Y-66094685D01*
G37*
G36*
X131467915Y-9094685D02*
G01*
X131513670Y-9147489D01*
X131524876Y-9199124D01*
X131500124Y-33901124D01*
X131480372Y-33968144D01*
X131427522Y-34013846D01*
X131376124Y-34025000D01*
X70748504Y-34025000D01*
X70681465Y-34005315D01*
X70635710Y-33952511D01*
X70624505Y-33901497D01*
X70525499Y-9199497D01*
X70544915Y-9132379D01*
X70597535Y-9086413D01*
X70649498Y-9075000D01*
X131400876Y-9075000D01*
X131467915Y-9094685D01*
G37*
G36*
X131467915Y-66094685D02*
G01*
X131513670Y-66147489D01*
X131524876Y-66199124D01*
X131500124Y-90901124D01*
X131480372Y-90968144D01*
X131427522Y-91013846D01*
X131376124Y-91025000D01*
X70748504Y-91025000D01*
X70681465Y-91005315D01*
X70635710Y-90952511D01*
X70624505Y-90901497D01*
X70525499Y-66199497D01*
X70544915Y-66132379D01*
X70597535Y-66086413D01*
X70649498Y-66075000D01*
X131400876Y-66075000D01*
X131467915Y-66094685D01*
G37*
G36*
X63467915Y-9094685D02*
G01*
X63513670Y-9147489D01*
X63524876Y-9199124D01*
X63500124Y-33901124D01*
X63480372Y-33968144D01*
X63427522Y-34013846D01*
X63376124Y-34025000D01*
X2748504Y-34025000D01*
X2681465Y-34005315D01*
X2635710Y-33952511D01*
X2624505Y-33901497D01*
X2525499Y-9199497D01*
X2544915Y-9132379D01*
X2597535Y-9086413D01*
X2649498Y-9075000D01*
X63400876Y-9075000D01*
X63467915Y-9094685D01*
G37*
M02*
